<svg width="1556" height="1208" viewBox="0 0 1556 1208" fill="none" xmlns="http://www.w3.org/2000/svg">
<rect width="1556" height="1208" fill="#121314"/>
<rect x="1016" y="238" width="452" height="738" rx="8" fill="#282936"/>
<path d="M1065.55 618.597L1050.76 608.565V606.106L1065.55 596.074V599.207L1053.61 607.256V607.415L1065.55 615.464V618.597ZM1079.53 620.976C1078.34 620.976 1077.24 620.764 1076.24 620.341C1075.23 619.892 1074.44 619.258 1073.86 618.438C1073.28 617.619 1072.99 616.641 1072.99 615.504C1072.99 613.336 1074.07 611.697 1076.24 610.587C1078.41 609.45 1081.98 608.684 1086.95 608.287C1086.92 607.415 1086.73 606.609 1086.39 605.868C1086.07 605.128 1085.54 604.547 1084.8 604.124C1084.06 603.674 1083.07 603.45 1081.83 603.45C1081.01 603.45 1080.19 603.569 1079.37 603.806C1078.58 604.018 1077.81 604.309 1077.07 604.679C1076.36 605.022 1075.7 605.379 1075.09 605.749L1073.82 603.529C1074.45 603.106 1075.22 602.683 1076.12 602.26C1077.05 601.811 1078.04 601.454 1079.09 601.189C1080.15 600.899 1081.25 600.753 1082.39 600.753C1084.16 600.753 1085.61 601.084 1086.75 601.745C1087.91 602.405 1088.77 603.331 1089.32 604.52C1089.91 605.683 1090.2 607.071 1090.2 608.684V620.5H1087.54L1087.26 617.883H1087.14C1086.09 618.729 1084.9 619.456 1083.57 620.064C1082.25 620.672 1080.9 620.976 1079.53 620.976ZM1080.4 618.359C1081.51 618.359 1082.61 618.108 1083.69 617.605C1084.78 617.103 1085.86 616.403 1086.95 615.504V610.428C1084.2 610.666 1082.03 610.997 1080.44 611.42C1078.88 611.843 1077.77 612.385 1077.11 613.045C1076.48 613.68 1076.16 614.42 1076.16 615.266C1076.16 615.98 1076.36 616.574 1076.75 617.05C1077.15 617.5 1077.67 617.83 1078.3 618.042C1078.96 618.253 1079.66 618.359 1080.4 618.359ZM1105.84 620.976C1103.97 620.976 1102.21 620.672 1100.57 620.064C1098.93 619.456 1097.53 618.755 1096.37 617.962L1097.87 615.821C1098.98 616.614 1100.21 617.249 1101.56 617.724C1102.91 618.2 1104.47 618.438 1106.24 618.438C1107.88 618.438 1109.1 618.134 1109.89 617.526C1110.71 616.918 1111.12 616.218 1111.12 615.425C1111.12 615.054 1111.04 614.711 1110.88 614.394C1110.75 614.076 1110.47 613.772 1110.05 613.482C1109.65 613.191 1109.06 612.913 1108.26 612.649C1107.47 612.385 1106.41 612.12 1105.09 611.856C1102.58 611.327 1100.69 610.613 1099.42 609.715C1098.18 608.816 1097.56 607.653 1097.56 606.225C1097.56 604.666 1098.23 603.37 1099.58 602.339C1100.93 601.282 1102.92 600.753 1105.57 600.753C1107.05 600.753 1108.47 601.004 1109.85 601.507C1111.22 601.982 1112.39 602.551 1113.34 603.212L1111.75 605.313C1110.88 604.679 1109.89 604.19 1108.78 603.846C1107.67 603.476 1106.5 603.291 1105.29 603.291C1104.18 603.291 1103.29 603.423 1102.63 603.687C1102 603.925 1101.53 604.256 1101.24 604.679C1100.98 605.102 1100.85 605.564 1100.85 606.067C1100.85 606.886 1101.28 607.534 1102.16 608.01C1103.05 608.459 1104.48 608.882 1106.44 609.278C1108.58 609.728 1110.22 610.23 1111.36 610.785C1112.52 611.34 1113.31 611.975 1113.73 612.689C1114.18 613.402 1114.41 614.248 1114.41 615.226C1114.41 616.284 1114.08 617.249 1113.42 618.121C1112.76 618.967 1111.79 619.654 1110.52 620.183C1109.25 620.711 1107.69 620.976 1105.84 620.976ZM1129.86 620.5V603.886H1120.9V601.229H1133.11V620.5H1129.86ZM1131.13 597.185C1130.39 597.185 1129.77 596.96 1129.26 596.51C1128.76 596.035 1128.51 595.413 1128.51 594.647C1128.51 593.88 1128.76 593.272 1129.26 592.823C1129.77 592.347 1130.39 592.109 1131.13 592.109C1131.87 592.109 1132.49 592.347 1132.99 592.823C1133.49 593.272 1133.74 593.88 1133.74 594.647C1133.74 595.413 1133.49 596.035 1132.99 596.51C1132.49 596.96 1131.87 597.185 1131.13 597.185ZM1151.85 620.976C1149.34 620.976 1147.32 620.103 1145.78 618.359C1144.25 616.588 1143.48 614.103 1143.48 610.904C1143.48 608.816 1143.89 607.018 1144.71 605.511C1145.56 603.978 1146.64 602.802 1147.96 601.982C1149.31 601.163 1150.74 600.753 1152.25 600.753C1153.38 600.753 1154.41 600.978 1155.34 601.427C1156.29 601.85 1157.18 602.458 1158 603.251H1158.11L1157.96 599.683V592.268H1161.21V620.5H1158.51L1158.23 617.962H1158.11C1157.35 618.782 1156.41 619.495 1155.3 620.103C1154.21 620.685 1153.06 620.976 1151.85 620.976ZM1152.52 618.24C1153.47 618.24 1154.4 618.002 1155.3 617.526C1156.2 617.024 1157.08 616.297 1157.96 615.345V605.749C1157.08 604.93 1156.22 604.348 1155.38 604.005C1154.56 603.661 1153.73 603.489 1152.88 603.489C1151.77 603.489 1150.75 603.806 1149.83 604.441C1148.93 605.049 1148.2 605.908 1147.65 607.018C1147.12 608.102 1146.85 609.384 1146.85 610.865C1146.85 613.164 1147.36 614.975 1148.36 616.297C1149.36 617.592 1150.75 618.24 1152.52 618.24ZM1177.96 620.976C1176.03 620.976 1174.28 620.579 1172.69 619.786C1171.13 618.993 1169.89 617.843 1168.96 616.337C1168.04 614.803 1167.58 612.966 1167.58 610.825C1167.58 608.737 1168.04 606.939 1168.96 605.432C1169.89 603.925 1171.09 602.775 1172.57 601.982C1174.08 601.163 1175.69 600.753 1177.41 600.753C1179.26 600.753 1180.83 601.137 1182.13 601.903C1183.45 602.643 1184.45 603.687 1185.14 605.036C1185.86 606.384 1186.21 607.97 1186.21 609.794C1186.21 610.164 1186.2 610.521 1186.17 610.865C1186.15 611.208 1186.11 611.512 1186.05 611.777H1169.76V609.239H1184.11L1183.28 610.151C1183.28 607.877 1182.75 606.172 1181.69 605.036C1180.66 603.899 1179.26 603.331 1177.49 603.331C1176.3 603.331 1175.19 603.621 1174.16 604.203C1173.15 604.785 1172.35 605.63 1171.74 606.741C1171.13 607.851 1170.83 609.212 1170.83 610.825C1170.83 612.49 1171.16 613.878 1171.82 614.988C1172.48 616.099 1173.38 616.945 1174.51 617.526C1175.65 618.081 1176.93 618.359 1178.36 618.359C1179.52 618.359 1180.57 618.2 1181.49 617.883C1182.44 617.539 1183.36 617.09 1184.23 616.535L1185.42 618.676C1184.47 619.31 1183.37 619.852 1182.13 620.302C1180.91 620.751 1179.52 620.976 1177.96 620.976ZM1192.9 618.597V615.464L1204.83 607.415V607.256L1192.9 599.207V596.074L1207.69 606.106V608.565L1192.9 618.597Z" fill="#EA51B2"/>
<rect x="88" y="93" width="1380" height="98" rx="8" fill="#282936"/>
<path d="M137.549 153.597L122.758 143.565V141.106L137.549 131.074V134.207L125.613 142.256V142.415L137.549 150.464V153.597ZM145.463 155.5V136.229H148.16L148.437 139.52H148.596C149.601 138.436 150.684 137.538 151.847 136.824C153.011 136.11 154.346 135.753 155.852 135.753C158.126 135.753 159.804 136.414 160.888 137.736C161.972 139.058 162.514 140.987 162.514 143.525V155.5H159.262V143.961C159.262 142.137 158.919 140.789 158.231 139.917C157.544 139.018 156.407 138.569 154.821 138.569C153.685 138.569 152.667 138.859 151.768 139.441C150.869 140.022 149.852 140.895 148.715 142.058V155.5H145.463ZM175.306 155.976C174.116 155.976 173.019 155.764 172.015 155.341C171.01 154.892 170.217 154.258 169.636 153.438C169.054 152.619 168.763 151.641 168.763 150.504C168.763 148.336 169.847 146.697 172.015 145.587C174.183 144.45 177.751 143.684 182.721 143.287C182.695 142.415 182.51 141.609 182.166 140.868C181.849 140.128 181.32 139.547 180.58 139.124C179.84 138.674 178.848 138.45 177.606 138.45C176.786 138.45 175.967 138.569 175.147 138.806C174.354 139.018 173.588 139.309 172.848 139.679C172.134 140.022 171.473 140.379 170.865 140.749L169.596 138.529C170.231 138.106 170.997 137.683 171.896 137.26C172.821 136.811 173.812 136.454 174.87 136.189C175.927 135.899 177.024 135.753 178.161 135.753C179.932 135.753 181.386 136.084 182.523 136.745C183.686 137.405 184.545 138.331 185.1 139.52C185.682 140.683 185.972 142.071 185.972 143.684V155.5H183.316L183.038 152.883H182.919C181.862 153.729 180.672 154.456 179.351 155.064C178.029 155.672 176.681 155.976 175.306 155.976ZM176.178 153.359C177.289 153.359 178.386 153.108 179.47 152.605C180.553 152.103 181.637 151.403 182.721 150.504V145.428C179.972 145.666 177.804 145.997 176.218 146.42C174.658 146.843 173.548 147.385 172.887 148.045C172.253 148.68 171.936 149.42 171.936 150.266C171.936 150.98 172.134 151.574 172.53 152.05C172.927 152.5 173.442 152.83 174.077 153.042C174.738 153.253 175.438 153.359 176.178 153.359ZM199.478 155.5L191.35 136.229H194.641L199.082 147.173C199.478 148.125 199.848 149.076 200.192 150.028C200.562 150.98 200.919 151.918 201.263 152.843H201.421C201.765 151.918 202.109 150.98 202.452 150.028C202.796 149.076 203.153 148.125 203.523 147.173L207.964 136.229H211.096L203.126 155.5H199.478ZM217.346 153.597V150.464L229.281 142.415V142.256L217.346 134.207V131.074L232.136 141.106V143.565L217.346 153.597Z" fill="#EA51B2"/>
<rect x="88" y="1016" width="1380" height="98" rx="8" fill="#282936"/>
<path d="M137.549 1076.6L122.758 1066.56V1064.11L137.549 1054.07V1057.21L125.613 1065.26V1065.41L137.549 1073.46V1076.6ZM151.372 1078.5V1057.6C151.372 1056.04 151.649 1054.68 152.204 1053.52C152.786 1052.33 153.645 1051.42 154.782 1050.78C155.918 1050.12 157.372 1049.79 159.143 1049.79C160.095 1049.79 161.02 1049.88 161.919 1050.07C162.844 1050.23 163.77 1050.51 164.695 1050.9L163.941 1053.36C163.148 1052.99 162.408 1052.75 161.721 1052.65C161.06 1052.51 160.307 1052.45 159.461 1052.45C157.742 1052.45 156.5 1052.9 155.733 1053.8C154.967 1054.7 154.583 1055.92 154.583 1057.48V1078.5H151.372ZM145.86 1061.89V1059.43L151.491 1059.23H162.673V1061.89H145.86ZM177.447 1078.98C175.755 1078.98 174.183 1078.58 172.729 1077.79C171.301 1076.99 170.138 1075.84 169.239 1074.34C168.367 1072.83 167.931 1071.02 167.931 1068.9C167.931 1066.74 168.367 1064.9 169.239 1063.39C170.138 1061.89 171.301 1060.74 172.729 1059.94C174.183 1059.15 175.755 1058.75 177.447 1058.75C179.139 1058.75 180.699 1059.15 182.126 1059.94C183.58 1060.74 184.743 1061.89 185.616 1063.39C186.514 1064.9 186.964 1066.74 186.964 1068.9C186.964 1071.02 186.514 1072.83 185.616 1074.34C184.743 1075.84 183.58 1076.99 182.126 1077.79C180.699 1078.58 179.139 1078.98 177.447 1078.98ZM177.447 1076.28C178.69 1076.28 179.774 1075.98 180.699 1075.37C181.624 1074.73 182.338 1073.86 182.84 1072.75C183.342 1071.64 183.593 1070.36 183.593 1068.9C183.593 1067.42 183.342 1066.13 182.84 1065.02C182.338 1063.88 181.624 1063.01 180.699 1062.4C179.774 1061.77 178.69 1061.45 177.447 1061.45C176.205 1061.45 175.121 1061.77 174.196 1062.4C173.297 1063.01 172.583 1063.88 172.055 1065.02C171.552 1066.13 171.301 1067.42 171.301 1068.9C171.301 1070.36 171.552 1071.64 172.055 1072.75C172.583 1073.86 173.297 1074.73 174.196 1075.37C175.121 1075.98 176.205 1076.28 177.447 1076.28ZM201.223 1078.98C199.531 1078.98 197.958 1078.58 196.504 1077.79C195.077 1076.99 193.914 1075.84 193.015 1074.34C192.143 1072.83 191.707 1071.02 191.707 1068.9C191.707 1066.74 192.143 1064.9 193.015 1063.39C193.914 1061.89 195.077 1060.74 196.504 1059.94C197.958 1059.15 199.531 1058.75 201.223 1058.75C202.915 1058.75 204.475 1059.15 205.902 1059.94C207.356 1060.74 208.519 1061.89 209.391 1063.39C210.29 1064.9 210.74 1066.74 210.74 1068.9C210.74 1071.02 210.29 1072.83 209.391 1074.34C208.519 1075.84 207.356 1076.99 205.902 1077.79C204.475 1078.58 202.915 1078.98 201.223 1078.98ZM201.223 1076.28C202.466 1076.28 203.549 1075.98 204.475 1075.37C205.4 1074.73 206.114 1073.86 206.616 1072.75C207.118 1071.64 207.369 1070.36 207.369 1068.9C207.369 1067.42 207.118 1066.13 206.616 1065.02C206.114 1063.88 205.4 1063.01 204.475 1062.4C203.549 1061.77 202.466 1061.45 201.223 1061.45C199.981 1061.45 198.897 1061.77 197.972 1062.4C197.073 1063.01 196.359 1063.88 195.83 1065.02C195.328 1066.13 195.077 1067.42 195.077 1068.9C195.077 1070.36 195.328 1071.64 195.83 1072.75C196.359 1073.86 197.073 1074.73 197.972 1075.37C198.897 1075.98 199.981 1076.28 201.223 1076.28ZM228.726 1078.98C226.849 1078.98 225.369 1078.65 224.285 1077.98C223.201 1077.3 222.422 1076.36 221.946 1075.17C221.496 1073.98 221.272 1072.59 221.272 1071.01V1061.89H215.839V1059.43L221.391 1059.23L221.827 1053.04H224.523V1059.23H234V1061.89H224.523V1071.05C224.523 1072.18 224.668 1073.15 224.959 1073.94C225.25 1074.73 225.752 1075.33 226.466 1075.72C227.18 1076.12 228.158 1076.32 229.4 1076.32C230.326 1076.32 231.158 1076.24 231.898 1076.08C232.639 1075.92 233.352 1075.71 234.04 1075.45L234.753 1077.83C233.881 1078.14 232.956 1078.41 231.978 1078.62C231.026 1078.86 229.942 1078.98 228.726 1078.98ZM249.964 1078.98C248.035 1078.98 246.277 1078.58 244.691 1077.79C243.131 1076.99 241.888 1075.84 240.963 1074.34C240.038 1072.8 239.575 1070.97 239.575 1068.82C239.575 1066.74 240.038 1064.94 240.963 1063.43C241.888 1061.93 243.091 1060.78 244.572 1059.98C246.078 1059.16 247.691 1058.75 249.409 1058.75C251.26 1058.75 252.832 1059.14 254.128 1059.9C255.45 1060.64 256.454 1061.69 257.141 1063.04C257.855 1064.38 258.212 1065.97 258.212 1067.79C258.212 1068.16 258.199 1068.52 258.172 1068.86C258.146 1069.21 258.106 1069.51 258.053 1069.78H241.756V1067.24H256.11L255.278 1068.15C255.278 1065.88 254.749 1064.17 253.692 1063.04C252.661 1061.9 251.26 1061.33 249.488 1061.33C248.299 1061.33 247.189 1061.62 246.158 1062.2C245.153 1062.78 244.347 1063.63 243.739 1064.74C243.131 1065.85 242.827 1067.21 242.827 1068.82C242.827 1070.49 243.157 1071.88 243.818 1072.99C244.479 1074.1 245.378 1074.94 246.515 1075.53C247.651 1076.08 248.933 1076.36 250.361 1076.36C251.524 1076.36 252.568 1076.2 253.493 1075.88C254.445 1075.54 255.357 1075.09 256.229 1074.53L257.419 1076.68C256.467 1077.31 255.37 1077.85 254.128 1078.3C252.912 1078.75 251.524 1078.98 249.964 1078.98ZM266.444 1078.5V1059.23H269.14L269.418 1063.79H269.537C270.541 1062.23 271.784 1061 273.264 1060.1C274.745 1059.2 276.37 1058.75 278.141 1058.75C278.855 1058.75 279.516 1058.82 280.124 1058.95C280.759 1059.06 281.367 1059.26 281.948 1059.55L281.195 1062.36C280.534 1062.12 279.965 1061.95 279.49 1061.85C279.014 1061.74 278.393 1061.69 277.626 1061.69C276.172 1061.69 274.771 1062.11 273.423 1062.96C272.101 1063.78 270.859 1065.19 269.696 1067.2V1078.5H266.444ZM288.673 1076.6V1073.46L300.609 1065.41V1065.26L288.673 1057.21V1054.07L303.464 1064.11V1066.56L288.673 1076.6Z" fill="#EA51B2"/>
<rect x="88" y="238" width="889" height="738" rx="8" fill="#282936"/>
<path d="M137.549 358.097L122.758 348.065V345.606L137.549 335.574V338.707L125.613 346.756V346.915L137.549 354.964V358.097ZM144.076 360V340.729H146.693L146.97 343.267H147.05C147.552 342.368 148.133 341.641 148.794 341.086C149.455 340.531 150.341 340.253 151.451 340.253C152.403 340.253 153.182 340.531 153.79 341.086C154.398 341.641 154.835 342.474 155.099 343.584C155.654 342.553 156.262 341.747 156.923 341.165C157.61 340.557 158.509 340.253 159.619 340.253C160.967 340.253 162.012 340.769 162.752 341.8C163.518 342.804 163.902 344.271 163.902 346.201V360H160.65V346.439C160.65 344.192 159.963 343.069 158.588 343.069C157.927 343.069 157.372 343.32 156.923 343.822C156.5 344.298 156.024 345.038 155.495 346.042V360H152.482V346.439C152.482 345.329 152.323 344.496 152.006 343.941C151.715 343.359 151.213 343.069 150.499 343.069C149.838 343.069 149.257 343.32 148.755 343.822C148.279 344.298 147.803 345.038 147.327 346.042V360H144.076ZM175.306 360.476C174.116 360.476 173.019 360.264 172.015 359.841C171.01 359.392 170.217 358.758 169.636 357.938C169.054 357.119 168.763 356.141 168.763 355.004C168.763 352.836 169.847 351.197 172.015 350.087C174.183 348.95 177.751 348.184 182.721 347.787C182.695 346.915 182.51 346.109 182.166 345.368C181.849 344.628 181.32 344.047 180.58 343.624C179.84 343.174 178.848 342.95 177.606 342.95C176.786 342.95 175.967 343.069 175.147 343.306C174.354 343.518 173.588 343.809 172.848 344.179C172.134 344.522 171.473 344.879 170.865 345.249L169.596 343.029C170.231 342.606 170.997 342.183 171.896 341.76C172.821 341.311 173.812 340.954 174.87 340.689C175.927 340.399 177.024 340.253 178.161 340.253C179.932 340.253 181.386 340.584 182.523 341.245C183.686 341.905 184.545 342.831 185.1 344.02C185.682 345.183 185.972 346.571 185.972 348.184V360H183.316L183.038 357.383H182.919C181.862 358.229 180.672 358.956 179.351 359.564C178.029 360.172 176.681 360.476 175.306 360.476ZM176.178 357.859C177.289 357.859 178.386 357.608 179.47 357.105C180.553 356.603 181.637 355.903 182.721 355.004V349.928C179.972 350.166 177.804 350.497 176.218 350.92C174.658 351.343 173.548 351.885 172.887 352.545C172.253 353.18 171.936 353.92 171.936 354.766C171.936 355.48 172.134 356.074 172.53 356.55C172.927 357 173.442 357.33 174.077 357.542C174.738 357.753 175.438 357.859 176.178 357.859ZM201.858 360V343.386H192.896V340.729H205.109V360H201.858ZM203.126 336.685C202.386 336.685 201.765 336.46 201.263 336.01C200.76 335.535 200.509 334.913 200.509 334.147C200.509 333.38 200.76 332.772 201.263 332.323C201.765 331.847 202.386 331.609 203.126 331.609C203.867 331.609 204.488 331.847 204.99 332.323C205.492 332.772 205.743 333.38 205.743 334.147C205.743 334.913 205.492 335.535 204.99 336.01C204.488 336.46 203.867 336.685 203.126 336.685ZM216.791 360V340.729H219.487L219.765 344.02H219.923C220.928 342.936 222.012 342.038 223.175 341.324C224.338 340.61 225.673 340.253 227.18 340.253C229.453 340.253 231.132 340.914 232.216 342.236C233.299 343.558 233.841 345.487 233.841 348.025V360H230.59V348.461C230.59 346.637 230.246 345.289 229.559 344.417C228.872 343.518 227.735 343.069 226.149 343.069C225.012 343.069 223.994 343.359 223.096 343.941C222.197 344.522 221.179 345.395 220.042 346.558V360H216.791ZM241.122 358.097V354.964L253.057 346.915V346.756L241.122 338.707V335.574L255.912 345.606V348.065L241.122 358.097Z" fill="#EA51B2"/>
<rect x="118" y="424" width="828" height="142.582" rx="5.23735" fill="#101012"/>
<path d="M150.438 502.545L140.755 495.977V494.368L150.438 487.8V489.851L142.624 495.12V495.224L150.438 500.494V502.545ZM155.62 503.791V485.308H157.748V490.344L157.618 493.329H157.696C158.337 492.637 159.038 492.057 159.799 491.59C160.56 491.105 161.434 490.863 162.421 490.863C163.909 490.863 165.008 491.296 165.718 492.161C166.427 493.026 166.782 494.29 166.782 495.951V503.791H164.653V496.237C164.653 495.043 164.428 494.16 163.978 493.589C163.528 493 162.784 492.706 161.746 492.706C161.002 492.706 160.335 492.897 159.747 493.277C159.159 493.658 158.492 494.229 157.748 494.991V503.791H155.62ZM177.337 504.102C176.074 504.102 174.923 503.843 173.885 503.324C172.864 502.804 172.05 502.052 171.444 501.065C170.839 500.061 170.536 498.859 170.536 497.457C170.536 496.09 170.839 494.913 171.444 493.926C172.05 492.94 172.838 492.187 173.807 491.668C174.793 491.131 175.849 490.863 176.974 490.863C178.185 490.863 179.215 491.114 180.063 491.616C180.928 492.101 181.586 492.784 182.036 493.667C182.503 494.549 182.737 495.588 182.737 496.782C182.737 497.024 182.728 497.258 182.711 497.483C182.693 497.708 182.667 497.907 182.633 498.08H171.964V496.418H181.361L180.816 497.015C180.816 495.527 180.47 494.411 179.777 493.667C179.102 492.923 178.185 492.551 177.026 492.551C176.247 492.551 175.52 492.741 174.845 493.122C174.187 493.502 173.66 494.056 173.262 494.783C172.864 495.51 172.665 496.401 172.665 497.457C172.665 498.547 172.881 499.456 173.314 500.182C173.746 500.909 174.335 501.463 175.079 501.844C175.823 502.207 176.662 502.389 177.597 502.389C178.358 502.389 179.042 502.285 179.648 502.077C180.271 501.852 180.868 501.558 181.439 501.195L182.217 502.597C181.594 503.012 180.876 503.367 180.063 503.661C179.267 503.955 178.358 504.102 177.337 504.102ZM190.722 504.102C189.943 504.102 189.225 503.964 188.567 503.687C187.91 503.393 187.39 502.977 187.01 502.441C186.629 501.904 186.439 501.264 186.439 500.52C186.439 499.101 187.148 498.028 188.567 497.301C189.986 496.557 192.323 496.055 195.576 495.795C195.559 495.224 195.438 494.696 195.213 494.212C195.005 493.727 194.659 493.347 194.174 493.07C193.69 492.775 193.041 492.628 192.227 492.628C191.691 492.628 191.155 492.706 190.618 492.862C190.099 493 189.597 493.191 189.112 493.433C188.645 493.658 188.212 493.892 187.814 494.134L186.984 492.68C187.399 492.403 187.901 492.127 188.489 491.85C189.095 491.555 189.744 491.322 190.436 491.149C191.129 490.958 191.847 490.863 192.591 490.863C193.75 490.863 194.702 491.08 195.446 491.512C196.208 491.945 196.77 492.551 197.134 493.329C197.514 494.091 197.705 494.999 197.705 496.055V503.791H195.966L195.784 502.077H195.706C195.014 502.631 194.235 503.107 193.37 503.505C192.504 503.903 191.622 504.102 190.722 504.102ZM191.293 502.389C192.02 502.389 192.738 502.225 193.448 501.896C194.157 501.567 194.867 501.108 195.576 500.52V497.197C193.776 497.353 192.357 497.569 191.319 497.846C190.298 498.123 189.571 498.478 189.138 498.91C188.723 499.326 188.515 499.81 188.515 500.364C188.515 500.831 188.645 501.221 188.905 501.532C189.164 501.827 189.502 502.043 189.917 502.181C190.35 502.32 190.808 502.389 191.293 502.389ZM206.936 504.102C205.292 504.102 203.968 503.531 202.964 502.389C201.961 501.229 201.459 499.603 201.459 497.509C201.459 496.142 201.727 494.965 202.263 493.978C202.817 492.975 203.527 492.204 204.392 491.668C205.275 491.131 206.209 490.863 207.196 490.863C207.94 490.863 208.615 491.01 209.22 491.304C209.844 491.581 210.423 491.979 210.96 492.499H211.038L210.934 490.162V485.308H213.062V503.791H211.297L211.116 502.129H211.038C210.536 502.666 209.921 503.133 209.195 503.531C208.485 503.912 207.732 504.102 206.936 504.102ZM207.377 502.311C208 502.311 208.606 502.155 209.195 501.844C209.783 501.515 210.363 501.039 210.934 500.416V494.134C210.363 493.598 209.8 493.217 209.246 492.992C208.71 492.767 208.165 492.654 207.611 492.654C206.884 492.654 206.218 492.862 205.612 493.277C205.024 493.675 204.548 494.238 204.184 494.965C203.838 495.674 203.665 496.514 203.665 497.483C203.665 498.988 203.994 500.174 204.652 501.039C205.309 501.887 206.218 502.311 207.377 502.311ZM224.033 504.102C222.77 504.102 221.619 503.843 220.58 503.324C219.559 502.804 218.746 502.052 218.14 501.065C217.535 500.061 217.232 498.859 217.232 497.457C217.232 496.09 217.535 494.913 218.14 493.926C218.746 492.94 219.533 492.187 220.503 491.668C221.489 491.131 222.545 490.863 223.67 490.863C224.881 490.863 225.911 491.114 226.759 491.616C227.624 492.101 228.282 492.784 228.732 493.667C229.199 494.549 229.432 495.588 229.432 496.782C229.432 497.024 229.424 497.258 229.406 497.483C229.389 497.708 229.363 497.907 229.329 498.08H218.659V496.418H228.057L227.511 497.015C227.511 495.527 227.165 494.411 226.473 493.667C225.798 492.923 224.881 492.551 223.721 492.551C222.943 492.551 222.216 492.741 221.541 493.122C220.883 493.502 220.355 494.056 219.957 494.783C219.559 495.51 219.36 496.401 219.36 497.457C219.36 498.547 219.577 499.456 220.009 500.182C220.442 500.909 221.03 501.463 221.775 501.844C222.519 502.207 223.358 502.389 224.293 502.389C225.054 502.389 225.738 502.285 226.343 502.077C226.966 501.852 227.563 501.558 228.134 501.195L228.913 502.597C228.29 503.012 227.572 503.367 226.759 503.661C225.963 503.955 225.054 504.102 224.033 504.102ZM234.822 503.791V491.175H236.587L236.769 494.16H236.847C237.504 493.139 238.318 492.334 239.287 491.746C240.256 491.157 241.32 490.863 242.48 490.863C242.947 490.863 243.38 490.906 243.778 490.993C244.193 491.062 244.591 491.192 244.972 491.382L244.479 493.225C244.046 493.07 243.674 492.957 243.362 492.888C243.051 492.819 242.644 492.784 242.142 492.784C241.19 492.784 240.273 493.061 239.391 493.615C238.525 494.151 237.712 495.077 236.95 496.392V503.791H234.822ZM249.375 502.545V500.494L257.188 495.224V495.12L249.375 489.851V487.8L259.057 494.368V495.977L249.375 502.545Z" fill="#EA51B2"/>
<rect x="118" y="597" width="828" height="142.582" rx="5.23735" fill="#101012"/>
<path d="M150.438 675.545L140.755 668.977V667.368L150.438 660.8V662.851L142.624 668.12V668.224L150.438 673.494V675.545ZM161.253 677.102C160.024 677.102 158.873 676.903 157.8 676.505C156.727 676.107 155.81 675.649 155.048 675.129L156.035 673.728C156.762 674.247 157.567 674.662 158.449 674.974C159.332 675.285 160.353 675.441 161.512 675.441C162.585 675.441 163.381 675.242 163.901 674.844C164.437 674.446 164.705 673.987 164.705 673.468C164.705 673.226 164.653 673.001 164.549 672.793C164.463 672.585 164.281 672.386 164.004 672.196C163.745 672.006 163.355 671.824 162.836 671.651C162.317 671.478 161.625 671.305 160.759 671.132C159.115 670.786 157.878 670.318 157.047 669.73C156.234 669.142 155.827 668.38 155.827 667.446C155.827 666.424 156.269 665.576 157.151 664.902C158.034 664.209 159.34 663.863 161.071 663.863C162.04 663.863 162.975 664.028 163.875 664.356C164.774 664.668 165.536 665.04 166.159 665.473L165.121 666.848C164.549 666.433 163.901 666.113 163.174 665.888C162.447 665.646 161.685 665.525 160.889 665.525C160.162 665.525 159.583 665.611 159.15 665.784C158.735 665.94 158.432 666.156 158.241 666.433C158.068 666.71 157.982 667.013 157.982 667.342C157.982 667.878 158.267 668.302 158.839 668.614C159.427 668.908 160.361 669.185 161.642 669.444C163.044 669.739 164.117 670.067 164.861 670.431C165.622 670.794 166.142 671.21 166.419 671.677C166.713 672.144 166.86 672.698 166.86 673.338C166.86 674.03 166.644 674.662 166.211 675.233C165.778 675.787 165.147 676.237 164.316 676.583C163.485 676.929 162.464 677.102 161.253 677.102ZM177.337 677.102C176.074 677.102 174.923 676.843 173.885 676.324C172.864 675.804 172.05 675.052 171.444 674.065C170.839 673.061 170.536 671.859 170.536 670.457C170.536 669.09 170.839 667.913 171.444 666.926C172.05 665.94 172.838 665.187 173.807 664.668C174.793 664.131 175.849 663.863 176.974 663.863C178.185 663.863 179.215 664.114 180.063 664.616C180.928 665.101 181.586 665.784 182.036 666.667C182.503 667.549 182.737 668.588 182.737 669.782C182.737 670.024 182.728 670.258 182.711 670.483C182.693 670.708 182.667 670.907 182.633 671.08H171.964V669.418H181.361L180.816 670.015C180.816 668.527 180.47 667.411 179.777 666.667C179.102 665.923 178.185 665.551 177.026 665.551C176.247 665.551 175.52 665.741 174.845 666.122C174.187 666.502 173.66 667.056 173.262 667.783C172.864 668.51 172.665 669.401 172.665 670.457C172.665 671.547 172.881 672.456 173.314 673.182C173.746 673.909 174.335 674.463 175.079 674.844C175.823 675.207 176.662 675.389 177.597 675.389C178.358 675.389 179.042 675.285 179.648 675.077C180.271 674.852 180.868 674.558 181.439 674.195L182.217 675.597C181.594 676.012 180.876 676.367 180.063 676.661C179.267 676.955 178.358 677.102 177.337 677.102ZM193.318 677.102C192.003 677.102 190.817 676.843 189.761 676.324C188.723 675.804 187.901 675.052 187.295 674.065C186.707 673.079 186.413 671.893 186.413 670.509C186.413 669.09 186.733 667.887 187.373 666.9C188.013 665.914 188.861 665.161 189.917 664.642C190.99 664.123 192.167 663.863 193.448 663.863C194.486 663.863 195.377 664.045 196.121 664.408C196.883 664.772 197.523 665.204 198.042 665.706L196.978 667.082C196.459 666.632 195.922 666.277 195.369 666.018C194.815 665.758 194.2 665.628 193.525 665.628C192.556 665.628 191.7 665.836 190.955 666.251C190.211 666.649 189.632 667.221 189.216 667.965C188.818 668.692 188.619 669.54 188.619 670.509C188.619 671.461 188.818 672.3 189.216 673.027C189.614 673.754 190.177 674.325 190.904 674.74C191.648 675.138 192.504 675.337 193.474 675.337C194.252 675.337 194.962 675.181 195.602 674.87C196.26 674.558 196.848 674.186 197.367 673.754L198.328 675.129C197.636 675.752 196.857 676.237 195.992 676.583C195.144 676.929 194.252 677.102 193.318 677.102ZM210.129 677.102C208.9 677.102 207.931 676.886 207.222 676.453C206.512 676.003 206.002 675.389 205.69 674.61C205.396 673.831 205.249 672.923 205.249 671.885V665.914H201.692V664.304L205.327 664.175L205.612 660.125H207.377V664.175H213.582V665.914H207.377V671.91C207.377 672.655 207.473 673.286 207.663 673.805C207.853 674.325 208.182 674.714 208.649 674.974C209.117 675.233 209.757 675.363 210.57 675.363C211.176 675.363 211.721 675.311 212.206 675.207C212.69 675.103 213.158 674.965 213.608 674.792L214.075 676.349C213.504 676.557 212.898 676.73 212.258 676.869C211.635 677.024 210.925 677.102 210.129 677.102ZM223.67 676.791V665.914H217.803V664.175H225.798V676.791H223.67ZM224.5 661.527C224.016 661.527 223.609 661.38 223.28 661.086C222.951 660.774 222.787 660.367 222.787 659.865C222.787 659.364 222.951 658.966 223.28 658.671C223.609 658.36 224.016 658.204 224.5 658.204C224.985 658.204 225.391 658.36 225.72 658.671C226.049 658.966 226.214 659.364 226.214 659.865C226.214 660.367 226.049 660.774 225.72 661.086C225.391 661.38 224.985 661.527 224.5 661.527ZM238.819 677.102C237.712 677.102 236.682 676.843 235.73 676.324C234.796 675.804 234.034 675.052 233.446 674.065C232.875 673.079 232.589 671.893 232.589 670.509C232.589 669.09 232.875 667.887 233.446 666.9C234.034 665.914 234.796 665.161 235.73 664.642C236.682 664.123 237.712 663.863 238.819 663.863C239.927 663.863 240.948 664.123 241.883 664.642C242.834 665.161 243.596 665.914 244.167 666.9C244.755 667.887 245.05 669.09 245.05 670.509C245.05 671.893 244.755 673.079 244.167 674.065C243.596 675.052 242.834 675.804 241.883 676.324C240.948 676.843 239.927 677.102 238.819 677.102ZM238.819 675.337C239.633 675.337 240.342 675.138 240.948 674.74C241.554 674.325 242.021 673.754 242.35 673.027C242.679 672.3 242.843 671.461 242.843 670.509C242.843 669.54 242.679 668.692 242.35 667.965C242.021 667.221 241.554 666.649 240.948 666.251C240.342 665.836 239.633 665.628 238.819 665.628C238.006 665.628 237.297 665.836 236.691 666.251C236.102 666.649 235.635 667.221 235.289 667.965C234.96 668.692 234.796 669.54 234.796 670.509C234.796 671.461 234.96 672.3 235.289 673.027C235.635 673.754 236.102 674.325 236.691 674.74C237.297 675.138 238.006 675.337 238.819 675.337ZM249.011 676.791V664.175H250.776L250.958 666.329H251.062C251.72 665.62 252.429 665.031 253.191 664.564C253.952 664.097 254.826 663.863 255.812 663.863C257.301 663.863 258.4 664.296 259.109 665.161C259.819 666.026 260.174 667.29 260.174 668.951V676.791H258.045V669.237C258.045 668.043 257.82 667.16 257.37 666.589C256.92 666 256.176 665.706 255.138 665.706C254.393 665.706 253.727 665.897 253.139 666.277C252.55 666.658 251.884 667.229 251.14 667.991V676.791H249.011ZM264.94 675.545V673.494L272.754 668.224V668.12L264.94 662.851V660.8L274.623 667.368V668.977L264.94 675.545Z" fill="#EA51B2"/>
<rect x="118" y="765" width="828" height="142.582" rx="5.23735" fill="#101012"/>
<path d="M150.438 843.545L140.755 836.977V835.368L150.438 828.8V830.851L142.624 836.12V836.224L150.438 841.494V843.545ZM161.253 845.102C160.024 845.102 158.873 844.903 157.8 844.505C156.727 844.107 155.81 843.649 155.048 843.129L156.035 841.728C156.762 842.247 157.567 842.662 158.449 842.974C159.332 843.285 160.353 843.441 161.512 843.441C162.585 843.441 163.381 843.242 163.901 842.844C164.437 842.446 164.705 841.987 164.705 841.468C164.705 841.226 164.653 841.001 164.549 840.793C164.463 840.585 164.281 840.386 164.004 840.196C163.745 840.006 163.355 839.824 162.836 839.651C162.317 839.478 161.625 839.305 160.759 839.132C159.115 838.786 157.878 838.318 157.047 837.73C156.234 837.142 155.827 836.38 155.827 835.446C155.827 834.424 156.269 833.576 157.151 832.902C158.034 832.209 159.34 831.863 161.071 831.863C162.04 831.863 162.975 832.028 163.875 832.356C164.774 832.668 165.536 833.04 166.159 833.473L165.121 834.848C164.549 834.433 163.901 834.113 163.174 833.888C162.447 833.646 161.685 833.525 160.889 833.525C160.162 833.525 159.583 833.611 159.15 833.784C158.735 833.94 158.432 834.156 158.241 834.433C158.068 834.71 157.982 835.013 157.982 835.342C157.982 835.878 158.267 836.302 158.839 836.614C159.427 836.908 160.361 837.185 161.642 837.444C163.044 837.739 164.117 838.067 164.861 838.431C165.622 838.794 166.142 839.21 166.419 839.677C166.713 840.144 166.86 840.698 166.86 841.338C166.86 842.03 166.644 842.662 166.211 843.233C165.778 843.787 165.147 844.237 164.316 844.583C163.485 844.929 162.464 845.102 161.253 845.102ZM177.337 845.102C176.074 845.102 174.923 844.843 173.885 844.324C172.864 843.804 172.05 843.052 171.444 842.065C170.839 841.061 170.536 839.859 170.536 838.457C170.536 837.09 170.839 835.913 171.444 834.926C172.05 833.94 172.838 833.187 173.807 832.668C174.793 832.131 175.849 831.863 176.974 831.863C178.185 831.863 179.215 832.114 180.063 832.616C180.928 833.101 181.586 833.784 182.036 834.667C182.503 835.549 182.737 836.588 182.737 837.782C182.737 838.024 182.728 838.258 182.711 838.483C182.693 838.708 182.667 838.907 182.633 839.08H171.964V837.418H181.361L180.816 838.015C180.816 836.527 180.47 835.411 179.777 834.667C179.102 833.923 178.185 833.551 177.026 833.551C176.247 833.551 175.52 833.741 174.845 834.122C174.187 834.502 173.66 835.056 173.262 835.783C172.864 836.51 172.665 837.401 172.665 838.457C172.665 839.547 172.881 840.456 173.314 841.182C173.746 841.909 174.335 842.463 175.079 842.844C175.823 843.207 176.662 843.389 177.597 843.389C178.358 843.389 179.042 843.285 179.648 843.077C180.271 842.852 180.868 842.558 181.439 842.195L182.217 843.597C181.594 844.012 180.876 844.367 180.063 844.661C179.267 844.955 178.358 845.102 177.337 845.102ZM193.318 845.102C192.003 845.102 190.817 844.843 189.761 844.324C188.723 843.804 187.901 843.052 187.295 842.065C186.707 841.079 186.413 839.893 186.413 838.509C186.413 837.09 186.733 835.887 187.373 834.9C188.013 833.914 188.861 833.161 189.917 832.642C190.99 832.123 192.167 831.863 193.448 831.863C194.486 831.863 195.377 832.045 196.121 832.408C196.883 832.772 197.523 833.204 198.042 833.706L196.978 835.082C196.459 834.632 195.922 834.277 195.369 834.018C194.815 833.758 194.2 833.628 193.525 833.628C192.556 833.628 191.7 833.836 190.955 834.251C190.211 834.649 189.632 835.221 189.216 835.965C188.818 836.692 188.619 837.54 188.619 838.509C188.619 839.461 188.818 840.3 189.216 841.027C189.614 841.754 190.177 842.325 190.904 842.74C191.648 843.138 192.504 843.337 193.474 843.337C194.252 843.337 194.962 843.181 195.602 842.87C196.26 842.558 196.848 842.186 197.367 841.754L198.328 843.129C197.636 843.752 196.857 844.237 195.992 844.583C195.144 844.929 194.252 845.102 193.318 845.102ZM210.129 845.102C208.9 845.102 207.931 844.886 207.222 844.453C206.512 844.003 206.002 843.389 205.69 842.61C205.396 841.831 205.249 840.923 205.249 839.885V833.914H201.692V832.304L205.327 832.175L205.612 828.125H207.377V832.175H213.582V833.914H207.377V839.91C207.377 840.655 207.473 841.286 207.663 841.805C207.853 842.325 208.182 842.714 208.649 842.974C209.117 843.233 209.757 843.363 210.57 843.363C211.176 843.363 211.721 843.311 212.206 843.207C212.69 843.103 213.158 842.965 213.608 842.792L214.075 844.349C213.504 844.557 212.898 844.73 212.258 844.869C211.635 845.024 210.925 845.102 210.129 845.102ZM223.67 844.791V833.914H217.803V832.175H225.798V844.791H223.67ZM224.5 829.527C224.016 829.527 223.609 829.38 223.28 829.086C222.951 828.774 222.787 828.367 222.787 827.865C222.787 827.364 222.951 826.966 223.28 826.671C223.609 826.36 224.016 826.204 224.5 826.204C224.985 826.204 225.391 826.36 225.72 826.671C226.049 826.966 226.214 827.364 226.214 827.865C226.214 828.367 226.049 828.774 225.72 829.086C225.391 829.38 224.985 829.527 224.5 829.527ZM238.819 845.102C237.712 845.102 236.682 844.843 235.73 844.324C234.796 843.804 234.034 843.052 233.446 842.065C232.875 841.079 232.589 839.893 232.589 838.509C232.589 837.09 232.875 835.887 233.446 834.9C234.034 833.914 234.796 833.161 235.73 832.642C236.682 832.123 237.712 831.863 238.819 831.863C239.927 831.863 240.948 832.123 241.883 832.642C242.834 833.161 243.596 833.914 244.167 834.9C244.755 835.887 245.05 837.09 245.05 838.509C245.05 839.893 244.755 841.079 244.167 842.065C243.596 843.052 242.834 843.804 241.883 844.324C240.948 844.843 239.927 845.102 238.819 845.102ZM238.819 843.337C239.633 843.337 240.342 843.138 240.948 842.74C241.554 842.325 242.021 841.754 242.35 841.027C242.679 840.3 242.843 839.461 242.843 838.509C242.843 837.54 242.679 836.692 242.35 835.965C242.021 835.221 241.554 834.649 240.948 834.251C240.342 833.836 239.633 833.628 238.819 833.628C238.006 833.628 237.297 833.836 236.691 834.251C236.102 834.649 235.635 835.221 235.289 835.965C234.96 836.692 234.796 837.54 234.796 838.509C234.796 839.461 234.96 840.3 235.289 841.027C235.635 841.754 236.102 842.325 236.691 842.74C237.297 843.138 238.006 843.337 238.819 843.337ZM249.011 844.791V832.175H250.776L250.958 834.329H251.062C251.72 833.62 252.429 833.031 253.191 832.564C253.952 832.097 254.826 831.863 255.812 831.863C257.301 831.863 258.4 832.296 259.109 833.161C259.819 834.026 260.174 835.29 260.174 836.951V844.791H258.045V837.237C258.045 836.043 257.82 835.16 257.37 834.589C256.92 834 256.176 833.706 255.138 833.706C254.393 833.706 253.727 833.897 253.139 834.277C252.55 834.658 251.884 835.229 251.14 835.991V844.791H249.011ZM264.94 843.545V841.494L272.754 836.224V836.12L264.94 830.851V828.8L274.623 835.368V836.977L264.94 843.545Z" fill="#EA51B2"/>
</svg>
