<svg width="1556" height="1208" viewBox="0 0 1556 1208" fill="none" xmlns="http://www.w3.org/2000/svg">
<rect width="1556" height="1208" fill="#121314"/>
<rect x="88" y="238" width="889" height="217" rx="8" fill="#282936"/>
<path d="M137.549 358.097L122.758 348.065V345.606L137.549 335.574V338.707L125.613 346.756V346.915L137.549 354.964V358.097ZM152.522 360.476C150.01 360.476 147.988 359.603 146.455 357.859C144.922 356.088 144.155 353.603 144.155 350.404C144.155 348.316 144.565 346.518 145.384 345.011C146.23 343.478 147.314 342.302 148.636 341.482C149.984 340.663 151.411 340.253 152.918 340.253C154.055 340.253 155.086 340.478 156.011 340.927C156.963 341.35 157.848 341.958 158.668 342.751H158.787L158.628 339.183V331.768H161.879V360H159.183L158.906 357.462H158.787C158.02 358.282 157.082 358.995 155.971 359.603C154.887 360.185 153.738 360.476 152.522 360.476ZM153.196 357.74C154.147 357.74 155.073 357.502 155.971 357.026C156.87 356.524 157.756 355.797 158.628 354.845V345.249C157.756 344.43 156.897 343.848 156.051 343.505C155.231 343.161 154.398 342.989 153.553 342.989C152.442 342.989 151.425 343.306 150.499 343.941C149.601 344.549 148.874 345.408 148.318 346.518C147.79 347.602 147.525 348.884 147.525 350.365C147.525 352.664 148.028 354.475 149.032 355.797C150.037 357.092 151.425 357.74 153.196 357.74ZM178.082 360V343.386H169.12V340.729H181.333V360H178.082ZM179.351 336.685C178.61 336.685 177.989 336.46 177.487 336.01C176.985 335.535 176.734 334.913 176.734 334.147C176.734 333.38 176.985 332.772 177.487 332.323C177.989 331.847 178.61 331.609 179.351 331.609C180.091 331.609 180.712 331.847 181.214 332.323C181.716 332.772 181.968 333.38 181.968 334.147C181.968 334.913 181.716 335.535 181.214 336.01C180.712 336.46 180.091 336.685 179.351 336.685ZM199.478 360L191.35 340.729H194.641L199.082 351.673C199.478 352.625 199.848 353.576 200.192 354.528C200.562 355.48 200.919 356.418 201.263 357.343H201.421C201.765 356.418 202.109 355.48 202.452 354.528C202.796 353.576 203.153 352.625 203.523 351.673L207.964 340.729H211.096L203.126 360H199.478ZM217.346 358.097V354.964L229.281 346.915V346.756L217.346 338.707V335.574L232.136 345.606V348.065L217.346 358.097Z" fill="#EA51B2"/>
<rect x="1016" y="238" width="452" height="738" rx="8" fill="#282936"/>
<path d="M1065.55 618.597L1050.76 608.565V606.106L1065.55 596.074V599.207L1053.61 607.256V607.415L1065.55 615.464V618.597ZM1080.52 620.976C1078.01 620.976 1075.99 620.103 1074.45 618.359C1072.92 616.588 1072.15 614.103 1072.15 610.904C1072.15 608.816 1072.56 607.018 1073.38 605.511C1074.23 603.978 1075.31 602.802 1076.64 601.982C1077.98 601.163 1079.41 600.753 1080.92 600.753C1082.05 600.753 1083.09 600.978 1084.01 601.427C1084.96 601.85 1085.85 602.458 1086.67 603.251H1086.79L1086.63 599.683V592.268H1089.88V620.5H1087.18L1086.91 617.962H1086.79C1086.02 618.782 1085.08 619.495 1083.97 620.103C1082.89 620.685 1081.74 620.976 1080.52 620.976ZM1081.2 618.24C1082.15 618.24 1083.07 618.002 1083.97 617.526C1084.87 617.024 1085.76 616.297 1086.63 615.345V605.749C1085.76 604.93 1084.9 604.348 1084.05 604.005C1083.23 603.661 1082.4 603.489 1081.55 603.489C1080.44 603.489 1079.42 603.806 1078.5 604.441C1077.6 605.049 1076.87 605.908 1076.32 607.018C1075.79 608.102 1075.53 609.384 1075.53 610.865C1075.53 613.164 1076.03 614.975 1077.03 616.297C1078.04 617.592 1079.42 618.24 1081.2 618.24ZM1106.08 620.5V603.886H1097.12V601.229H1109.33V620.5H1106.08ZM1107.35 597.185C1106.61 597.185 1105.99 596.96 1105.49 596.51C1104.98 596.035 1104.73 595.413 1104.73 594.647C1104.73 593.88 1104.98 593.272 1105.49 592.823C1105.99 592.347 1106.61 592.109 1107.35 592.109C1108.09 592.109 1108.71 592.347 1109.21 592.823C1109.72 593.272 1109.97 593.88 1109.97 594.647C1109.97 595.413 1109.72 596.035 1109.21 596.51C1108.71 596.96 1108.09 597.185 1107.35 597.185ZM1127.48 620.5L1119.35 601.229H1122.64L1127.08 612.173C1127.48 613.125 1127.85 614.076 1128.19 615.028C1128.56 615.98 1128.92 616.918 1129.26 617.843H1129.42C1129.77 616.918 1130.11 615.98 1130.45 615.028C1130.8 614.076 1131.15 613.125 1131.52 612.173L1135.96 601.229H1139.1L1131.13 620.5H1127.48ZM1145.35 618.597V615.464L1157.28 607.415V607.256L1145.35 599.207V596.074L1160.14 606.106V608.565L1145.35 618.597Z" fill="#EA51B2"/>
<rect x="88" y="502" width="889" height="217" rx="8" fill="#282936"/>
<path d="M137.549 622.097L122.758 612.065V609.606L137.549 599.574V602.707L125.613 610.756V610.915L137.549 618.964V622.097ZM152.522 624.476C150.01 624.476 147.988 623.603 146.455 621.859C144.922 620.088 144.155 617.603 144.155 614.404C144.155 612.316 144.565 610.518 145.384 609.011C146.23 607.478 147.314 606.302 148.636 605.482C149.984 604.663 151.411 604.253 152.918 604.253C154.055 604.253 155.086 604.478 156.011 604.927C156.963 605.35 157.848 605.958 158.668 606.751H158.787L158.628 603.183V595.768H161.879V624H159.183L158.906 621.462H158.787C158.02 622.282 157.082 622.995 155.971 623.603C154.887 624.185 153.738 624.476 152.522 624.476ZM153.196 621.74C154.147 621.74 155.073 621.502 155.971 621.026C156.87 620.524 157.756 619.797 158.628 618.845V609.249C157.756 608.43 156.897 607.848 156.051 607.505C155.231 607.161 154.398 606.989 153.553 606.989C152.442 606.989 151.425 607.306 150.499 607.941C149.601 608.549 148.874 609.408 148.318 610.518C147.79 611.602 147.525 612.884 147.525 614.365C147.525 616.664 148.028 618.475 149.032 619.797C150.037 621.092 151.425 621.74 153.196 621.74ZM178.082 624V607.386H169.12V604.729H181.333V624H178.082ZM179.351 600.685C178.61 600.685 177.989 600.46 177.487 600.01C176.985 599.535 176.734 598.913 176.734 598.147C176.734 597.38 176.985 596.772 177.487 596.323C177.989 595.847 178.61 595.609 179.351 595.609C180.091 595.609 180.712 595.847 181.214 596.323C181.716 596.772 181.968 597.38 181.968 598.147C181.968 598.913 181.716 599.535 181.214 600.01C180.712 600.46 180.091 600.685 179.351 600.685ZM199.478 624L191.35 604.729H194.641L199.082 615.673C199.478 616.625 199.848 617.576 200.192 618.528C200.562 619.48 200.919 620.418 201.263 621.343H201.421C201.765 620.418 202.109 619.48 202.452 618.528C202.796 617.576 203.153 616.625 203.523 615.673L207.964 604.729H211.096L203.126 624H199.478ZM217.346 622.097V618.964L229.281 610.915V610.756L217.346 602.707V599.574L232.136 609.606V612.065L217.346 622.097Z" fill="#EA51B2"/>
<rect x="88" y="759" width="889" height="217" rx="8" fill="#282936"/>
<path d="M137.549 879.097L122.758 869.065V866.606L137.549 856.574V859.707L125.613 867.756V867.915L137.549 875.964V879.097ZM152.522 881.476C150.01 881.476 147.988 880.603 146.455 878.859C144.922 877.088 144.155 874.603 144.155 871.404C144.155 869.316 144.565 867.518 145.384 866.011C146.23 864.478 147.314 863.302 148.636 862.482C149.984 861.663 151.411 861.253 152.918 861.253C154.055 861.253 155.086 861.478 156.011 861.927C156.963 862.35 157.848 862.958 158.668 863.751H158.787L158.628 860.183V852.768H161.879V881H159.183L158.906 878.462H158.787C158.02 879.282 157.082 879.995 155.971 880.603C154.887 881.185 153.738 881.476 152.522 881.476ZM153.196 878.74C154.147 878.74 155.073 878.502 155.971 878.026C156.87 877.524 157.756 876.797 158.628 875.845V866.249C157.756 865.43 156.897 864.848 156.051 864.505C155.231 864.161 154.398 863.989 153.553 863.989C152.442 863.989 151.425 864.306 150.499 864.941C149.601 865.549 148.874 866.408 148.318 867.518C147.79 868.602 147.525 869.884 147.525 871.365C147.525 873.664 148.028 875.475 149.032 876.797C150.037 878.092 151.425 878.74 153.196 878.74ZM178.082 881V864.386H169.12V861.729H181.333V881H178.082ZM179.351 857.685C178.61 857.685 177.989 857.46 177.487 857.01C176.985 856.535 176.734 855.913 176.734 855.147C176.734 854.38 176.985 853.772 177.487 853.323C177.989 852.847 178.61 852.609 179.351 852.609C180.091 852.609 180.712 852.847 181.214 853.323C181.716 853.772 181.968 854.38 181.968 855.147C181.968 855.913 181.716 856.535 181.214 857.01C180.712 857.46 180.091 857.685 179.351 857.685ZM199.478 881L191.35 861.729H194.641L199.082 872.673C199.478 873.625 199.848 874.576 200.192 875.528C200.562 876.48 200.919 877.418 201.263 878.343H201.421C201.765 877.418 202.109 876.48 202.452 875.528C202.796 874.576 203.153 873.625 203.523 872.673L207.964 861.729H211.096L203.126 881H199.478ZM217.346 879.097V875.964L229.281 867.915V867.756L217.346 859.707V856.574L232.136 866.606V869.065L217.346 879.097Z" fill="#EA51B2"/>
<rect x="88" y="93" width="1380" height="98" rx="8" fill="#282936"/>
<path d="M137.549 153.597L122.758 143.565V141.106L137.549 131.074V134.207L125.613 142.256V142.415L137.549 150.464V153.597ZM152.522 155.976C150.01 155.976 147.988 155.103 146.455 153.359C144.922 151.588 144.155 149.103 144.155 145.904C144.155 143.816 144.565 142.018 145.384 140.511C146.23 138.978 147.314 137.802 148.636 136.982C149.984 136.163 151.411 135.753 152.918 135.753C154.055 135.753 155.086 135.978 156.011 136.427C156.963 136.85 157.848 137.458 158.668 138.251H158.787L158.628 134.683V127.268H161.879V155.5H159.183L158.906 152.962H158.787C158.02 153.782 157.082 154.495 155.971 155.103C154.887 155.685 153.738 155.976 152.522 155.976ZM153.196 153.24C154.147 153.24 155.073 153.002 155.971 152.526C156.87 152.024 157.756 151.297 158.628 150.345V140.749C157.756 139.93 156.897 139.348 156.051 139.005C155.231 138.661 154.398 138.489 153.553 138.489C152.442 138.489 151.425 138.806 150.499 139.441C149.601 140.049 148.874 140.908 148.318 142.018C147.79 143.102 147.525 144.384 147.525 145.865C147.525 148.164 148.028 149.975 149.032 151.297C150.037 152.592 151.425 153.24 153.196 153.24ZM178.082 155.5V138.886H169.12V136.229H181.333V155.5H178.082ZM179.351 132.185C178.61 132.185 177.989 131.96 177.487 131.51C176.985 131.035 176.734 130.413 176.734 129.647C176.734 128.88 176.985 128.272 177.487 127.823C177.989 127.347 178.61 127.109 179.351 127.109C180.091 127.109 180.712 127.347 181.214 127.823C181.716 128.272 181.968 128.88 181.968 129.647C181.968 130.413 181.716 131.035 181.214 131.51C180.712 131.96 180.091 132.185 179.351 132.185ZM199.478 155.5L191.35 136.229H194.641L199.082 147.173C199.478 148.125 199.848 149.076 200.192 150.028C200.562 150.98 200.919 151.918 201.263 152.843H201.421C201.765 151.918 202.109 150.98 202.452 150.028C202.796 149.076 203.153 148.125 203.523 147.173L207.964 136.229H211.096L203.126 155.5H199.478ZM217.346 153.597V150.464L229.281 142.415V142.256L217.346 134.207V131.074L232.136 141.106V143.565L217.346 153.597Z" fill="#EA51B2"/>
<rect x="88" y="1016" width="1380" height="98" rx="8" fill="#282936"/>
<path d="M137.549 1076.6L122.758 1066.56V1064.11L137.549 1054.07V1057.21L125.613 1065.26V1065.41L137.549 1073.46V1076.6ZM152.522 1078.98C150.01 1078.98 147.988 1078.1 146.455 1076.36C144.922 1074.59 144.155 1072.1 144.155 1068.9C144.155 1066.82 144.565 1065.02 145.384 1063.51C146.23 1061.98 147.314 1060.8 148.636 1059.98C149.984 1059.16 151.411 1058.75 152.918 1058.75C154.055 1058.75 155.086 1058.98 156.011 1059.43C156.963 1059.85 157.848 1060.46 158.668 1061.25H158.787L158.628 1057.68V1050.27H161.879V1078.5H159.183L158.906 1075.96H158.787C158.02 1076.78 157.082 1077.5 155.971 1078.1C154.887 1078.69 153.738 1078.98 152.522 1078.98ZM153.196 1076.24C154.147 1076.24 155.073 1076 155.971 1075.53C156.87 1075.02 157.756 1074.3 158.628 1073.35V1063.75C157.756 1062.93 156.897 1062.35 156.051 1062C155.231 1061.66 154.398 1061.49 153.553 1061.49C152.442 1061.49 151.425 1061.81 150.499 1062.44C149.601 1063.05 148.874 1063.91 148.318 1065.02C147.79 1066.1 147.525 1067.38 147.525 1068.86C147.525 1071.16 148.028 1072.98 149.032 1074.3C150.037 1075.59 151.425 1076.24 153.196 1076.24ZM178.082 1078.5V1061.89H169.12V1059.23H181.333V1078.5H178.082ZM179.351 1055.18C178.61 1055.18 177.989 1054.96 177.487 1054.51C176.985 1054.03 176.734 1053.41 176.734 1052.65C176.734 1051.88 176.985 1051.27 177.487 1050.82C177.989 1050.35 178.61 1050.11 179.351 1050.11C180.091 1050.11 180.712 1050.35 181.214 1050.82C181.716 1051.27 181.968 1051.88 181.968 1052.65C181.968 1053.41 181.716 1054.03 181.214 1054.51C180.712 1054.96 180.091 1055.18 179.351 1055.18ZM199.478 1078.5L191.35 1059.23H194.641L199.082 1070.17C199.478 1071.12 199.848 1072.08 200.192 1073.03C200.562 1073.98 200.919 1074.92 201.263 1075.84H201.421C201.765 1074.92 202.109 1073.98 202.452 1073.03C202.796 1072.08 203.153 1071.12 203.523 1070.17L207.964 1059.23H211.096L203.126 1078.5H199.478ZM217.346 1076.6V1073.46L229.281 1065.41V1065.26L217.346 1057.21V1054.07L232.136 1064.11V1066.56L217.346 1076.6Z" fill="#EA51B2"/>
</svg>
