<svg width="1556" height="1208" viewBox="0 0 1556 1208" fill="none" xmlns="http://www.w3.org/2000/svg">
<rect width="1556" height="1208" fill="#121314"/>
<rect x="1016" y="238" width="452" height="738" rx="8" fill="#282936"/>
<path d="M1065.55 618.597L1050.76 608.565V606.106L1065.55 596.074V599.207L1053.61 607.256V607.415L1065.55 615.464V618.597ZM1079.53 620.976C1078.34 620.976 1077.24 620.764 1076.24 620.341C1075.23 619.892 1074.44 619.258 1073.86 618.438C1073.28 617.619 1072.99 616.641 1072.99 615.504C1072.99 613.336 1074.07 611.697 1076.24 610.587C1078.41 609.45 1081.98 608.684 1086.95 608.287C1086.92 607.415 1086.73 606.609 1086.39 605.868C1086.07 605.128 1085.54 604.547 1084.8 604.124C1084.06 603.674 1083.07 603.45 1081.83 603.45C1081.01 603.45 1080.19 603.569 1079.37 603.806C1078.58 604.018 1077.81 604.309 1077.07 604.679C1076.36 605.022 1075.7 605.379 1075.09 605.749L1073.82 603.529C1074.45 603.106 1075.22 602.683 1076.12 602.26C1077.05 601.811 1078.04 601.454 1079.09 601.189C1080.15 600.899 1081.25 600.753 1082.39 600.753C1084.16 600.753 1085.61 601.084 1086.75 601.745C1087.91 602.405 1088.77 603.331 1089.32 604.52C1089.91 605.683 1090.2 607.071 1090.2 608.684V620.5H1087.54L1087.26 617.883H1087.14C1086.09 618.729 1084.9 619.456 1083.57 620.064C1082.25 620.672 1080.9 620.976 1079.53 620.976ZM1080.4 618.359C1081.51 618.359 1082.61 618.108 1083.69 617.605C1084.78 617.103 1085.86 616.403 1086.95 615.504V610.428C1084.2 610.666 1082.03 610.997 1080.44 611.42C1078.88 611.843 1077.77 612.385 1077.11 613.045C1076.48 613.68 1076.16 614.42 1076.16 615.266C1076.16 615.98 1076.36 616.574 1076.75 617.05C1077.15 617.5 1077.67 617.83 1078.3 618.042C1078.96 618.253 1079.66 618.359 1080.4 618.359ZM1105.84 620.976C1103.97 620.976 1102.21 620.672 1100.57 620.064C1098.93 619.456 1097.53 618.755 1096.37 617.962L1097.87 615.821C1098.98 616.614 1100.21 617.249 1101.56 617.724C1102.91 618.2 1104.47 618.438 1106.24 618.438C1107.88 618.438 1109.1 618.134 1109.89 617.526C1110.71 616.918 1111.12 616.218 1111.12 615.425C1111.12 615.054 1111.04 614.711 1110.88 614.394C1110.75 614.076 1110.47 613.772 1110.05 613.482C1109.65 613.191 1109.06 612.913 1108.26 612.649C1107.47 612.385 1106.41 612.12 1105.09 611.856C1102.58 611.327 1100.69 610.613 1099.42 609.715C1098.18 608.816 1097.56 607.653 1097.56 606.225C1097.56 604.666 1098.23 603.37 1099.58 602.339C1100.93 601.282 1102.92 600.753 1105.57 600.753C1107.05 600.753 1108.47 601.004 1109.85 601.507C1111.22 601.982 1112.39 602.551 1113.34 603.212L1111.75 605.313C1110.88 604.679 1109.89 604.19 1108.78 603.846C1107.67 603.476 1106.5 603.291 1105.29 603.291C1104.18 603.291 1103.29 603.423 1102.63 603.687C1102 603.925 1101.53 604.256 1101.24 604.679C1100.98 605.102 1100.85 605.564 1100.85 606.067C1100.85 606.886 1101.28 607.534 1102.16 608.01C1103.05 608.459 1104.48 608.882 1106.44 609.278C1108.58 609.728 1110.22 610.23 1111.36 610.785C1112.52 611.34 1113.31 611.975 1113.73 612.689C1114.18 613.402 1114.41 614.248 1114.41 615.226C1114.41 616.284 1114.08 617.249 1113.42 618.121C1112.76 618.967 1111.79 619.654 1110.52 620.183C1109.25 620.711 1107.69 620.976 1105.84 620.976ZM1129.86 620.5V603.886H1120.9V601.229H1133.11V620.5H1129.86ZM1131.13 597.185C1130.39 597.185 1129.77 596.96 1129.26 596.51C1128.76 596.035 1128.51 595.413 1128.51 594.647C1128.51 593.88 1128.76 593.272 1129.26 592.823C1129.77 592.347 1130.39 592.109 1131.13 592.109C1131.87 592.109 1132.49 592.347 1132.99 592.823C1133.49 593.272 1133.74 593.88 1133.74 594.647C1133.74 595.413 1133.49 596.035 1132.99 596.51C1132.49 596.96 1131.87 597.185 1131.13 597.185ZM1151.85 620.976C1149.34 620.976 1147.32 620.103 1145.78 618.359C1144.25 616.588 1143.48 614.103 1143.48 610.904C1143.48 608.816 1143.89 607.018 1144.71 605.511C1145.56 603.978 1146.64 602.802 1147.96 601.982C1149.31 601.163 1150.74 600.753 1152.25 600.753C1153.38 600.753 1154.41 600.978 1155.34 601.427C1156.29 601.85 1157.18 602.458 1158 603.251H1158.11L1157.96 599.683V592.268H1161.21V620.5H1158.51L1158.23 617.962H1158.11C1157.35 618.782 1156.41 619.495 1155.3 620.103C1154.21 620.685 1153.06 620.976 1151.85 620.976ZM1152.52 618.24C1153.47 618.24 1154.4 618.002 1155.3 617.526C1156.2 617.024 1157.08 616.297 1157.96 615.345V605.749C1157.08 604.93 1156.22 604.348 1155.38 604.005C1154.56 603.661 1153.73 603.489 1152.88 603.489C1151.77 603.489 1150.75 603.806 1149.83 604.441C1148.93 605.049 1148.2 605.908 1147.65 607.018C1147.12 608.102 1146.85 609.384 1146.85 610.865C1146.85 613.164 1147.36 614.975 1148.36 616.297C1149.36 617.592 1150.75 618.24 1152.52 618.24ZM1177.96 620.976C1176.03 620.976 1174.28 620.579 1172.69 619.786C1171.13 618.993 1169.89 617.843 1168.96 616.337C1168.04 614.803 1167.58 612.966 1167.58 610.825C1167.58 608.737 1168.04 606.939 1168.96 605.432C1169.89 603.925 1171.09 602.775 1172.57 601.982C1174.08 601.163 1175.69 600.753 1177.41 600.753C1179.26 600.753 1180.83 601.137 1182.13 601.903C1183.45 602.643 1184.45 603.687 1185.14 605.036C1185.86 606.384 1186.21 607.97 1186.21 609.794C1186.21 610.164 1186.2 610.521 1186.17 610.865C1186.15 611.208 1186.11 611.512 1186.05 611.777H1169.76V609.239H1184.11L1183.28 610.151C1183.28 607.877 1182.75 606.172 1181.69 605.036C1180.66 603.899 1179.26 603.331 1177.49 603.331C1176.3 603.331 1175.19 603.621 1174.16 604.203C1173.15 604.785 1172.35 605.63 1171.74 606.741C1171.13 607.851 1170.83 609.212 1170.83 610.825C1170.83 612.49 1171.16 613.878 1171.82 614.988C1172.48 616.099 1173.38 616.945 1174.51 617.526C1175.65 618.081 1176.93 618.359 1178.36 618.359C1179.52 618.359 1180.57 618.2 1181.49 617.883C1182.44 617.539 1183.36 617.09 1184.23 616.535L1185.42 618.676C1184.47 619.31 1183.37 619.852 1182.13 620.302C1180.91 620.751 1179.52 620.976 1177.96 620.976ZM1192.9 618.597V615.464L1204.83 607.415V607.256L1192.9 599.207V596.074L1207.69 606.106V608.565L1192.9 618.597Z" fill="#EA51B2"/>
<rect x="88" y="93" width="1380" height="98" rx="8" fill="#282936"/>
<path d="M137.549 153.597L122.758 143.565V141.106L137.549 131.074V134.207L125.613 142.256V142.415L137.549 150.464V153.597ZM145.463 155.5V136.229H148.16L148.437 139.52H148.596C149.601 138.436 150.684 137.538 151.847 136.824C153.011 136.11 154.346 135.753 155.852 135.753C158.126 135.753 159.804 136.414 160.888 137.736C161.972 139.058 162.514 140.987 162.514 143.525V155.5H159.262V143.961C159.262 142.137 158.919 140.789 158.231 139.917C157.544 139.018 156.407 138.569 154.821 138.569C153.685 138.569 152.667 138.859 151.768 139.441C150.869 140.022 149.852 140.895 148.715 142.058V155.5H145.463ZM175.306 155.976C174.116 155.976 173.019 155.764 172.015 155.341C171.01 154.892 170.217 154.258 169.636 153.438C169.054 152.619 168.763 151.641 168.763 150.504C168.763 148.336 169.847 146.697 172.015 145.587C174.183 144.45 177.751 143.684 182.721 143.287C182.695 142.415 182.51 141.609 182.166 140.868C181.849 140.128 181.32 139.547 180.58 139.124C179.84 138.674 178.848 138.45 177.606 138.45C176.786 138.45 175.967 138.569 175.147 138.806C174.354 139.018 173.588 139.309 172.848 139.679C172.134 140.022 171.473 140.379 170.865 140.749L169.596 138.529C170.231 138.106 170.997 137.683 171.896 137.26C172.821 136.811 173.812 136.454 174.87 136.189C175.927 135.899 177.024 135.753 178.161 135.753C179.932 135.753 181.386 136.084 182.523 136.745C183.686 137.405 184.545 138.331 185.1 139.52C185.682 140.683 185.972 142.071 185.972 143.684V155.5H183.316L183.038 152.883H182.919C181.862 153.729 180.672 154.456 179.351 155.064C178.029 155.672 176.681 155.976 175.306 155.976ZM176.178 153.359C177.289 153.359 178.386 153.108 179.47 152.605C180.553 152.103 181.637 151.403 182.721 150.504V145.428C179.972 145.666 177.804 145.997 176.218 146.42C174.658 146.843 173.548 147.385 172.887 148.045C172.253 148.68 171.936 149.42 171.936 150.266C171.936 150.98 172.134 151.574 172.53 152.05C172.927 152.5 173.442 152.83 174.077 153.042C174.738 153.253 175.438 153.359 176.178 153.359ZM199.478 155.5L191.35 136.229H194.641L199.082 147.173C199.478 148.125 199.848 149.076 200.192 150.028C200.562 150.98 200.919 151.918 201.263 152.843H201.421C201.765 151.918 202.109 150.98 202.452 150.028C202.796 149.076 203.153 148.125 203.523 147.173L207.964 136.229H211.096L203.126 155.5H199.478ZM217.346 153.597V150.464L229.281 142.415V142.256L217.346 134.207V131.074L232.136 141.106V143.565L217.346 153.597Z" fill="#EA51B2"/>
<rect x="88" y="1016" width="1380" height="98" rx="8" fill="#282936"/>
<path d="M137.549 1076.6L122.758 1066.56V1064.11L137.549 1054.07V1057.21L125.613 1065.26V1065.41L137.549 1073.46V1076.6ZM151.372 1078.5V1057.6C151.372 1056.04 151.649 1054.68 152.204 1053.52C152.786 1052.33 153.645 1051.42 154.782 1050.78C155.918 1050.12 157.372 1049.79 159.143 1049.79C160.095 1049.79 161.02 1049.88 161.919 1050.07C162.844 1050.23 163.77 1050.51 164.695 1050.9L163.941 1053.36C163.148 1052.99 162.408 1052.75 161.721 1052.65C161.06 1052.51 160.307 1052.45 159.461 1052.45C157.742 1052.45 156.5 1052.9 155.733 1053.8C154.967 1054.7 154.583 1055.92 154.583 1057.48V1078.5H151.372ZM145.86 1061.89V1059.43L151.491 1059.23H162.673V1061.89H145.86ZM177.447 1078.98C175.755 1078.98 174.183 1078.58 172.729 1077.79C171.301 1076.99 170.138 1075.84 169.239 1074.34C168.367 1072.83 167.931 1071.02 167.931 1068.9C167.931 1066.74 168.367 1064.9 169.239 1063.39C170.138 1061.89 171.301 1060.74 172.729 1059.94C174.183 1059.15 175.755 1058.75 177.447 1058.75C179.139 1058.75 180.699 1059.15 182.126 1059.94C183.58 1060.74 184.743 1061.89 185.616 1063.39C186.514 1064.9 186.964 1066.74 186.964 1068.9C186.964 1071.02 186.514 1072.83 185.616 1074.34C184.743 1075.84 183.58 1076.99 182.126 1077.79C180.699 1078.58 179.139 1078.98 177.447 1078.98ZM177.447 1076.28C178.69 1076.28 179.774 1075.98 180.699 1075.37C181.624 1074.73 182.338 1073.86 182.84 1072.75C183.342 1071.64 183.593 1070.36 183.593 1068.9C183.593 1067.42 183.342 1066.13 182.84 1065.02C182.338 1063.88 181.624 1063.01 180.699 1062.4C179.774 1061.77 178.69 1061.45 177.447 1061.45C176.205 1061.45 175.121 1061.77 174.196 1062.4C173.297 1063.01 172.583 1063.88 172.055 1065.02C171.552 1066.13 171.301 1067.42 171.301 1068.9C171.301 1070.36 171.552 1071.64 172.055 1072.75C172.583 1073.86 173.297 1074.73 174.196 1075.37C175.121 1075.98 176.205 1076.28 177.447 1076.28ZM201.223 1078.98C199.531 1078.98 197.958 1078.58 196.504 1077.79C195.077 1076.99 193.914 1075.84 193.015 1074.34C192.143 1072.83 191.707 1071.02 191.707 1068.9C191.707 1066.74 192.143 1064.9 193.015 1063.39C193.914 1061.89 195.077 1060.74 196.504 1059.94C197.958 1059.15 199.531 1058.75 201.223 1058.75C202.915 1058.75 204.475 1059.15 205.902 1059.94C207.356 1060.74 208.519 1061.89 209.391 1063.39C210.29 1064.9 210.74 1066.74 210.74 1068.9C210.74 1071.02 210.29 1072.83 209.391 1074.34C208.519 1075.84 207.356 1076.99 205.902 1077.79C204.475 1078.58 202.915 1078.98 201.223 1078.98ZM201.223 1076.28C202.466 1076.28 203.549 1075.98 204.475 1075.37C205.4 1074.73 206.114 1073.86 206.616 1072.75C207.118 1071.64 207.369 1070.36 207.369 1068.9C207.369 1067.42 207.118 1066.13 206.616 1065.02C206.114 1063.88 205.4 1063.01 204.475 1062.4C203.549 1061.77 202.466 1061.45 201.223 1061.45C199.981 1061.45 198.897 1061.77 197.972 1062.4C197.073 1063.01 196.359 1063.88 195.83 1065.02C195.328 1066.13 195.077 1067.42 195.077 1068.9C195.077 1070.36 195.328 1071.64 195.83 1072.75C196.359 1073.86 197.073 1074.73 197.972 1075.37C198.897 1075.98 199.981 1076.28 201.223 1076.28ZM228.726 1078.98C226.849 1078.98 225.369 1078.65 224.285 1077.98C223.201 1077.3 222.422 1076.36 221.946 1075.17C221.496 1073.98 221.272 1072.59 221.272 1071.01V1061.89H215.839V1059.43L221.391 1059.23L221.827 1053.04H224.523V1059.23H234V1061.89H224.523V1071.05C224.523 1072.18 224.668 1073.15 224.959 1073.94C225.25 1074.73 225.752 1075.33 226.466 1075.72C227.18 1076.12 228.158 1076.32 229.4 1076.32C230.326 1076.32 231.158 1076.24 231.898 1076.08C232.639 1075.92 233.352 1075.71 234.04 1075.45L234.753 1077.83C233.881 1078.14 232.956 1078.41 231.978 1078.62C231.026 1078.86 229.942 1078.98 228.726 1078.98ZM249.964 1078.98C248.035 1078.98 246.277 1078.58 244.691 1077.79C243.131 1076.99 241.888 1075.84 240.963 1074.34C240.038 1072.8 239.575 1070.97 239.575 1068.82C239.575 1066.74 240.038 1064.94 240.963 1063.43C241.888 1061.93 243.091 1060.78 244.572 1059.98C246.078 1059.16 247.691 1058.75 249.409 1058.75C251.26 1058.75 252.832 1059.14 254.128 1059.9C255.45 1060.64 256.454 1061.69 257.141 1063.04C257.855 1064.38 258.212 1065.97 258.212 1067.79C258.212 1068.16 258.199 1068.52 258.172 1068.86C258.146 1069.21 258.106 1069.51 258.053 1069.78H241.756V1067.24H256.11L255.278 1068.15C255.278 1065.88 254.749 1064.17 253.692 1063.04C252.661 1061.9 251.26 1061.33 249.488 1061.33C248.299 1061.33 247.189 1061.62 246.158 1062.2C245.153 1062.78 244.347 1063.63 243.739 1064.74C243.131 1065.85 242.827 1067.21 242.827 1068.82C242.827 1070.49 243.157 1071.88 243.818 1072.99C244.479 1074.1 245.378 1074.94 246.515 1075.53C247.651 1076.08 248.933 1076.36 250.361 1076.36C251.524 1076.36 252.568 1076.2 253.493 1075.88C254.445 1075.54 255.357 1075.09 256.229 1074.53L257.419 1076.68C256.467 1077.31 255.37 1077.85 254.128 1078.3C252.912 1078.75 251.524 1078.98 249.964 1078.98ZM266.444 1078.5V1059.23H269.14L269.418 1063.79H269.537C270.541 1062.23 271.784 1061 273.264 1060.1C274.745 1059.2 276.37 1058.75 278.141 1058.75C278.855 1058.75 279.516 1058.82 280.124 1058.95C280.759 1059.06 281.367 1059.26 281.948 1059.55L281.195 1062.36C280.534 1062.12 279.965 1061.95 279.49 1061.85C279.014 1061.74 278.393 1061.69 277.626 1061.69C276.172 1061.69 274.771 1062.11 273.423 1062.96C272.101 1063.78 270.859 1065.19 269.696 1067.2V1078.5H266.444ZM288.673 1076.6V1073.46L300.609 1065.41V1065.26L288.673 1057.21V1054.07L303.464 1064.11V1066.56L288.673 1076.6Z" fill="#EA51B2"/>
<rect x="88" y="238" width="889" height="738" rx="8" fill="#282936"/>
<path d="M137.549 358.097L122.758 348.065V345.606L137.549 335.574V338.707L125.613 346.756V346.915L137.549 354.964V358.097ZM144.076 360V340.729H146.693L146.97 343.267H147.05C147.552 342.368 148.133 341.641 148.794 341.086C149.455 340.531 150.341 340.253 151.451 340.253C152.403 340.253 153.182 340.531 153.79 341.086C154.398 341.641 154.835 342.474 155.099 343.584C155.654 342.553 156.262 341.747 156.923 341.165C157.61 340.557 158.509 340.253 159.619 340.253C160.967 340.253 162.012 340.769 162.752 341.8C163.518 342.804 163.902 344.271 163.902 346.201V360H160.65V346.439C160.65 344.192 159.963 343.069 158.588 343.069C157.927 343.069 157.372 343.32 156.923 343.822C156.5 344.298 156.024 345.038 155.495 346.042V360H152.482V346.439C152.482 345.329 152.323 344.496 152.006 343.941C151.715 343.359 151.213 343.069 150.499 343.069C149.838 343.069 149.257 343.32 148.755 343.822C148.279 344.298 147.803 345.038 147.327 346.042V360H144.076ZM175.306 360.476C174.116 360.476 173.019 360.264 172.015 359.841C171.01 359.392 170.217 358.758 169.636 357.938C169.054 357.119 168.763 356.141 168.763 355.004C168.763 352.836 169.847 351.197 172.015 350.087C174.183 348.95 177.751 348.184 182.721 347.787C182.695 346.915 182.51 346.109 182.166 345.368C181.849 344.628 181.32 344.047 180.58 343.624C179.84 343.174 178.848 342.95 177.606 342.95C176.786 342.95 175.967 343.069 175.147 343.306C174.354 343.518 173.588 343.809 172.848 344.179C172.134 344.522 171.473 344.879 170.865 345.249L169.596 343.029C170.231 342.606 170.997 342.183 171.896 341.76C172.821 341.311 173.812 340.954 174.87 340.689C175.927 340.399 177.024 340.253 178.161 340.253C179.932 340.253 181.386 340.584 182.523 341.245C183.686 341.905 184.545 342.831 185.1 344.02C185.682 345.183 185.972 346.571 185.972 348.184V360H183.316L183.038 357.383H182.919C181.862 358.229 180.672 358.956 179.351 359.564C178.029 360.172 176.681 360.476 175.306 360.476ZM176.178 357.859C177.289 357.859 178.386 357.608 179.47 357.105C180.553 356.603 181.637 355.903 182.721 355.004V349.928C179.972 350.166 177.804 350.497 176.218 350.92C174.658 351.343 173.548 351.885 172.887 352.545C172.253 353.18 171.936 353.92 171.936 354.766C171.936 355.48 172.134 356.074 172.53 356.55C172.927 357 173.442 357.33 174.077 357.542C174.738 357.753 175.438 357.859 176.178 357.859ZM201.858 360V343.386H192.896V340.729H205.109V360H201.858ZM203.126 336.685C202.386 336.685 201.765 336.46 201.263 336.01C200.76 335.535 200.509 334.913 200.509 334.147C200.509 333.38 200.76 332.772 201.263 332.323C201.765 331.847 202.386 331.609 203.126 331.609C203.867 331.609 204.488 331.847 204.99 332.323C205.492 332.772 205.743 333.38 205.743 334.147C205.743 334.913 205.492 335.535 204.99 336.01C204.488 336.46 203.867 336.685 203.126 336.685ZM216.791 360V340.729H219.487L219.765 344.02H219.923C220.928 342.936 222.012 342.038 223.175 341.324C224.338 340.61 225.673 340.253 227.18 340.253C229.453 340.253 231.132 340.914 232.216 342.236C233.299 343.558 233.841 345.487 233.841 348.025V360H230.59V348.461C230.59 346.637 230.246 345.289 229.559 344.417C228.872 343.518 227.735 343.069 226.149 343.069C225.012 343.069 223.994 343.359 223.096 343.941C222.197 344.522 221.179 345.395 220.042 346.558V360H216.791ZM241.122 358.097V354.964L253.057 346.915V346.756L241.122 338.707V335.574L255.912 345.606V348.065L241.122 358.097Z" fill="#EA51B2"/>
<rect x="118" y="424" width="828" height="142.582" rx="5.23735" fill="#101012"/>
<path d="M150.438 502.545L140.755 495.977V494.368L150.438 487.8V489.851L142.624 495.12V495.224L150.438 500.494V502.545ZM155.62 503.791V485.308H157.748V490.344L157.618 493.329H157.696C158.337 492.637 159.038 492.057 159.799 491.59C160.56 491.105 161.434 490.863 162.421 490.863C163.909 490.863 165.008 491.296 165.718 492.161C166.427 493.026 166.782 494.29 166.782 495.951V503.791H164.653V496.237C164.653 495.043 164.428 494.16 163.978 493.589C163.528 493 162.784 492.706 161.746 492.706C161.002 492.706 160.335 492.897 159.747 493.277C159.159 493.658 158.492 494.229 157.748 494.991V503.791H155.62ZM177.337 504.102C176.074 504.102 174.923 503.843 173.885 503.324C172.864 502.804 172.05 502.052 171.444 501.065C170.839 500.061 170.536 498.859 170.536 497.457C170.536 496.09 170.839 494.913 171.444 493.926C172.05 492.94 172.838 492.187 173.807 491.668C174.793 491.131 175.849 490.863 176.974 490.863C178.185 490.863 179.215 491.114 180.063 491.616C180.928 492.101 181.586 492.784 182.036 493.667C182.503 494.549 182.737 495.588 182.737 496.782C182.737 497.024 182.728 497.258 182.711 497.483C182.693 497.708 182.667 497.907 182.633 498.08H171.964V496.418H181.361L180.816 497.015C180.816 495.527 180.47 494.411 179.777 493.667C179.102 492.923 178.185 492.551 177.026 492.551C176.247 492.551 175.52 492.741 174.845 493.122C174.187 493.502 173.66 494.056 173.262 494.783C172.864 495.51 172.665 496.401 172.665 497.457C172.665 498.547 172.881 499.456 173.314 500.182C173.746 500.909 174.335 501.463 175.079 501.844C175.823 502.207 176.662 502.389 177.597 502.389C178.358 502.389 179.042 502.285 179.648 502.077C180.271 501.852 180.868 501.558 181.439 501.195L182.217 502.597C181.594 503.012 180.876 503.367 180.063 503.661C179.267 503.955 178.358 504.102 177.337 504.102ZM190.722 504.102C189.943 504.102 189.225 503.964 188.567 503.687C187.91 503.393 187.39 502.977 187.01 502.441C186.629 501.904 186.439 501.264 186.439 500.52C186.439 499.101 187.148 498.028 188.567 497.301C189.986 496.557 192.323 496.055 195.576 495.795C195.559 495.224 195.438 494.696 195.213 494.212C195.005 493.727 194.659 493.347 194.174 493.07C193.69 492.775 193.041 492.628 192.227 492.628C191.691 492.628 191.155 492.706 190.618 492.862C190.099 493 189.597 493.191 189.112 493.433C188.645 493.658 188.212 493.892 187.814 494.134L186.984 492.68C187.399 492.403 187.901 492.127 188.489 491.85C189.095 491.555 189.744 491.322 190.436 491.149C191.129 490.958 191.847 490.863 192.591 490.863C193.75 490.863 194.702 491.08 195.446 491.512C196.208 491.945 196.77 492.551 197.134 493.329C197.514 494.091 197.705 494.999 197.705 496.055V503.791H195.966L195.784 502.077H195.706C195.014 502.631 194.235 503.107 193.37 503.505C192.504 503.903 191.622 504.102 190.722 504.102ZM191.293 502.389C192.02 502.389 192.738 502.225 193.448 501.896C194.157 501.567 194.867 501.108 195.576 500.52V497.197C193.776 497.353 192.357 497.569 191.319 497.846C190.298 498.123 189.571 498.478 189.138 498.91C188.723 499.326 188.515 499.81 188.515 500.364C188.515 500.831 188.645 501.221 188.905 501.532C189.164 501.827 189.502 502.043 189.917 502.181C190.35 502.32 190.808 502.389 191.293 502.389ZM206.936 504.102C205.292 504.102 203.968 503.531 202.964 502.389C201.961 501.229 201.459 499.603 201.459 497.509C201.459 496.142 201.727 494.965 202.263 493.978C202.817 492.975 203.527 492.204 204.392 491.668C205.275 491.131 206.209 490.863 207.196 490.863C207.94 490.863 208.615 491.01 209.22 491.304C209.844 491.581 210.423 491.979 210.96 492.499H211.038L210.934 490.162V485.308H213.062V503.791H211.297L211.116 502.129H211.038C210.536 502.666 209.921 503.133 209.195 503.531C208.485 503.912 207.732 504.102 206.936 504.102ZM207.377 502.311C208 502.311 208.606 502.155 209.195 501.844C209.783 501.515 210.363 501.039 210.934 500.416V494.134C210.363 493.598 209.8 493.217 209.246 492.992C208.71 492.767 208.165 492.654 207.611 492.654C206.884 492.654 206.218 492.862 205.612 493.277C205.024 493.675 204.548 494.238 204.184 494.965C203.838 495.674 203.665 496.514 203.665 497.483C203.665 498.988 203.994 500.174 204.652 501.039C205.309 501.887 206.218 502.311 207.377 502.311ZM224.033 504.102C222.77 504.102 221.619 503.843 220.58 503.324C219.559 502.804 218.746 502.052 218.14 501.065C217.535 500.061 217.232 498.859 217.232 497.457C217.232 496.09 217.535 494.913 218.14 493.926C218.746 492.94 219.533 492.187 220.503 491.668C221.489 491.131 222.545 490.863 223.67 490.863C224.881 490.863 225.911 491.114 226.759 491.616C227.624 492.101 228.282 492.784 228.732 493.667C229.199 494.549 229.432 495.588 229.432 496.782C229.432 497.024 229.424 497.258 229.406 497.483C229.389 497.708 229.363 497.907 229.329 498.08H218.659V496.418H228.057L227.511 497.015C227.511 495.527 227.165 494.411 226.473 493.667C225.798 492.923 224.881 492.551 223.721 492.551C222.943 492.551 222.216 492.741 221.541 493.122C220.883 493.502 220.355 494.056 219.957 494.783C219.559 495.51 219.36 496.401 219.36 497.457C219.36 498.547 219.577 499.456 220.009 500.182C220.442 500.909 221.03 501.463 221.775 501.844C222.519 502.207 223.358 502.389 224.293 502.389C225.054 502.389 225.738 502.285 226.343 502.077C226.966 501.852 227.563 501.558 228.134 501.195L228.913 502.597C228.29 503.012 227.572 503.367 226.759 503.661C225.963 503.955 225.054 504.102 224.033 504.102ZM234.822 503.791V491.175H236.587L236.769 494.16H236.847C237.504 493.139 238.318 492.334 239.287 491.746C240.256 491.157 241.32 490.863 242.48 490.863C242.947 490.863 243.38 490.906 243.778 490.993C244.193 491.062 244.591 491.192 244.972 491.382L244.479 493.225C244.046 493.07 243.674 492.957 243.362 492.888C243.051 492.819 242.644 492.784 242.142 492.784C241.19 492.784 240.273 493.061 239.391 493.615C238.525 494.151 237.712 495.077 236.95 496.392V503.791H234.822ZM249.375 502.545V500.494L257.188 495.224V495.12L249.375 489.851V487.8L259.057 494.368V495.977L249.375 502.545Z" fill="#EA51B2"/>
<rect x="118" y="609" width="828" height="319" rx="5.23735" fill="#101012"/>
<path d="M145.428 777.312C144.147 777.312 143.014 776.957 142.027 776.247C141.041 775.538 140.271 774.525 139.717 773.21C139.163 771.877 138.886 770.277 138.886 768.408C138.886 766.573 139.163 765.007 139.717 763.709C140.271 762.394 141.041 761.39 142.027 760.698C143.014 760.005 144.147 759.659 145.428 759.659C146.708 759.659 147.842 760.005 148.828 760.698C149.815 761.39 150.585 762.394 151.139 763.709C151.693 765.007 151.97 766.573 151.97 768.408C151.97 770.277 151.693 771.877 151.139 773.21C150.585 774.525 149.815 775.538 148.828 776.247C147.842 776.957 146.708 777.312 145.428 777.312ZM145.428 775.416C146.293 775.416 147.046 775.14 147.686 774.586C148.344 774.015 148.846 773.21 149.192 772.172C149.555 771.116 149.737 769.861 149.737 768.408C149.737 766.971 149.555 765.742 149.192 764.721C148.846 763.7 148.344 762.922 147.686 762.385C147.046 761.831 146.293 761.554 145.428 761.554C144.563 761.554 143.801 761.831 143.143 762.385C142.503 762.922 142.001 763.7 141.638 764.721C141.292 765.742 141.119 766.971 141.119 768.408C141.119 769.861 141.292 771.116 141.638 772.172C142.001 773.21 142.503 774.015 143.143 774.586C143.801 775.14 144.563 775.416 145.428 775.416ZM175.157 777.312C174.378 777.312 173.66 777.173 173.002 776.896C172.344 776.602 171.825 776.187 171.444 775.65C171.064 775.114 170.873 774.473 170.873 773.729C170.873 772.31 171.583 771.237 173.002 770.51C174.421 769.766 176.757 769.264 180.011 769.005C179.994 768.434 179.872 767.906 179.648 767.421C179.44 766.937 179.094 766.556 178.609 766.279C178.125 765.985 177.476 765.838 176.662 765.838C176.126 765.838 175.589 765.916 175.053 766.071C174.534 766.21 174.032 766.4 173.547 766.642C173.08 766.867 172.647 767.101 172.249 767.343L171.418 765.89C171.834 765.613 172.336 765.336 172.924 765.059C173.53 764.765 174.179 764.531 174.871 764.358C175.563 764.168 176.281 764.072 177.026 764.072C178.185 764.072 179.137 764.289 179.881 764.721C180.643 765.154 181.205 765.76 181.568 766.539C181.949 767.3 182.14 768.209 182.14 769.264V777H180.4L180.219 775.287H180.141C179.448 775.84 178.67 776.316 177.804 776.714C176.939 777.112 176.057 777.312 175.157 777.312ZM175.728 775.598C176.455 775.598 177.173 775.434 177.882 775.105C178.592 774.776 179.301 774.318 180.011 773.729V770.406C178.211 770.562 176.792 770.778 175.754 771.055C174.733 771.332 174.006 771.687 173.573 772.12C173.158 772.535 172.95 773.02 172.95 773.573C172.95 774.041 173.08 774.43 173.339 774.742C173.599 775.036 173.937 775.252 174.352 775.391C174.785 775.529 175.243 775.598 175.728 775.598ZM188.126 777V764.384H189.891L190.073 767.369H190.151C190.808 766.348 191.622 765.543 192.591 764.955C193.56 764.367 194.624 764.072 195.784 764.072C196.251 764.072 196.684 764.116 197.082 764.202C197.497 764.271 197.895 764.401 198.276 764.592L197.783 766.435C197.35 766.279 196.978 766.166 196.666 766.097C196.355 766.028 195.948 765.993 195.446 765.993C194.495 765.993 193.577 766.27 192.695 766.824C191.829 767.361 191.016 768.286 190.255 769.602V777H188.126ZM210.129 777.312C208.9 777.312 207.931 777.095 207.222 776.663C206.512 776.213 206.002 775.598 205.69 774.819C205.396 774.041 205.249 773.132 205.249 772.094V766.123H201.692V764.514L205.327 764.384L205.612 760.334H207.377V764.384H213.582V766.123H207.377V772.12C207.377 772.864 207.473 773.496 207.663 774.015C207.853 774.534 208.182 774.923 208.649 775.183C209.117 775.442 209.757 775.572 210.57 775.572C211.176 775.572 211.721 775.52 212.206 775.416C212.69 775.313 213.158 775.174 213.608 775.001L214.075 776.559C213.504 776.766 212.898 776.939 212.258 777.078C211.635 777.234 210.925 777.312 210.129 777.312ZM223.67 777V766.123H217.803V764.384H225.798V777H223.67ZM224.5 761.736C224.016 761.736 223.609 761.589 223.28 761.295C222.951 760.983 222.787 760.577 222.787 760.075C222.787 759.573 222.951 759.175 223.28 758.881C223.609 758.569 224.016 758.413 224.5 758.413C224.985 758.413 225.391 758.569 225.72 758.881C226.049 759.175 226.214 759.573 226.214 760.075C226.214 760.577 226.049 760.983 225.72 761.295C225.391 761.589 224.985 761.736 224.5 761.736ZM238.716 782.815C237.487 782.815 236.44 782.676 235.575 782.399C234.709 782.123 234.043 781.725 233.576 781.205C233.126 780.686 232.901 780.055 232.901 779.31C232.901 778.808 233.074 778.307 233.42 777.805C233.783 777.32 234.303 776.888 234.978 776.507V776.403C234.649 776.213 234.346 775.953 234.069 775.624C233.809 775.295 233.68 774.863 233.68 774.326C233.68 773.928 233.809 773.521 234.069 773.106C234.329 772.673 234.701 772.293 235.185 771.964V771.86C234.753 771.531 234.38 771.09 234.069 770.536C233.775 769.982 233.628 769.333 233.628 768.589C233.628 767.672 233.853 766.876 234.303 766.201C234.77 765.526 235.376 765.007 236.12 764.644C236.881 764.263 237.703 764.072 238.586 764.072C239.295 764.072 239.918 764.176 240.455 764.384H245.673V766.123H242.402C242.696 766.417 242.947 766.789 243.155 767.239C243.362 767.689 243.466 768.165 243.466 768.667C243.466 769.567 243.25 770.346 242.817 771.003C242.384 771.644 241.796 772.137 241.052 772.483C240.325 772.829 239.503 773.002 238.586 773.002C238.257 773.002 237.902 772.968 237.521 772.898C237.158 772.812 236.803 772.691 236.457 772.535C236.146 772.725 235.903 772.942 235.73 773.184C235.557 773.426 235.471 773.695 235.471 773.989C235.471 774.473 235.696 774.837 236.146 775.079C236.613 775.321 237.262 775.442 238.093 775.442H240.922C242.549 775.442 243.752 775.667 244.53 776.117C245.327 776.567 245.725 777.329 245.725 778.402C245.725 779.181 245.439 779.907 244.868 780.582C244.297 781.257 243.483 781.794 242.428 782.192C241.389 782.607 240.152 782.815 238.716 782.815ZM238.586 771.575C239.122 771.575 239.607 771.453 240.04 771.211C240.489 770.969 240.844 770.623 241.104 770.173C241.363 769.723 241.493 769.195 241.493 768.589C241.493 768.001 241.363 767.49 241.104 767.058C240.844 766.608 240.489 766.262 240.04 766.019C239.607 765.76 239.122 765.63 238.586 765.63C238.067 765.63 237.582 765.76 237.132 766.019C236.699 766.262 236.345 766.608 236.068 767.058C235.808 767.49 235.678 768.001 235.678 768.589C235.678 769.195 235.808 769.723 236.068 770.173C236.345 770.623 236.699 770.969 237.132 771.211C237.582 771.453 238.067 771.575 238.586 771.575ZM238.871 781.257C239.858 781.257 240.706 781.136 241.415 780.894C242.125 780.652 242.67 780.34 243.051 779.959C243.432 779.579 243.622 779.172 243.622 778.739C243.622 778.134 243.38 777.727 242.895 777.519C242.428 777.312 241.71 777.208 240.74 777.208H238.274C237.911 777.208 237.565 777.19 237.236 777.156C236.924 777.121 236.63 777.069 236.353 777C235.765 777.329 235.35 777.666 235.107 778.012C234.865 778.376 234.744 778.739 234.744 779.103C234.744 779.76 235.09 780.279 235.782 780.66C236.492 781.058 237.521 781.257 238.871 781.257ZM254.385 777.312C253.277 777.312 252.247 777.052 251.296 776.533C250.361 776.014 249.6 775.261 249.011 774.274C248.44 773.288 248.155 772.102 248.155 770.718C248.155 769.299 248.44 768.096 249.011 767.11C249.6 766.123 250.361 765.37 251.296 764.851C252.247 764.332 253.277 764.072 254.385 764.072C255.492 764.072 256.513 764.332 257.448 764.851C258.4 765.37 259.161 766.123 259.732 767.11C260.321 768.096 260.615 769.299 260.615 770.718C260.615 772.102 260.321 773.288 259.732 774.274C259.161 775.261 258.4 776.014 257.448 776.533C256.513 777.052 255.492 777.312 254.385 777.312ZM254.385 775.546C255.198 775.546 255.908 775.347 256.513 774.949C257.119 774.534 257.586 773.963 257.915 773.236C258.244 772.509 258.408 771.67 258.408 770.718C258.408 769.749 258.244 768.901 257.915 768.174C257.586 767.43 257.119 766.859 256.513 766.461C255.908 766.045 255.198 765.838 254.385 765.838C253.571 765.838 252.862 766.045 252.256 766.461C251.668 766.859 251.2 767.43 250.854 768.174C250.525 768.901 250.361 769.749 250.361 770.718C250.361 771.67 250.525 772.509 250.854 773.236C251.2 773.963 251.668 774.534 252.256 774.949C252.862 775.347 253.571 775.546 254.385 775.546ZM284.01 777V763.32C284.01 762.299 284.191 761.407 284.555 760.646C284.936 759.867 285.498 759.27 286.242 758.855C286.986 758.422 287.938 758.206 289.098 758.206C289.721 758.206 290.326 758.266 290.915 758.387C291.52 758.491 292.126 758.673 292.732 758.933L292.239 760.542C291.719 760.3 291.235 760.144 290.785 760.075C290.352 759.988 289.859 759.945 289.305 759.945C288.18 759.945 287.367 760.239 286.865 760.828C286.363 761.416 286.112 762.221 286.112 763.242V777H284.01ZM280.401 766.123V764.514L284.088 764.384H291.408V766.123H280.401ZM301.496 777V766.123H295.629V764.384H303.625V777H301.496ZM302.327 761.736C301.842 761.736 301.435 761.589 301.106 761.295C300.778 760.983 300.613 760.577 300.613 760.075C300.613 759.573 300.778 759.175 301.106 758.881C301.435 758.569 301.842 758.413 302.327 758.413C302.811 758.413 303.218 758.569 303.547 758.881C303.875 759.175 304.04 759.573 304.04 760.075C304.04 760.577 303.875 760.983 303.547 761.295C303.218 761.589 302.811 761.736 302.327 761.736ZM317.84 777.312C316.525 777.312 315.339 777.052 314.284 776.533C313.245 776.014 312.423 775.261 311.817 774.274C311.229 773.288 310.935 772.102 310.935 770.718C310.935 769.299 311.255 768.096 311.895 767.11C312.536 766.123 313.384 765.37 314.439 764.851C315.512 764.332 316.689 764.072 317.97 764.072C319.008 764.072 319.899 764.254 320.643 764.618C321.405 764.981 322.045 765.414 322.564 765.916L321.5 767.291C320.981 766.841 320.444 766.487 319.891 766.227C319.337 765.967 318.723 765.838 318.048 765.838C317.078 765.838 316.222 766.045 315.478 766.461C314.733 766.859 314.154 767.43 313.738 768.174C313.34 768.901 313.141 769.749 313.141 770.718C313.141 771.67 313.34 772.509 313.738 773.236C314.136 773.963 314.699 774.534 315.426 774.949C316.17 775.347 317.027 775.546 317.996 775.546C318.774 775.546 319.484 775.391 320.124 775.079C320.782 774.768 321.37 774.395 321.89 773.963L322.85 775.339C322.158 775.962 321.379 776.446 320.514 776.792C319.666 777.138 318.774 777.312 317.84 777.312ZM330.809 777.312C330.031 777.312 329.312 777.173 328.655 776.896C327.997 776.602 327.478 776.187 327.097 775.65C326.716 775.114 326.526 774.473 326.526 773.729C326.526 772.31 327.236 771.237 328.655 770.51C330.074 769.766 332.41 769.264 335.664 769.005C335.646 768.434 335.525 767.906 335.3 767.421C335.093 766.937 334.746 766.556 334.262 766.279C333.777 765.985 333.128 765.838 332.315 765.838C331.778 765.838 331.242 765.916 330.705 766.071C330.186 766.21 329.684 766.4 329.2 766.642C328.733 766.867 328.3 767.101 327.902 767.343L327.071 765.89C327.487 765.613 327.988 765.336 328.577 765.059C329.183 764.765 329.831 764.531 330.524 764.358C331.216 764.168 331.934 764.072 332.678 764.072C333.838 764.072 334.79 764.289 335.534 764.721C336.295 765.154 336.858 765.76 337.221 766.539C337.602 767.3 337.792 768.209 337.792 769.264V777H336.053L335.871 775.287H335.793C335.101 775.84 334.322 776.316 333.457 776.714C332.592 777.112 331.709 777.312 330.809 777.312ZM331.38 775.598C332.107 775.598 332.825 775.434 333.535 775.105C334.245 774.776 334.954 774.318 335.664 773.729V770.406C333.864 770.562 332.445 770.778 331.406 771.055C330.385 771.332 329.658 771.687 329.226 772.12C328.81 772.535 328.603 773.02 328.603 773.573C328.603 774.041 328.733 774.43 328.992 774.742C329.252 775.036 329.589 775.252 330.005 775.391C330.437 775.529 330.896 775.598 331.38 775.598ZM357.968 777V764.384H359.733L359.915 766.539H360.019C360.676 765.829 361.386 765.241 362.147 764.773C362.909 764.306 363.783 764.072 364.769 764.072C366.258 764.072 367.357 764.505 368.066 765.37C368.776 766.236 369.13 767.499 369.13 769.16V777H367.002V769.446C367.002 768.252 366.777 767.369 366.327 766.798C365.877 766.21 365.133 765.916 364.094 765.916C363.35 765.916 362.684 766.106 362.096 766.487C361.507 766.867 360.841 767.438 360.097 768.2V777H357.968ZM379.686 777.312C378.422 777.312 377.271 777.052 376.233 776.533C375.212 776.014 374.399 775.261 373.793 774.274C373.187 773.271 372.884 772.068 372.884 770.666C372.884 769.299 373.187 768.122 373.793 767.136C374.399 766.149 375.186 765.396 376.155 764.877C377.142 764.341 378.197 764.072 379.322 764.072C380.534 764.072 381.563 764.323 382.411 764.825C383.277 765.31 383.934 765.993 384.384 766.876C384.851 767.759 385.085 768.797 385.085 769.991C385.085 770.233 385.076 770.467 385.059 770.692C385.042 770.917 385.016 771.116 384.981 771.289H374.312V769.628H383.709L383.164 770.225C383.164 768.736 382.818 767.62 382.126 766.876C381.451 766.132 380.534 765.76 379.374 765.76C378.595 765.76 377.869 765.95 377.194 766.331C376.536 766.712 376.008 767.265 375.61 767.992C375.212 768.719 375.013 769.61 375.013 770.666C375.013 771.756 375.229 772.665 375.662 773.392C376.095 774.119 376.683 774.672 377.427 775.053C378.171 775.417 379.011 775.598 379.945 775.598C380.707 775.598 381.39 775.494 381.996 775.287C382.619 775.062 383.216 774.768 383.787 774.404L384.566 775.806C383.943 776.221 383.225 776.576 382.411 776.87C381.615 777.164 380.707 777.312 379.686 777.312ZM394.732 777.312C393.503 777.312 392.352 777.112 391.279 776.714C390.206 776.316 389.289 775.858 388.528 775.339L389.514 773.937C390.241 774.456 391.046 774.871 391.928 775.183C392.811 775.494 393.832 775.65 394.991 775.65C396.064 775.65 396.86 775.451 397.38 775.053C397.916 774.655 398.184 774.196 398.184 773.677C398.184 773.435 398.132 773.21 398.029 773.002C397.942 772.795 397.76 772.596 397.483 772.405C397.224 772.215 396.834 772.033 396.315 771.86C395.796 771.687 395.104 771.514 394.239 771.341C392.594 770.995 391.357 770.528 390.526 769.939C389.713 769.351 389.306 768.589 389.306 767.655C389.306 766.634 389.748 765.786 390.63 765.111C391.513 764.419 392.819 764.072 394.55 764.072C395.519 764.072 396.454 764.237 397.354 764.566C398.254 764.877 399.015 765.249 399.638 765.682L398.6 767.058C398.029 766.642 397.38 766.322 396.653 766.097C395.926 765.855 395.164 765.734 394.368 765.734C393.641 765.734 393.062 765.82 392.629 765.993C392.214 766.149 391.911 766.365 391.72 766.642C391.547 766.919 391.461 767.222 391.461 767.551C391.461 768.087 391.746 768.511 392.318 768.823C392.906 769.117 393.84 769.394 395.121 769.654C396.523 769.948 397.596 770.277 398.34 770.64C399.101 771.003 399.621 771.419 399.898 771.886C400.192 772.353 400.339 772.907 400.339 773.547C400.339 774.24 400.123 774.871 399.69 775.442C399.257 775.996 398.626 776.446 397.795 776.792C396.964 777.138 395.943 777.312 394.732 777.312ZM412.478 777.312C411.249 777.312 410.28 777.095 409.57 776.663C408.861 776.213 408.35 775.598 408.039 774.819C407.744 774.041 407.597 773.132 407.597 772.094V766.123H404.041V764.514L407.675 764.384L407.961 760.334H409.726V764.384H415.93V766.123H409.726V772.12C409.726 772.864 409.821 773.496 410.011 774.015C410.202 774.534 410.531 774.923 410.998 775.183C411.465 775.442 412.105 775.572 412.919 775.572C413.525 775.572 414.07 775.52 414.554 775.416C415.039 775.313 415.506 775.174 415.956 775.001L416.423 776.559C415.852 776.766 415.247 776.939 414.606 777.078C413.983 777.234 413.274 777.312 412.478 777.312ZM424.201 777.312C423.422 777.312 422.704 777.173 422.046 776.896C421.389 776.602 420.869 776.187 420.489 775.65C420.108 775.114 419.918 774.473 419.918 773.729C419.918 772.31 420.627 771.237 422.046 770.51C423.465 769.766 425.802 769.264 429.055 769.005C429.038 768.434 428.917 767.906 428.692 767.421C428.484 766.937 428.138 766.556 427.653 766.279C427.169 765.985 426.52 765.838 425.707 765.838C425.17 765.838 424.634 765.916 424.097 766.071C423.578 766.21 423.076 766.4 422.591 766.642C422.124 766.867 421.692 767.101 421.293 767.343L420.463 765.89C420.878 765.613 421.38 765.336 421.968 765.059C422.574 764.765 423.223 764.531 423.915 764.358C424.608 764.168 425.326 764.072 426.07 764.072C427.229 764.072 428.181 764.289 428.925 764.721C429.687 765.154 430.249 765.76 430.613 766.539C430.993 767.3 431.184 768.209 431.184 769.264V777H429.445L429.263 775.287H429.185C428.493 775.84 427.714 776.316 426.849 776.714C425.983 777.112 425.101 777.312 424.201 777.312ZM424.772 775.598C425.499 775.598 426.217 775.434 426.927 775.105C427.636 774.776 428.346 774.318 429.055 773.729V770.406C427.255 770.562 425.836 770.778 424.798 771.055C423.777 771.332 423.05 771.687 422.617 772.12C422.202 772.535 421.994 773.02 421.994 773.573C421.994 774.041 422.124 774.43 422.384 774.742C422.643 775.036 422.981 775.252 423.396 775.391C423.829 775.529 424.287 775.598 424.772 775.598ZM456.993 777.312C455.764 777.312 454.613 777.112 453.54 776.714C452.467 776.316 451.55 775.858 450.789 775.339L451.775 773.937C452.502 774.456 453.307 774.871 454.189 775.183C455.072 775.494 456.093 775.65 457.252 775.65C458.325 775.65 459.121 775.451 459.641 775.053C460.177 774.655 460.445 774.196 460.445 773.677C460.445 773.435 460.393 773.21 460.29 773.002C460.203 772.795 460.021 772.596 459.744 772.405C459.485 772.215 459.095 772.033 458.576 771.86C458.057 771.687 457.365 771.514 456.5 771.341C454.855 770.995 453.618 770.528 452.787 769.939C451.974 769.351 451.567 768.589 451.567 767.655C451.567 766.634 452.009 765.786 452.891 765.111C453.774 764.419 455.08 764.072 456.811 764.072C457.78 764.072 458.715 764.237 459.615 764.566C460.515 764.877 461.276 765.249 461.899 765.682L460.861 767.058C460.29 766.642 459.641 766.322 458.914 766.097C458.187 765.855 457.425 765.734 456.629 765.734C455.903 765.734 455.323 765.82 454.89 765.993C454.475 766.149 454.172 766.365 453.982 766.642C453.808 766.919 453.722 767.222 453.722 767.551C453.722 768.087 454.008 768.511 454.579 768.823C455.167 769.117 456.102 769.394 457.382 769.654C458.784 769.948 459.857 770.277 460.601 770.64C461.363 771.003 461.882 771.419 462.159 771.886C462.453 772.353 462.6 772.907 462.6 773.547C462.6 774.24 462.384 774.871 461.951 775.442C461.518 775.996 460.887 776.446 460.056 776.792C459.225 777.138 458.204 777.312 456.993 777.312ZM473.077 777.312C471.814 777.312 470.663 777.052 469.625 776.533C468.604 776.014 467.79 775.261 467.185 774.274C466.579 773.271 466.276 772.068 466.276 770.666C466.276 769.299 466.579 768.122 467.185 767.136C467.79 766.149 468.578 765.396 469.547 764.877C470.533 764.341 471.589 764.072 472.714 764.072C473.925 764.072 474.955 764.323 475.803 764.825C476.668 765.31 477.326 765.993 477.776 766.876C478.243 767.759 478.477 768.797 478.477 769.991C478.477 770.233 478.468 770.467 478.451 770.692C478.433 770.917 478.407 771.116 478.373 771.289H467.704V769.628H477.101L476.556 770.225C476.556 768.736 476.21 767.62 475.517 766.876C474.842 766.132 473.925 765.76 472.766 765.76C471.987 765.76 471.26 765.95 470.585 766.331C469.928 766.712 469.4 767.265 469.002 767.992C468.604 768.719 468.405 769.61 468.405 770.666C468.405 771.756 468.621 772.665 469.054 773.392C469.486 774.119 470.075 774.672 470.819 775.053C471.563 775.417 472.402 775.598 473.337 775.598C474.098 775.598 474.782 775.494 475.388 775.287C476.011 775.062 476.608 774.768 477.179 774.404L477.958 775.806C477.335 776.221 476.616 776.576 475.803 776.87C475.007 777.164 474.098 777.312 473.077 777.312ZM489.058 777.312C487.743 777.312 486.557 777.052 485.501 776.533C484.463 776.014 483.641 775.261 483.035 774.274C482.447 773.288 482.153 772.102 482.153 770.718C482.153 769.299 482.473 768.096 483.113 767.11C483.754 766.123 484.602 765.37 485.657 764.851C486.73 764.332 487.907 764.072 489.188 764.072C490.226 764.072 491.117 764.254 491.861 764.618C492.623 764.981 493.263 765.414 493.782 765.916L492.718 767.291C492.199 766.841 491.662 766.487 491.109 766.227C490.555 765.967 489.94 765.838 489.266 765.838C488.296 765.838 487.44 766.045 486.696 766.461C485.951 766.859 485.372 767.43 484.956 768.174C484.558 768.901 484.359 769.749 484.359 770.718C484.359 771.67 484.558 772.509 484.956 773.236C485.354 773.963 485.917 774.534 486.644 774.949C487.388 775.347 488.244 775.546 489.214 775.546C489.992 775.546 490.702 775.391 491.342 775.079C492 774.768 492.588 774.395 493.107 773.963L494.068 775.339C493.376 775.962 492.597 776.446 491.732 776.792C490.884 777.138 489.992 777.312 489.058 777.312ZM486.799 782.867L486.592 781.828C487.682 781.742 488.426 781.595 488.824 781.387C489.222 781.197 489.421 780.911 489.421 780.53C489.421 780.184 489.274 779.916 488.98 779.726C488.686 779.535 488.167 779.388 487.422 779.284L488.461 776.792H489.863L489.188 778.661C489.793 778.8 490.261 779.007 490.589 779.284C490.918 779.561 491.083 779.968 491.083 780.504C491.083 781.249 490.711 781.811 489.966 782.192C489.24 782.573 488.184 782.798 486.799 782.867ZM502.027 777.312C501.248 777.312 500.53 777.173 499.873 776.896C499.215 776.602 498.696 776.187 498.315 775.65C497.934 775.114 497.744 774.473 497.744 773.729C497.744 772.31 498.454 771.237 499.873 770.51C501.292 769.766 503.628 769.264 506.882 769.005C506.864 768.434 506.743 767.906 506.518 767.421C506.31 766.937 505.964 766.556 505.48 766.279C504.995 765.985 504.346 765.838 503.533 765.838C502.996 765.838 502.46 765.916 501.923 766.071C501.404 766.21 500.902 766.4 500.418 766.642C499.951 766.867 499.518 767.101 499.12 767.343L498.289 765.89C498.704 765.613 499.206 765.336 499.795 765.059C500.4 764.765 501.049 764.531 501.742 764.358C502.434 764.168 503.152 764.072 503.896 764.072C505.056 764.072 506.008 764.289 506.752 764.721C507.513 765.154 508.076 765.76 508.439 766.539C508.82 767.3 509.01 768.209 509.01 769.264V777H507.271L507.089 775.287H507.011C506.319 775.84 505.54 776.316 504.675 776.714C503.81 777.112 502.927 777.312 502.027 777.312ZM502.598 775.598C503.325 775.598 504.043 775.434 504.753 775.105C505.462 774.776 506.172 774.318 506.882 773.729V770.406C505.082 770.562 503.663 770.778 502.624 771.055C501.603 771.332 500.876 771.687 500.444 772.12C500.028 772.535 499.821 773.02 499.821 773.573C499.821 774.041 499.951 774.43 500.21 774.742C500.47 775.036 500.807 775.252 501.223 775.391C501.655 775.529 502.114 775.598 502.598 775.598ZM505.817 762.022C505.367 762.022 504.969 761.918 504.623 761.71C504.294 761.485 503.991 761.226 503.715 760.931C503.438 760.637 503.169 760.386 502.91 760.179C502.668 759.954 502.399 759.841 502.105 759.841C501.724 759.841 501.439 760.031 501.248 760.412C501.058 760.776 500.937 761.269 500.885 761.892L499.457 761.814C499.475 761.122 499.578 760.516 499.769 759.997C499.959 759.46 500.236 759.045 500.599 758.751C500.98 758.439 501.473 758.284 502.079 758.284C502.546 758.284 502.944 758.396 503.273 758.621C503.602 758.829 503.905 759.08 504.182 759.374C504.459 759.668 504.718 759.928 504.961 760.153C505.22 760.36 505.506 760.464 505.817 760.464C506.198 760.464 506.484 760.274 506.674 759.893C506.864 759.512 506.977 759.019 507.011 758.413L508.439 758.517C508.422 759.175 508.318 759.772 508.128 760.308C507.937 760.828 507.652 761.243 507.271 761.554C506.908 761.866 506.423 762.022 505.817 762.022ZM518.994 777.312C517.887 777.312 516.857 777.052 515.905 776.533C514.971 776.014 514.209 775.261 513.621 774.274C513.05 773.288 512.764 772.102 512.764 770.718C512.764 769.299 513.05 768.096 513.621 767.11C514.209 766.123 514.971 765.37 515.905 764.851C516.857 764.332 517.887 764.072 518.994 764.072C520.102 764.072 521.123 764.332 522.057 764.851C523.009 765.37 523.771 766.123 524.342 767.11C524.93 768.096 525.224 769.299 525.224 770.718C525.224 772.102 524.93 773.288 524.342 774.274C523.771 775.261 523.009 776.014 522.057 776.533C521.123 777.052 520.102 777.312 518.994 777.312ZM518.994 775.546C519.808 775.546 520.517 775.347 521.123 774.949C521.729 774.534 522.196 773.963 522.525 773.236C522.854 772.509 523.018 771.67 523.018 770.718C523.018 769.749 522.854 768.901 522.525 768.174C522.196 767.43 521.729 766.859 521.123 766.461C520.517 766.045 519.808 765.838 518.994 765.838C518.181 765.838 517.471 766.045 516.866 766.461C516.277 766.859 515.81 767.43 515.464 768.174C515.135 768.901 514.971 769.749 514.971 770.718C514.971 771.67 515.135 772.509 515.464 773.236C515.81 773.963 516.277 774.534 516.866 774.949C517.471 775.347 518.181 775.546 518.994 775.546Z" fill="#EA51B2"/>
</svg>
