<svg width="1556" height="1208" viewBox="0 0 1556 1208" fill="none" xmlns="http://www.w3.org/2000/svg">
<rect width="1556" height="1208" fill="#121314"/>
<rect x="1016" y="238" width="452" height="738" rx="8" fill="#282936"/>
<path d="M1065.55 618.597L1050.76 608.565V606.106L1065.55 596.074V599.207L1053.61 607.256V607.415L1065.55 615.464V618.597ZM1079.53 620.976C1078.34 620.976 1077.24 620.764 1076.24 620.341C1075.23 619.892 1074.44 619.258 1073.86 618.438C1073.28 617.619 1072.99 616.641 1072.99 615.504C1072.99 613.336 1074.07 611.697 1076.24 610.587C1078.41 609.45 1081.98 608.684 1086.95 608.287C1086.92 607.415 1086.73 606.609 1086.39 605.868C1086.07 605.128 1085.54 604.547 1084.8 604.124C1084.06 603.674 1083.07 603.45 1081.83 603.45C1081.01 603.45 1080.19 603.569 1079.37 603.806C1078.58 604.018 1077.81 604.309 1077.07 604.679C1076.36 605.022 1075.7 605.379 1075.09 605.749L1073.82 603.529C1074.45 603.106 1075.22 602.683 1076.12 602.26C1077.05 601.811 1078.04 601.454 1079.09 601.189C1080.15 600.899 1081.25 600.753 1082.39 600.753C1084.16 600.753 1085.61 601.084 1086.75 601.745C1087.91 602.405 1088.77 603.331 1089.32 604.52C1089.91 605.683 1090.2 607.071 1090.2 608.684V620.5H1087.54L1087.26 617.883H1087.14C1086.09 618.729 1084.9 619.456 1083.57 620.064C1082.25 620.672 1080.9 620.976 1079.53 620.976ZM1080.4 618.359C1081.51 618.359 1082.61 618.108 1083.69 617.605C1084.78 617.103 1085.86 616.403 1086.95 615.504V610.428C1084.2 610.666 1082.03 610.997 1080.44 611.42C1078.88 611.843 1077.77 612.385 1077.11 613.045C1076.48 613.68 1076.16 614.42 1076.16 615.266C1076.16 615.98 1076.36 616.574 1076.75 617.05C1077.15 617.5 1077.67 617.83 1078.3 618.042C1078.96 618.253 1079.66 618.359 1080.4 618.359ZM1105.84 620.976C1103.97 620.976 1102.21 620.672 1100.57 620.064C1098.93 619.456 1097.53 618.755 1096.37 617.962L1097.87 615.821C1098.98 616.614 1100.21 617.249 1101.56 617.724C1102.91 618.2 1104.47 618.438 1106.24 618.438C1107.88 618.438 1109.1 618.134 1109.89 617.526C1110.71 616.918 1111.12 616.218 1111.12 615.425C1111.12 615.054 1111.04 614.711 1110.88 614.394C1110.75 614.076 1110.47 613.772 1110.05 613.482C1109.65 613.191 1109.06 612.913 1108.26 612.649C1107.47 612.385 1106.41 612.12 1105.09 611.856C1102.58 611.327 1100.69 610.613 1099.42 609.715C1098.18 608.816 1097.56 607.653 1097.56 606.225C1097.56 604.666 1098.23 603.37 1099.58 602.339C1100.93 601.282 1102.92 600.753 1105.57 600.753C1107.05 600.753 1108.47 601.004 1109.85 601.507C1111.22 601.982 1112.39 602.551 1113.34 603.212L1111.75 605.313C1110.88 604.679 1109.89 604.19 1108.78 603.846C1107.67 603.476 1106.5 603.291 1105.29 603.291C1104.18 603.291 1103.29 603.423 1102.63 603.687C1102 603.925 1101.53 604.256 1101.24 604.679C1100.98 605.102 1100.85 605.564 1100.85 606.067C1100.85 606.886 1101.28 607.534 1102.16 608.01C1103.05 608.459 1104.48 608.882 1106.44 609.278C1108.58 609.728 1110.22 610.23 1111.36 610.785C1112.52 611.34 1113.31 611.975 1113.73 612.689C1114.18 613.402 1114.41 614.248 1114.41 615.226C1114.41 616.284 1114.08 617.249 1113.42 618.121C1112.76 618.967 1111.79 619.654 1110.52 620.183C1109.25 620.711 1107.69 620.976 1105.84 620.976ZM1129.86 620.5V603.886H1120.9V601.229H1133.11V620.5H1129.86ZM1131.13 597.185C1130.39 597.185 1129.77 596.96 1129.26 596.51C1128.76 596.035 1128.51 595.413 1128.51 594.647C1128.51 593.88 1128.76 593.272 1129.26 592.823C1129.77 592.347 1130.39 592.109 1131.13 592.109C1131.87 592.109 1132.49 592.347 1132.99 592.823C1133.49 593.272 1133.74 593.88 1133.74 594.647C1133.74 595.413 1133.49 596.035 1132.99 596.51C1132.49 596.96 1131.87 597.185 1131.13 597.185ZM1151.85 620.976C1149.34 620.976 1147.32 620.103 1145.78 618.359C1144.25 616.588 1143.48 614.103 1143.48 610.904C1143.48 608.816 1143.89 607.018 1144.71 605.511C1145.56 603.978 1146.64 602.802 1147.96 601.982C1149.31 601.163 1150.74 600.753 1152.25 600.753C1153.38 600.753 1154.41 600.978 1155.34 601.427C1156.29 601.85 1157.18 602.458 1158 603.251H1158.11L1157.96 599.683V592.268H1161.21V620.5H1158.51L1158.23 617.962H1158.11C1157.35 618.782 1156.41 619.495 1155.3 620.103C1154.21 620.685 1153.06 620.976 1151.85 620.976ZM1152.52 618.24C1153.47 618.24 1154.4 618.002 1155.3 617.526C1156.2 617.024 1157.08 616.297 1157.96 615.345V605.749C1157.08 604.93 1156.22 604.348 1155.38 604.005C1154.56 603.661 1153.73 603.489 1152.88 603.489C1151.77 603.489 1150.75 603.806 1149.83 604.441C1148.93 605.049 1148.2 605.908 1147.65 607.018C1147.12 608.102 1146.85 609.384 1146.85 610.865C1146.85 613.164 1147.36 614.975 1148.36 616.297C1149.36 617.592 1150.75 618.24 1152.52 618.24ZM1177.96 620.976C1176.03 620.976 1174.28 620.579 1172.69 619.786C1171.13 618.993 1169.89 617.843 1168.96 616.337C1168.04 614.803 1167.58 612.966 1167.58 610.825C1167.58 608.737 1168.04 606.939 1168.96 605.432C1169.89 603.925 1171.09 602.775 1172.57 601.982C1174.08 601.163 1175.69 600.753 1177.41 600.753C1179.26 600.753 1180.83 601.137 1182.13 601.903C1183.45 602.643 1184.45 603.687 1185.14 605.036C1185.86 606.384 1186.21 607.97 1186.21 609.794C1186.21 610.164 1186.2 610.521 1186.17 610.865C1186.15 611.208 1186.11 611.512 1186.05 611.777H1169.76V609.239H1184.11L1183.28 610.151C1183.28 607.877 1182.75 606.172 1181.69 605.036C1180.66 603.899 1179.26 603.331 1177.49 603.331C1176.3 603.331 1175.19 603.621 1174.16 604.203C1173.15 604.785 1172.35 605.63 1171.74 606.741C1171.13 607.851 1170.83 609.212 1170.83 610.825C1170.83 612.49 1171.16 613.878 1171.82 614.988C1172.48 616.099 1173.38 616.945 1174.51 617.526C1175.65 618.081 1176.93 618.359 1178.36 618.359C1179.52 618.359 1180.57 618.2 1181.49 617.883C1182.44 617.539 1183.36 617.09 1184.23 616.535L1185.42 618.676C1184.47 619.31 1183.37 619.852 1182.13 620.302C1180.91 620.751 1179.52 620.976 1177.96 620.976ZM1192.9 618.597V615.464L1204.83 607.415V607.256L1192.9 599.207V596.074L1207.69 606.106V608.565L1192.9 618.597Z" fill="#EA51B2"/>
<rect x="88" y="93" width="1380" height="98" rx="8" fill="#282936"/>
<path d="M137.549 153.597L122.758 143.565V141.106L137.549 131.074V134.207L125.613 142.256V142.415L137.549 150.464V153.597ZM145.463 155.5V136.229H148.16L148.437 139.52H148.596C149.601 138.436 150.684 137.538 151.847 136.824C153.011 136.11 154.346 135.753 155.852 135.753C158.126 135.753 159.804 136.414 160.888 137.736C161.972 139.058 162.514 140.987 162.514 143.525V155.5H159.262V143.961C159.262 142.137 158.919 140.789 158.231 139.917C157.544 139.018 156.407 138.569 154.821 138.569C153.685 138.569 152.667 138.859 151.768 139.441C150.869 140.022 149.852 140.895 148.715 142.058V155.5H145.463ZM175.306 155.976C174.116 155.976 173.019 155.764 172.015 155.341C171.01 154.892 170.217 154.258 169.636 153.438C169.054 152.619 168.763 151.641 168.763 150.504C168.763 148.336 169.847 146.697 172.015 145.587C174.183 144.45 177.751 143.684 182.721 143.287C182.695 142.415 182.51 141.609 182.166 140.868C181.849 140.128 181.32 139.547 180.58 139.124C179.84 138.674 178.848 138.45 177.606 138.45C176.786 138.45 175.967 138.569 175.147 138.806C174.354 139.018 173.588 139.309 172.848 139.679C172.134 140.022 171.473 140.379 170.865 140.749L169.596 138.529C170.231 138.106 170.997 137.683 171.896 137.26C172.821 136.811 173.812 136.454 174.87 136.189C175.927 135.899 177.024 135.753 178.161 135.753C179.932 135.753 181.386 136.084 182.523 136.745C183.686 137.405 184.545 138.331 185.1 139.52C185.682 140.683 185.972 142.071 185.972 143.684V155.5H183.316L183.038 152.883H182.919C181.862 153.729 180.672 154.456 179.351 155.064C178.029 155.672 176.681 155.976 175.306 155.976ZM176.178 153.359C177.289 153.359 178.386 153.108 179.47 152.605C180.553 152.103 181.637 151.403 182.721 150.504V145.428C179.972 145.666 177.804 145.997 176.218 146.42C174.658 146.843 173.548 147.385 172.887 148.045C172.253 148.68 171.936 149.42 171.936 150.266C171.936 150.98 172.134 151.574 172.53 152.05C172.927 152.5 173.442 152.83 174.077 153.042C174.738 153.253 175.438 153.359 176.178 153.359ZM199.478 155.5L191.35 136.229H194.641L199.082 147.173C199.478 148.125 199.848 149.076 200.192 150.028C200.562 150.98 200.919 151.918 201.263 152.843H201.421C201.765 151.918 202.109 150.98 202.452 150.028C202.796 149.076 203.153 148.125 203.523 147.173L207.964 136.229H211.096L203.126 155.5H199.478ZM217.346 153.597V150.464L229.281 142.415V142.256L217.346 134.207V131.074L232.136 141.106V143.565L217.346 153.597Z" fill="#EA51B2"/>
<rect x="88" y="1016" width="1380" height="98" rx="8" fill="#282936"/>
<path d="M137.549 1076.6L122.758 1066.56V1064.11L137.549 1054.07V1057.21L125.613 1065.26V1065.41L137.549 1073.46V1076.6ZM151.372 1078.5V1057.6C151.372 1056.04 151.649 1054.68 152.204 1053.52C152.786 1052.33 153.645 1051.42 154.782 1050.78C155.918 1050.12 157.372 1049.79 159.143 1049.79C160.095 1049.79 161.02 1049.88 161.919 1050.07C162.844 1050.23 163.77 1050.51 164.695 1050.9L163.941 1053.36C163.148 1052.99 162.408 1052.75 161.721 1052.65C161.06 1052.51 160.307 1052.45 159.461 1052.45C157.742 1052.45 156.5 1052.9 155.733 1053.8C154.967 1054.7 154.583 1055.92 154.583 1057.48V1078.5H151.372ZM145.86 1061.89V1059.43L151.491 1059.23H162.673V1061.89H145.86ZM177.447 1078.98C175.755 1078.98 174.183 1078.58 172.729 1077.79C171.301 1076.99 170.138 1075.84 169.239 1074.34C168.367 1072.83 167.931 1071.02 167.931 1068.9C167.931 1066.74 168.367 1064.9 169.239 1063.39C170.138 1061.89 171.301 1060.74 172.729 1059.94C174.183 1059.15 175.755 1058.75 177.447 1058.75C179.139 1058.75 180.699 1059.15 182.126 1059.94C183.58 1060.74 184.743 1061.89 185.616 1063.39C186.514 1064.9 186.964 1066.74 186.964 1068.9C186.964 1071.02 186.514 1072.83 185.616 1074.34C184.743 1075.84 183.58 1076.99 182.126 1077.79C180.699 1078.58 179.139 1078.98 177.447 1078.98ZM177.447 1076.28C178.69 1076.28 179.774 1075.98 180.699 1075.37C181.624 1074.73 182.338 1073.86 182.84 1072.75C183.342 1071.64 183.593 1070.36 183.593 1068.9C183.593 1067.42 183.342 1066.13 182.84 1065.02C182.338 1063.88 181.624 1063.01 180.699 1062.4C179.774 1061.77 178.69 1061.45 177.447 1061.45C176.205 1061.45 175.121 1061.77 174.196 1062.4C173.297 1063.01 172.583 1063.88 172.055 1065.02C171.552 1066.13 171.301 1067.42 171.301 1068.9C171.301 1070.36 171.552 1071.64 172.055 1072.75C172.583 1073.86 173.297 1074.73 174.196 1075.37C175.121 1075.98 176.205 1076.28 177.447 1076.28ZM201.223 1078.98C199.531 1078.98 197.958 1078.58 196.504 1077.79C195.077 1076.99 193.914 1075.84 193.015 1074.34C192.143 1072.83 191.707 1071.02 191.707 1068.9C191.707 1066.74 192.143 1064.9 193.015 1063.39C193.914 1061.89 195.077 1060.74 196.504 1059.94C197.958 1059.15 199.531 1058.75 201.223 1058.75C202.915 1058.75 204.475 1059.15 205.902 1059.94C207.356 1060.74 208.519 1061.89 209.391 1063.39C210.29 1064.9 210.74 1066.74 210.74 1068.9C210.74 1071.02 210.29 1072.83 209.391 1074.34C208.519 1075.84 207.356 1076.99 205.902 1077.79C204.475 1078.58 202.915 1078.98 201.223 1078.98ZM201.223 1076.28C202.466 1076.28 203.549 1075.98 204.475 1075.37C205.4 1074.73 206.114 1073.86 206.616 1072.75C207.118 1071.64 207.369 1070.36 207.369 1068.9C207.369 1067.42 207.118 1066.13 206.616 1065.02C206.114 1063.88 205.4 1063.01 204.475 1062.4C203.549 1061.77 202.466 1061.45 201.223 1061.45C199.981 1061.45 198.897 1061.77 197.972 1062.4C197.073 1063.01 196.359 1063.88 195.83 1065.02C195.328 1066.13 195.077 1067.42 195.077 1068.9C195.077 1070.36 195.328 1071.64 195.83 1072.75C196.359 1073.86 197.073 1074.73 197.972 1075.37C198.897 1075.98 199.981 1076.28 201.223 1076.28ZM228.726 1078.98C226.849 1078.98 225.369 1078.65 224.285 1077.98C223.201 1077.3 222.422 1076.36 221.946 1075.17C221.496 1073.98 221.272 1072.59 221.272 1071.01V1061.89H215.839V1059.43L221.391 1059.23L221.827 1053.04H224.523V1059.23H234V1061.89H224.523V1071.05C224.523 1072.18 224.668 1073.15 224.959 1073.94C225.25 1074.73 225.752 1075.33 226.466 1075.72C227.18 1076.12 228.158 1076.32 229.4 1076.32C230.326 1076.32 231.158 1076.24 231.898 1076.08C232.639 1075.92 233.352 1075.71 234.04 1075.45L234.753 1077.83C233.881 1078.14 232.956 1078.41 231.978 1078.62C231.026 1078.86 229.942 1078.98 228.726 1078.98ZM249.964 1078.98C248.035 1078.98 246.277 1078.58 244.691 1077.79C243.131 1076.99 241.888 1075.84 240.963 1074.34C240.038 1072.8 239.575 1070.97 239.575 1068.82C239.575 1066.74 240.038 1064.94 240.963 1063.43C241.888 1061.93 243.091 1060.78 244.572 1059.98C246.078 1059.16 247.691 1058.75 249.409 1058.75C251.26 1058.75 252.832 1059.14 254.128 1059.9C255.45 1060.64 256.454 1061.69 257.141 1063.04C257.855 1064.38 258.212 1065.97 258.212 1067.79C258.212 1068.16 258.199 1068.52 258.172 1068.86C258.146 1069.21 258.106 1069.51 258.053 1069.78H241.756V1067.24H256.11L255.278 1068.15C255.278 1065.88 254.749 1064.17 253.692 1063.04C252.661 1061.9 251.26 1061.33 249.488 1061.33C248.299 1061.33 247.189 1061.62 246.158 1062.2C245.153 1062.78 244.347 1063.63 243.739 1064.74C243.131 1065.85 242.827 1067.21 242.827 1068.82C242.827 1070.49 243.157 1071.88 243.818 1072.99C244.479 1074.1 245.378 1074.94 246.515 1075.53C247.651 1076.08 248.933 1076.36 250.361 1076.36C251.524 1076.36 252.568 1076.2 253.493 1075.88C254.445 1075.54 255.357 1075.09 256.229 1074.53L257.419 1076.68C256.467 1077.31 255.37 1077.85 254.128 1078.3C252.912 1078.75 251.524 1078.98 249.964 1078.98ZM266.444 1078.5V1059.23H269.14L269.418 1063.79H269.537C270.541 1062.23 271.784 1061 273.264 1060.1C274.745 1059.2 276.37 1058.75 278.141 1058.75C278.855 1058.75 279.516 1058.82 280.124 1058.95C280.759 1059.06 281.367 1059.26 281.948 1059.55L281.195 1062.36C280.534 1062.12 279.965 1061.95 279.49 1061.85C279.014 1061.74 278.393 1061.69 277.626 1061.69C276.172 1061.69 274.771 1062.11 273.423 1062.96C272.101 1063.78 270.859 1065.19 269.696 1067.2V1078.5H266.444ZM288.673 1076.6V1073.46L300.609 1065.41V1065.26L288.673 1057.21V1054.07L303.464 1064.11V1066.56L288.673 1076.6Z" fill="#EA51B2"/>
<rect x="88" y="238" width="889" height="738" rx="8" fill="#282936"/>
<path d="M131.918 360.476C130.305 360.476 128.812 360.172 127.437 359.564C126.063 358.956 124.86 358.083 123.829 356.947C122.798 355.784 121.992 354.369 121.41 352.704C120.855 351.012 120.577 349.109 120.577 346.994C120.577 344.218 121.08 341.826 122.084 339.817C123.089 337.782 124.463 336.222 126.208 335.138C127.953 334.054 129.962 333.512 132.235 333.512C133.795 333.512 135.183 333.843 136.399 334.504C137.615 335.138 138.593 335.865 139.333 336.685L137.469 338.786C136.808 338.046 136.042 337.464 135.169 337.041C134.297 336.618 133.319 336.407 132.235 336.407C130.57 336.407 129.116 336.843 127.873 337.715C126.657 338.561 125.706 339.764 125.018 341.324C124.331 342.883 123.987 344.747 123.987 346.915C123.987 349.109 124.331 350.999 125.018 352.585C125.706 354.171 126.657 355.4 127.873 356.273C129.116 357.145 130.57 357.581 132.235 357.581C133.425 357.581 134.495 357.33 135.447 356.828C136.399 356.326 137.284 355.612 138.104 354.687L139.967 356.709C138.963 357.898 137.8 358.824 136.478 359.485C135.156 360.145 133.636 360.476 131.918 360.476ZM153.671 360.476C151.98 360.476 150.407 360.079 148.953 359.286C147.525 358.493 146.362 357.343 145.463 355.837C144.591 354.33 144.155 352.519 144.155 350.404C144.155 348.237 144.591 346.399 145.463 344.893C146.362 343.386 147.525 342.236 148.953 341.443C150.407 340.65 151.98 340.253 153.671 340.253C155.363 340.253 156.923 340.65 158.35 341.443C159.804 342.236 160.967 343.386 161.84 344.893C162.739 346.399 163.188 348.237 163.188 350.404C163.188 352.519 162.739 354.33 161.84 355.837C160.967 357.343 159.804 358.493 158.35 359.286C156.923 360.079 155.363 360.476 153.671 360.476ZM153.671 357.779C154.914 357.779 155.998 357.475 156.923 356.867C157.848 356.233 158.562 355.361 159.064 354.25C159.566 353.14 159.818 351.858 159.818 350.404C159.818 348.924 159.566 347.629 159.064 346.518C158.562 345.382 157.848 344.509 156.923 343.901C155.998 343.267 154.914 342.95 153.671 342.95C152.429 342.95 151.345 343.267 150.42 343.901C149.521 344.509 148.807 345.382 148.279 346.518C147.777 347.629 147.525 348.924 147.525 350.404C147.525 351.858 147.777 353.14 148.279 354.25C148.807 355.361 149.521 356.233 150.42 356.867C151.345 357.475 152.429 357.779 153.671 357.779ZM169.239 360V340.729H171.936L172.213 344.02H172.372C173.376 342.936 174.46 342.038 175.623 341.324C176.786 340.61 178.121 340.253 179.628 340.253C181.902 340.253 183.58 340.914 184.664 342.236C185.748 343.558 186.29 345.487 186.29 348.025V360H183.038V348.461C183.038 346.637 182.695 345.289 182.007 344.417C181.32 343.518 180.183 343.069 178.597 343.069C177.46 343.069 176.443 343.359 175.544 343.941C174.645 344.522 173.627 345.395 172.491 346.558V360H169.239ZM204.95 360.476C203.074 360.476 201.593 360.145 200.509 359.485C199.426 358.797 198.646 357.859 198.17 356.669C197.72 355.48 197.496 354.092 197.496 352.506V343.386H192.063V340.927L197.615 340.729L198.051 334.543H200.747V340.729H210.224V343.386H200.747V352.545C200.747 353.682 200.893 354.647 201.183 355.44C201.474 356.233 201.976 356.828 202.69 357.224C203.404 357.621 204.382 357.819 205.624 357.819C206.55 357.819 207.382 357.74 208.123 357.581C208.863 357.423 209.576 357.211 210.264 356.947L210.978 359.326C210.105 359.643 209.18 359.907 208.202 360.119C207.25 360.357 206.166 360.476 204.95 360.476ZM226.188 360.476C224.259 360.476 222.501 360.079 220.915 359.286C219.355 358.493 218.113 357.343 217.187 355.837C216.262 354.303 215.8 352.466 215.8 350.325C215.8 348.237 216.262 346.439 217.187 344.932C218.113 343.425 219.315 342.275 220.796 341.482C222.303 340.663 223.915 340.253 225.633 340.253C227.484 340.253 229.057 340.637 230.352 341.403C231.674 342.143 232.678 343.187 233.366 344.536C234.079 345.884 234.436 347.47 234.436 349.294C234.436 349.664 234.423 350.021 234.396 350.365C234.37 350.708 234.33 351.012 234.278 351.277H217.98V348.739H232.335L231.502 349.651C231.502 347.377 230.973 345.672 229.916 344.536C228.885 343.399 227.484 342.831 225.713 342.831C224.523 342.831 223.413 343.121 222.382 343.703C221.377 344.285 220.571 345.13 219.963 346.241C219.355 347.351 219.051 348.712 219.051 350.325C219.051 351.99 219.382 353.378 220.042 354.488C220.703 355.599 221.602 356.445 222.739 357.026C223.875 357.581 225.158 357.859 226.585 357.859C227.748 357.859 228.792 357.7 229.718 357.383C230.669 357.039 231.581 356.59 232.454 356.035L233.643 358.176C232.691 358.81 231.594 359.352 230.352 359.802C229.136 360.251 227.748 360.476 226.188 360.476ZM246.634 360.476C244.334 360.476 242.642 359.815 241.558 358.493C240.474 357.171 239.932 355.242 239.932 352.704V340.729H243.223V352.268C243.223 354.092 243.554 355.453 244.215 356.352C244.902 357.224 246.052 357.661 247.664 357.661C248.775 357.661 249.779 357.383 250.678 356.828C251.603 356.246 252.595 355.334 253.652 354.092V340.729H256.903V360H254.247L253.969 356.63H253.811C252.832 357.74 251.762 358.665 250.599 359.405C249.436 360.119 248.114 360.476 246.634 360.476ZM247.744 337.478L246.039 335.852L251.669 329.19L253.969 331.411L247.744 337.478ZM271.401 360.476C268.889 360.476 266.867 359.603 265.334 357.859C263.801 356.088 263.034 353.603 263.034 350.404C263.034 348.316 263.444 346.518 264.263 345.011C265.109 343.478 266.193 342.302 267.515 341.482C268.863 340.663 270.29 340.253 271.797 340.253C272.934 340.253 273.965 340.478 274.89 340.927C275.842 341.35 276.727 341.958 277.547 342.751H277.666L277.507 339.183V331.768H280.759V360H278.062L277.785 357.462H277.666C276.899 358.282 275.961 358.995 274.85 359.603C273.767 360.185 272.617 360.476 271.401 360.476ZM272.075 357.74C273.026 357.74 273.952 357.502 274.85 357.026C275.749 356.524 276.635 355.797 277.507 354.845V345.249C276.635 344.43 275.776 343.848 274.93 343.505C274.11 343.161 273.277 342.989 272.432 342.989C271.321 342.989 270.304 343.306 269.378 343.941C268.48 344.549 267.753 345.408 267.197 346.518C266.669 347.602 266.404 348.884 266.404 350.365C266.404 352.664 266.907 354.475 267.911 355.797C268.916 357.092 270.304 357.74 272.075 357.74ZM296.326 360.476C294.635 360.476 293.062 360.079 291.608 359.286C290.18 358.493 289.017 357.343 288.118 355.837C287.246 354.33 286.81 352.519 286.81 350.404C286.81 348.237 287.246 346.399 288.118 344.893C289.017 343.386 290.18 342.236 291.608 341.443C293.062 340.65 294.635 340.253 296.326 340.253C298.018 340.253 299.578 340.65 301.005 341.443C302.459 342.236 303.622 343.386 304.495 344.893C305.393 346.399 305.843 348.237 305.843 350.404C305.843 352.519 305.393 354.33 304.495 355.837C303.622 357.343 302.459 358.493 301.005 359.286C299.578 360.079 298.018 360.476 296.326 360.476ZM296.326 357.779C297.569 357.779 298.653 357.475 299.578 356.867C300.503 356.233 301.217 355.361 301.719 354.25C302.221 353.14 302.472 351.858 302.472 350.404C302.472 348.924 302.221 347.629 301.719 346.518C301.217 345.382 300.503 344.509 299.578 343.901C298.653 343.267 297.569 342.95 296.326 342.95C295.084 342.95 294 343.267 293.075 343.901C292.176 344.509 291.462 345.382 290.934 346.518C290.431 347.629 290.18 348.924 290.18 350.404C290.18 351.858 290.431 353.14 290.934 354.25C291.462 355.361 292.176 356.233 293.075 356.867C294 357.475 295.084 357.779 296.326 357.779ZM335.67 368.129V340.729H338.366L338.644 343.187H338.763C339.662 342.342 340.693 341.641 341.856 341.086C343.045 340.531 344.235 340.253 345.424 340.253C347.169 340.253 348.623 340.663 349.786 341.482C350.976 342.275 351.875 343.412 352.483 344.893C353.091 346.346 353.395 348.078 353.395 350.087C353.395 352.255 352.985 354.118 352.165 355.678C351.346 357.238 350.275 358.427 348.953 359.247C347.632 360.066 346.191 360.476 344.631 360.476C343.759 360.476 342.794 360.264 341.737 359.841C340.706 359.392 339.754 358.771 338.882 357.978H338.763L338.921 361.626V368.129H335.67ZM344.076 357.74C345.213 357.74 346.231 357.436 347.129 356.828C348.028 356.22 348.729 355.347 349.231 354.211C349.76 353.048 350.024 351.673 350.024 350.087C350.024 348.686 349.839 347.457 349.469 346.399C349.099 345.315 348.517 344.483 347.724 343.901C346.931 343.293 345.887 342.989 344.592 342.989C343.719 342.989 342.794 343.227 341.816 343.703C340.864 344.152 339.9 344.879 338.921 345.884V355.48C339.847 356.299 340.772 356.881 341.697 357.224C342.649 357.568 343.442 357.74 344.076 357.74ZM361.547 360V340.729H364.244L364.521 345.289H364.64C365.645 343.729 366.887 342.5 368.368 341.601C369.848 340.703 371.474 340.253 373.245 340.253C373.958 340.253 374.619 340.319 375.227 340.451C375.862 340.557 376.47 340.755 377.051 341.046L376.298 343.862C375.637 343.624 375.069 343.452 374.593 343.346C374.117 343.24 373.496 343.187 372.729 343.187C371.275 343.187 369.874 343.61 368.526 344.456C367.204 345.276 365.962 346.69 364.799 348.699V360H361.547ZM392.064 360V343.386H383.103V340.729H395.316V360H392.064ZM393.333 336.685C392.593 336.685 391.972 336.46 391.469 336.01C390.967 335.535 390.716 334.913 390.716 334.147C390.716 333.38 390.967 332.772 391.469 332.323C391.972 331.847 392.593 331.609 393.333 331.609C394.073 331.609 394.694 331.847 395.197 332.323C395.699 332.772 395.95 333.38 395.95 334.147C395.95 334.913 395.699 335.535 395.197 336.01C394.694 336.46 394.073 336.685 393.333 336.685ZM406.997 360V340.729H409.694L409.971 344.02H410.13C411.134 342.936 412.218 342.038 413.381 341.324C414.545 340.61 415.879 340.253 417.386 340.253C419.66 340.253 421.338 340.914 422.422 342.236C423.506 343.558 424.048 345.487 424.048 348.025V360H420.796V348.461C420.796 346.637 420.453 345.289 419.765 344.417C419.078 343.518 417.941 343.069 416.355 343.069C415.219 343.069 414.201 343.359 413.302 343.941C412.403 344.522 411.386 345.395 410.249 346.558V360H406.997ZM440.805 360.476C438.796 360.476 436.985 360.079 435.373 359.286C433.787 358.493 432.531 357.343 431.606 355.837C430.707 354.33 430.258 352.519 430.258 350.404C430.258 348.237 430.747 346.399 431.725 344.893C432.703 343.386 433.998 342.236 435.611 341.443C437.25 340.65 439.047 340.253 441.003 340.253C442.59 340.253 443.951 340.531 445.088 341.086C446.251 341.641 447.229 342.302 448.022 343.069L446.396 345.17C445.603 344.483 444.784 343.941 443.938 343.544C443.092 343.148 442.153 342.95 441.122 342.95C439.642 342.95 438.334 343.267 437.197 343.901C436.06 344.509 435.175 345.382 434.54 346.518C433.932 347.629 433.628 348.924 433.628 350.404C433.628 351.858 433.932 353.14 434.54 354.25C435.148 355.361 436.007 356.233 437.118 356.867C438.254 357.475 439.563 357.779 441.043 357.779C442.233 357.779 443.317 357.542 444.295 357.066C445.299 356.59 446.198 356.022 446.991 355.361L448.458 357.462C447.401 358.414 446.211 359.154 444.889 359.683C443.594 360.211 442.233 360.476 440.805 360.476ZM463.391 360V343.386H454.43V340.729H466.643V360H463.391ZM464.66 336.685C463.92 336.685 463.299 336.46 462.797 336.01C462.294 335.535 462.043 334.913 462.043 334.147C462.043 333.38 462.294 332.772 462.797 332.323C463.299 331.847 463.92 331.609 464.66 331.609C465.401 331.609 466.022 331.847 466.524 332.323C467.026 332.772 467.277 333.38 467.277 334.147C467.277 334.913 467.026 335.535 466.524 336.01C466.022 336.46 465.401 336.685 464.66 336.685ZM478.325 368.129V340.729H481.021L481.299 343.187H481.418C482.317 342.342 483.347 341.641 484.511 341.086C485.7 340.531 486.89 340.253 488.079 340.253C489.824 340.253 491.278 340.663 492.441 341.482C493.631 342.275 494.529 343.412 495.137 344.893C495.745 346.346 496.049 348.078 496.049 350.087C496.049 352.255 495.64 354.118 494.82 355.678C494.001 357.238 492.93 358.427 491.608 359.247C490.287 360.066 488.846 360.476 487.286 360.476C486.414 360.476 485.449 360.264 484.392 359.841C483.361 359.392 482.409 358.771 481.537 357.978H481.418L481.576 361.626V368.129H478.325ZM486.731 357.74C487.868 357.74 488.886 357.436 489.784 356.828C490.683 356.22 491.384 355.347 491.886 354.211C492.415 353.048 492.679 351.673 492.679 350.087C492.679 348.686 492.494 347.457 492.124 346.399C491.754 345.315 491.172 344.483 490.379 343.901C489.586 343.293 488.542 342.989 487.247 342.989C486.374 342.989 485.449 343.227 484.471 343.703C483.519 344.152 482.554 344.879 481.576 345.884V355.48C482.502 356.299 483.427 356.881 484.352 357.224C485.304 357.568 486.097 357.74 486.731 357.74ZM508.167 360.476C506.978 360.476 505.881 360.264 504.876 359.841C503.872 359.392 503.079 358.758 502.497 357.938C501.916 357.119 501.625 356.141 501.625 355.004C501.625 352.836 502.709 351.197 504.876 350.087C507.044 348.95 510.613 348.184 515.582 347.787C515.556 346.915 515.371 346.109 515.027 345.368C514.71 344.628 514.181 344.047 513.441 343.624C512.701 343.174 511.71 342.95 510.467 342.95C509.648 342.95 508.828 343.069 508.009 343.306C507.216 343.518 506.449 343.809 505.709 344.179C504.995 344.522 504.334 344.879 503.726 345.249L502.458 343.029C503.092 342.606 503.859 342.183 504.757 341.76C505.683 341.311 506.674 340.954 507.731 340.689C508.789 340.399 509.886 340.253 511.022 340.253C512.794 340.253 514.247 340.584 515.384 341.245C516.547 341.905 517.406 342.831 517.962 344.02C518.543 345.183 518.834 346.571 518.834 348.184V360H516.177L515.9 357.383H515.781C514.723 358.229 513.534 358.956 512.212 359.564C510.89 360.172 509.542 360.476 508.167 360.476ZM509.04 357.859C510.15 357.859 511.247 357.608 512.331 357.105C513.415 356.603 514.499 355.903 515.582 355.004V349.928C512.833 350.166 510.666 350.497 509.079 350.92C507.52 351.343 506.41 351.885 505.749 352.545C505.114 353.18 504.797 353.92 504.797 354.766C504.797 355.48 504.995 356.074 505.392 356.55C505.788 357 506.304 357.33 506.938 357.542C507.599 357.753 508.3 357.859 509.04 357.859ZM538.288 360.476C536.252 360.476 534.692 359.894 533.609 358.731C532.525 357.542 531.983 355.81 531.983 353.537V334.424H525.401V331.768H535.234V353.775C535.234 355.176 535.578 356.193 536.265 356.828C536.953 357.462 537.865 357.779 539.001 357.779C539.556 357.779 540.125 357.713 540.706 357.581C541.288 357.423 541.936 357.185 542.649 356.867L543.482 359.326C542.61 359.643 541.79 359.907 541.024 360.119C540.257 360.357 539.345 360.476 538.288 360.476Z" fill="#EA51B2"/>
<rect x="118" y="424" width="828" height="142.582" rx="5.23735" fill="#101012"/>
<path d="M150.437 502.545L140.755 495.977V494.368L150.437 487.8V489.851L142.624 495.12V495.224L150.437 500.494V502.545ZM155.619 503.791V485.308H157.748V490.344L157.618 493.329H157.696C158.336 492.637 159.037 492.057 159.799 491.59C160.56 491.105 161.434 490.863 162.42 490.863C163.909 490.863 165.008 491.296 165.717 492.161C166.427 493.026 166.781 494.29 166.781 495.951V503.791H164.653V496.237C164.653 495.043 164.428 494.16 163.978 493.589C163.528 493 162.784 492.706 161.745 492.706C161.001 492.706 160.335 492.897 159.747 493.277C159.158 493.658 158.492 494.229 157.748 494.991V503.791H155.619ZM177.337 504.102C176.073 504.102 174.922 503.843 173.884 503.324C172.863 502.804 172.05 502.052 171.444 501.065C170.838 500.061 170.535 498.859 170.535 497.457C170.535 496.09 170.838 494.913 171.444 493.926C172.05 492.94 172.837 492.187 173.806 491.668C174.793 491.131 175.848 490.863 176.973 490.863C178.185 490.863 179.214 491.114 180.062 491.616C180.928 492.101 181.585 492.784 182.035 493.667C182.503 494.549 182.736 495.588 182.736 496.782C182.736 497.024 182.727 497.258 182.71 497.483C182.693 497.708 182.667 497.907 182.632 498.08H171.963V496.418H181.36L180.815 497.015C180.815 495.527 180.469 494.411 179.777 493.667C179.102 492.923 178.185 492.551 177.025 492.551C176.246 492.551 175.52 492.741 174.845 493.122C174.187 493.502 173.659 494.056 173.261 494.783C172.863 495.51 172.664 496.401 172.664 497.457C172.664 498.547 172.88 499.456 173.313 500.182C173.746 500.909 174.334 501.463 175.078 501.844C175.822 502.207 176.662 502.389 177.596 502.389C178.358 502.389 179.041 502.285 179.647 502.077C180.27 501.852 180.867 501.558 181.438 501.195L182.217 502.597C181.594 503.012 180.876 503.367 180.062 503.661C179.266 503.955 178.358 504.102 177.337 504.102ZM190.721 504.102C189.943 504.102 189.224 503.964 188.567 503.687C187.909 503.393 187.39 502.977 187.009 502.441C186.628 501.904 186.438 501.264 186.438 500.52C186.438 499.101 187.148 498.028 188.567 497.301C189.986 496.557 192.322 496.055 195.576 495.795C195.558 495.224 195.437 494.696 195.212 494.212C195.005 493.727 194.658 493.347 194.174 493.07C193.689 492.775 193.04 492.628 192.227 492.628C191.691 492.628 191.154 492.706 190.618 492.862C190.098 493 189.596 493.191 189.112 493.433C188.645 493.658 188.212 493.892 187.814 494.134L186.983 492.68C187.399 492.403 187.9 492.127 188.489 491.85C189.095 491.555 189.744 491.322 190.436 491.149C191.128 490.958 191.846 490.863 192.59 490.863C193.75 490.863 194.702 491.08 195.446 491.512C196.207 491.945 196.77 492.551 197.133 493.329C197.514 494.091 197.704 494.999 197.704 496.055V503.791H195.965L195.783 502.077H195.706C195.013 502.631 194.234 503.107 193.369 503.505C192.504 503.903 191.621 504.102 190.721 504.102ZM191.292 502.389C192.019 502.389 192.738 502.225 193.447 501.896C194.157 501.567 194.866 501.108 195.576 500.52V497.197C193.776 497.353 192.357 497.569 191.318 497.846C190.297 498.123 189.571 498.478 189.138 498.91C188.723 499.326 188.515 499.81 188.515 500.364C188.515 500.831 188.645 501.221 188.904 501.532C189.164 501.827 189.501 502.043 189.917 502.181C190.349 502.32 190.808 502.389 191.292 502.389ZM206.936 504.102C205.292 504.102 203.968 503.531 202.964 502.389C201.96 501.229 201.458 499.603 201.458 497.509C201.458 496.142 201.727 494.965 202.263 493.978C202.817 492.975 203.526 492.204 204.392 491.668C205.274 491.131 206.209 490.863 207.195 490.863C207.939 490.863 208.614 491.01 209.22 491.304C209.843 491.581 210.423 491.979 210.959 492.499H211.037L210.933 490.162V485.308H213.062V503.791H211.297L211.115 502.129H211.037C210.535 502.666 209.921 503.133 209.194 503.531C208.485 503.912 207.732 504.102 206.936 504.102ZM207.377 502.311C208 502.311 208.606 502.155 209.194 501.844C209.782 501.515 210.362 501.039 210.933 500.416V494.134C210.362 493.598 209.8 493.217 209.246 492.992C208.709 492.767 208.164 492.654 207.611 492.654C206.884 492.654 206.217 492.862 205.612 493.277C205.023 493.675 204.547 494.238 204.184 494.965C203.838 495.674 203.665 496.514 203.665 497.483C203.665 498.988 203.994 500.174 204.651 501.039C205.309 501.887 206.217 502.311 207.377 502.311ZM224.032 504.102C222.769 504.102 221.618 503.843 220.58 503.324C219.559 502.804 218.745 502.052 218.14 501.065C217.534 500.061 217.231 498.859 217.231 497.457C217.231 496.09 217.534 494.913 218.14 493.926C218.745 492.94 219.533 492.187 220.502 491.668C221.488 491.131 222.544 490.863 223.669 490.863C224.88 490.863 225.91 491.114 226.758 491.616C227.623 492.101 228.281 492.784 228.731 493.667C229.198 494.549 229.432 495.588 229.432 496.782C229.432 497.024 229.423 497.258 229.406 497.483C229.389 497.708 229.363 497.907 229.328 498.08H218.659V496.418H228.056L227.511 497.015C227.511 495.527 227.165 494.411 226.473 493.667C225.798 492.923 224.88 492.551 223.721 492.551C222.942 492.551 222.215 492.741 221.54 493.122C220.883 493.502 220.355 494.056 219.957 494.783C219.559 495.51 219.36 496.401 219.36 497.457C219.36 498.547 219.576 499.456 220.009 500.182C220.441 500.909 221.03 501.463 221.774 501.844C222.518 502.207 223.358 502.389 224.292 502.389C225.054 502.389 225.737 502.285 226.343 502.077C226.966 501.852 227.563 501.558 228.134 501.195L228.913 502.597C228.29 503.012 227.572 503.367 226.758 503.661C225.962 503.955 225.054 504.102 224.032 504.102ZM234.821 503.791V491.175H236.586L236.768 494.16H236.846C237.504 493.139 238.317 492.334 239.286 491.746C240.255 491.157 241.32 490.863 242.479 490.863C242.946 490.863 243.379 490.906 243.777 490.993C244.192 491.062 244.591 491.192 244.971 491.382L244.478 493.225C244.045 493.07 243.673 492.957 243.362 492.888C243.05 492.819 242.644 492.784 242.142 492.784C241.19 492.784 240.273 493.061 239.39 493.615C238.525 494.151 237.711 495.077 236.95 496.392V503.791H234.821ZM249.374 502.545V500.494L257.188 495.224V495.12L249.374 489.851V487.8L259.057 494.368V495.977L249.374 502.545Z" fill="#EA51B2"/>
<rect x="118" y="597" width="828" height="142.582" rx="5.23735" fill="#101012"/>
<path d="M150.437 675.545L140.755 668.977V667.368L150.437 660.8V662.851L142.624 668.12V668.224L150.437 673.494V675.545ZM161.252 677.102C160.023 677.102 158.873 676.903 157.8 676.505C156.727 676.107 155.809 675.649 155.048 675.129L156.034 673.728C156.761 674.247 157.566 674.662 158.449 674.974C159.331 675.285 160.352 675.441 161.512 675.441C162.585 675.441 163.381 675.242 163.9 674.844C164.437 674.446 164.705 673.987 164.705 673.468C164.705 673.226 164.653 673.001 164.549 672.793C164.462 672.585 164.281 672.386 164.004 672.196C163.744 672.006 163.355 671.824 162.836 671.651C162.317 671.478 161.624 671.305 160.759 671.132C159.115 670.786 157.878 670.318 157.047 669.73C156.233 669.142 155.827 668.38 155.827 667.446C155.827 666.424 156.268 665.576 157.151 664.902C158.033 664.209 159.34 663.863 161.07 663.863C162.04 663.863 162.974 664.028 163.874 664.356C164.774 664.668 165.535 665.04 166.158 665.473L165.12 666.848C164.549 666.433 163.9 666.113 163.173 665.888C162.446 665.646 161.685 665.525 160.889 665.525C160.162 665.525 159.582 665.611 159.15 665.784C158.734 665.94 158.431 666.156 158.241 666.433C158.068 666.71 157.981 667.013 157.981 667.342C157.981 667.878 158.267 668.302 158.838 668.614C159.426 668.908 160.361 669.185 161.642 669.444C163.043 669.739 164.116 670.067 164.861 670.431C165.622 670.794 166.141 671.21 166.418 671.677C166.712 672.144 166.859 672.698 166.859 673.338C166.859 674.03 166.643 674.662 166.21 675.233C165.778 675.787 165.146 676.237 164.315 676.583C163.485 676.929 162.464 677.102 161.252 677.102ZM177.337 677.102C176.073 677.102 174.922 676.843 173.884 676.324C172.863 675.804 172.05 675.052 171.444 674.065C170.838 673.061 170.535 671.859 170.535 670.457C170.535 669.09 170.838 667.913 171.444 666.926C172.05 665.94 172.837 665.187 173.806 664.668C174.793 664.131 175.848 663.863 176.973 663.863C178.185 663.863 179.214 664.114 180.062 664.616C180.928 665.101 181.585 665.784 182.035 666.667C182.503 667.549 182.736 668.588 182.736 669.782C182.736 670.024 182.727 670.258 182.71 670.483C182.693 670.708 182.667 670.907 182.632 671.08H171.963V669.418H181.36L180.815 670.015C180.815 668.527 180.469 667.411 179.777 666.667C179.102 665.923 178.185 665.551 177.025 665.551C176.246 665.551 175.52 665.741 174.845 666.122C174.187 666.502 173.659 667.056 173.261 667.783C172.863 668.51 172.664 669.401 172.664 670.457C172.664 671.547 172.88 672.456 173.313 673.182C173.746 673.909 174.334 674.463 175.078 674.844C175.822 675.207 176.662 675.389 177.596 675.389C178.358 675.389 179.041 675.285 179.647 675.077C180.27 674.852 180.867 674.558 181.438 674.195L182.217 675.597C181.594 676.012 180.876 676.367 180.062 676.661C179.266 676.955 178.358 677.102 177.337 677.102ZM193.317 677.102C192.002 677.102 190.817 676.843 189.761 676.324C188.723 675.804 187.9 675.052 187.295 674.065C186.706 673.079 186.412 671.893 186.412 670.509C186.412 669.09 186.732 667.887 187.373 666.9C188.013 665.914 188.861 665.161 189.917 664.642C190.99 664.123 192.166 663.863 193.447 663.863C194.485 663.863 195.377 664.045 196.121 664.408C196.882 664.772 197.523 665.204 198.042 665.706L196.977 667.082C196.458 666.632 195.922 666.277 195.368 666.018C194.814 665.758 194.2 665.628 193.525 665.628C192.556 665.628 191.699 665.836 190.955 666.251C190.211 666.649 189.631 667.221 189.216 667.965C188.818 668.692 188.619 669.54 188.619 670.509C188.619 671.461 188.818 672.3 189.216 673.027C189.614 673.754 190.176 674.325 190.903 674.74C191.647 675.138 192.504 675.337 193.473 675.337C194.252 675.337 194.961 675.181 195.602 674.87C196.259 674.558 196.848 674.186 197.367 673.754L198.327 675.129C197.635 675.752 196.856 676.237 195.991 676.583C195.143 676.929 194.252 677.102 193.317 677.102ZM210.129 677.102C208.9 677.102 207.931 676.886 207.221 676.453C206.512 676.003 206.001 675.389 205.69 674.61C205.395 673.831 205.248 672.923 205.248 671.885V665.914H201.692V664.304L205.326 664.175L205.612 660.125H207.377V664.175H213.581V665.914H207.377V671.91C207.377 672.655 207.472 673.286 207.662 673.805C207.853 674.325 208.182 674.714 208.649 674.974C209.116 675.233 209.756 675.363 210.57 675.363C211.176 675.363 211.721 675.311 212.205 675.207C212.69 675.103 213.157 674.965 213.607 674.792L214.074 676.349C213.503 676.557 212.898 676.73 212.257 676.869C211.634 677.024 210.925 677.102 210.129 677.102ZM223.669 676.791V665.914H217.802V664.175H225.798V676.791H223.669ZM224.5 661.527C224.015 661.527 223.608 661.38 223.28 661.086C222.951 660.774 222.786 660.367 222.786 659.865C222.786 659.364 222.951 658.966 223.28 658.671C223.608 658.36 224.015 658.204 224.5 658.204C224.984 658.204 225.391 658.36 225.72 658.671C226.049 658.966 226.213 659.364 226.213 659.865C226.213 660.367 226.049 660.774 225.72 661.086C225.391 661.38 224.984 661.527 224.5 661.527ZM238.819 677.102C237.711 677.102 236.682 676.843 235.73 676.324C234.795 675.804 234.034 675.052 233.445 674.065C232.874 673.079 232.589 671.893 232.589 670.509C232.589 669.09 232.874 667.887 233.445 666.9C234.034 665.914 234.795 665.161 235.73 664.642C236.682 664.123 237.711 663.863 238.819 663.863C239.927 663.863 240.948 664.123 241.882 664.642C242.834 665.161 243.595 665.914 244.167 666.9C244.755 667.887 245.049 669.09 245.049 670.509C245.049 671.893 244.755 673.079 244.167 674.065C243.595 675.052 242.834 675.804 241.882 676.324C240.948 676.843 239.927 677.102 238.819 677.102ZM238.819 675.337C239.632 675.337 240.342 675.138 240.948 674.74C241.553 674.325 242.021 673.754 242.349 673.027C242.678 672.3 242.843 671.461 242.843 670.509C242.843 669.54 242.678 668.692 242.349 667.965C242.021 667.221 241.553 666.649 240.948 666.251C240.342 665.836 239.632 665.628 238.819 665.628C238.006 665.628 237.296 665.836 236.69 666.251C236.102 666.649 235.635 667.221 235.289 667.965C234.96 668.692 234.795 669.54 234.795 670.509C234.795 671.461 234.96 672.3 235.289 673.027C235.635 673.754 236.102 674.325 236.69 674.74C237.296 675.138 238.006 675.337 238.819 675.337ZM249.011 676.791V664.175H250.776L250.958 666.329H251.061C251.719 665.62 252.429 665.031 253.19 664.564C253.952 664.097 254.826 663.863 255.812 663.863C257.3 663.863 258.399 664.296 259.109 665.161C259.818 666.026 260.173 667.29 260.173 668.951V676.791H258.044V669.237C258.044 668.043 257.819 667.16 257.37 666.589C256.92 666 256.175 665.706 255.137 665.706C254.393 665.706 253.727 665.897 253.138 666.277C252.55 666.658 251.884 667.229 251.139 667.991V676.791H249.011ZM264.939 675.545V673.494L272.753 668.224V668.12L264.939 662.851V660.8L274.622 667.368V668.977L264.939 675.545Z" fill="#EA51B2"/>
<rect x="118" y="765" width="828" height="142.582" rx="5.23735" fill="#101012"/>
<path d="M150.437 843.545L140.755 836.977V835.368L150.437 828.8V830.851L142.624 836.12V836.224L150.437 841.494V843.545ZM161.252 845.102C160.023 845.102 158.873 844.903 157.8 844.505C156.727 844.107 155.809 843.649 155.048 843.129L156.034 841.728C156.761 842.247 157.566 842.662 158.449 842.974C159.331 843.285 160.352 843.441 161.512 843.441C162.585 843.441 163.381 843.242 163.9 842.844C164.437 842.446 164.705 841.987 164.705 841.468C164.705 841.226 164.653 841.001 164.549 840.793C164.462 840.585 164.281 840.386 164.004 840.196C163.744 840.006 163.355 839.824 162.836 839.651C162.317 839.478 161.624 839.305 160.759 839.132C159.115 838.786 157.878 838.318 157.047 837.73C156.233 837.142 155.827 836.38 155.827 835.446C155.827 834.424 156.268 833.576 157.151 832.902C158.033 832.209 159.34 831.863 161.07 831.863C162.04 831.863 162.974 832.028 163.874 832.356C164.774 832.668 165.535 833.04 166.158 833.473L165.12 834.848C164.549 834.433 163.9 834.113 163.173 833.888C162.446 833.646 161.685 833.525 160.889 833.525C160.162 833.525 159.582 833.611 159.15 833.784C158.734 833.94 158.431 834.156 158.241 834.433C158.068 834.71 157.981 835.013 157.981 835.342C157.981 835.878 158.267 836.302 158.838 836.614C159.426 836.908 160.361 837.185 161.642 837.444C163.043 837.739 164.116 838.067 164.861 838.431C165.622 838.794 166.141 839.21 166.418 839.677C166.712 840.144 166.859 840.698 166.859 841.338C166.859 842.03 166.643 842.662 166.21 843.233C165.778 843.787 165.146 844.237 164.315 844.583C163.485 844.929 162.464 845.102 161.252 845.102ZM177.337 845.102C176.073 845.102 174.922 844.843 173.884 844.324C172.863 843.804 172.05 843.052 171.444 842.065C170.838 841.061 170.535 839.859 170.535 838.457C170.535 837.09 170.838 835.913 171.444 834.926C172.05 833.94 172.837 833.187 173.806 832.668C174.793 832.131 175.848 831.863 176.973 831.863C178.185 831.863 179.214 832.114 180.062 832.616C180.928 833.101 181.585 833.784 182.035 834.667C182.503 835.549 182.736 836.588 182.736 837.782C182.736 838.024 182.727 838.258 182.71 838.483C182.693 838.708 182.667 838.907 182.632 839.08H171.963V837.418H181.36L180.815 838.015C180.815 836.527 180.469 835.411 179.777 834.667C179.102 833.923 178.185 833.551 177.025 833.551C176.246 833.551 175.52 833.741 174.845 834.122C174.187 834.502 173.659 835.056 173.261 835.783C172.863 836.51 172.664 837.401 172.664 838.457C172.664 839.547 172.88 840.456 173.313 841.182C173.746 841.909 174.334 842.463 175.078 842.844C175.822 843.207 176.662 843.389 177.596 843.389C178.358 843.389 179.041 843.285 179.647 843.077C180.27 842.852 180.867 842.558 181.438 842.195L182.217 843.597C181.594 844.012 180.876 844.367 180.062 844.661C179.266 844.955 178.358 845.102 177.337 845.102ZM193.317 845.102C192.002 845.102 190.817 844.843 189.761 844.324C188.723 843.804 187.9 843.052 187.295 842.065C186.706 841.079 186.412 839.893 186.412 838.509C186.412 837.09 186.732 835.887 187.373 834.9C188.013 833.914 188.861 833.161 189.917 832.642C190.99 832.123 192.166 831.863 193.447 831.863C194.485 831.863 195.377 832.045 196.121 832.408C196.882 832.772 197.523 833.204 198.042 833.706L196.977 835.082C196.458 834.632 195.922 834.277 195.368 834.018C194.814 833.758 194.2 833.628 193.525 833.628C192.556 833.628 191.699 833.836 190.955 834.251C190.211 834.649 189.631 835.221 189.216 835.965C188.818 836.692 188.619 837.54 188.619 838.509C188.619 839.461 188.818 840.3 189.216 841.027C189.614 841.754 190.176 842.325 190.903 842.74C191.647 843.138 192.504 843.337 193.473 843.337C194.252 843.337 194.961 843.181 195.602 842.87C196.259 842.558 196.848 842.186 197.367 841.754L198.327 843.129C197.635 843.752 196.856 844.237 195.991 844.583C195.143 844.929 194.252 845.102 193.317 845.102ZM210.129 845.102C208.9 845.102 207.931 844.886 207.221 844.453C206.512 844.003 206.001 843.389 205.69 842.61C205.395 841.831 205.248 840.923 205.248 839.885V833.914H201.692V832.304L205.326 832.175L205.612 828.125H207.377V832.175H213.581V833.914H207.377V839.91C207.377 840.655 207.472 841.286 207.662 841.805C207.853 842.325 208.182 842.714 208.649 842.974C209.116 843.233 209.756 843.363 210.57 843.363C211.176 843.363 211.721 843.311 212.205 843.207C212.69 843.103 213.157 842.965 213.607 842.792L214.074 844.349C213.503 844.557 212.898 844.73 212.257 844.869C211.634 845.024 210.925 845.102 210.129 845.102ZM223.669 844.791V833.914H217.802V832.175H225.798V844.791H223.669ZM224.5 829.527C224.015 829.527 223.608 829.38 223.28 829.086C222.951 828.774 222.786 828.367 222.786 827.865C222.786 827.364 222.951 826.966 223.28 826.671C223.608 826.36 224.015 826.204 224.5 826.204C224.984 826.204 225.391 826.36 225.72 826.671C226.049 826.966 226.213 827.364 226.213 827.865C226.213 828.367 226.049 828.774 225.72 829.086C225.391 829.38 224.984 829.527 224.5 829.527ZM238.819 845.102C237.711 845.102 236.682 844.843 235.73 844.324C234.795 843.804 234.034 843.052 233.445 842.065C232.874 841.079 232.589 839.893 232.589 838.509C232.589 837.09 232.874 835.887 233.445 834.9C234.034 833.914 234.795 833.161 235.73 832.642C236.682 832.123 237.711 831.863 238.819 831.863C239.927 831.863 240.948 832.123 241.882 832.642C242.834 833.161 243.595 833.914 244.167 834.9C244.755 835.887 245.049 837.09 245.049 838.509C245.049 839.893 244.755 841.079 244.167 842.065C243.595 843.052 242.834 843.804 241.882 844.324C240.948 844.843 239.927 845.102 238.819 845.102ZM238.819 843.337C239.632 843.337 240.342 843.138 240.948 842.74C241.553 842.325 242.021 841.754 242.349 841.027C242.678 840.3 242.843 839.461 242.843 838.509C242.843 837.54 242.678 836.692 242.349 835.965C242.021 835.221 241.553 834.649 240.948 834.251C240.342 833.836 239.632 833.628 238.819 833.628C238.006 833.628 237.296 833.836 236.69 834.251C236.102 834.649 235.635 835.221 235.289 835.965C234.96 836.692 234.795 837.54 234.795 838.509C234.795 839.461 234.96 840.3 235.289 841.027C235.635 841.754 236.102 842.325 236.69 842.74C237.296 843.138 238.006 843.337 238.819 843.337ZM249.011 844.791V832.175H250.776L250.958 834.329H251.061C251.719 833.62 252.429 833.031 253.19 832.564C253.952 832.097 254.826 831.863 255.812 831.863C257.3 831.863 258.399 832.296 259.109 833.161C259.818 834.026 260.173 835.29 260.173 836.951V844.791H258.044V837.237C258.044 836.043 257.819 835.16 257.37 834.589C256.92 834 256.175 833.706 255.137 833.706C254.393 833.706 253.727 833.897 253.138 834.277C252.55 834.658 251.884 835.229 251.139 835.991V844.791H249.011ZM264.939 843.545V841.494L272.753 836.224V836.12L264.939 830.851V828.8L274.622 835.368V836.977L264.939 843.545Z" fill="#EA51B2"/>
</svg>
