<svg width="1556" height="1208" viewBox="0 0 1556 1208" fill="none" xmlns="http://www.w3.org/2000/svg">
<rect width="1556" height="1208" fill="#121314"/>
<rect x="88" y="238" width="889" height="217" rx="8" fill="#282936"/>
<path d="M137.549 358.097L122.758 348.065V345.606L137.549 335.574V338.707L125.613 346.756V346.915L137.549 354.964V358.097ZM145.463 360V331.768H148.715V339.46L148.517 344.02H148.636C149.614 342.963 150.684 342.077 151.847 341.363C153.011 340.623 154.346 340.253 155.852 340.253C158.126 340.253 159.804 340.914 160.888 342.236C161.972 343.558 162.514 345.487 162.514 348.025V360H159.262V348.461C159.262 346.637 158.919 345.289 158.231 344.417C157.544 343.518 156.407 343.069 154.821 343.069C153.685 343.069 152.667 343.359 151.768 343.941C150.869 344.522 149.852 345.395 148.715 346.558V360H145.463ZM178.637 360.476C176.707 360.476 174.949 360.079 173.363 359.286C171.803 358.493 170.561 357.343 169.636 355.837C168.711 354.303 168.248 352.466 168.248 350.325C168.248 348.237 168.711 346.439 169.636 344.932C170.561 343.425 171.764 342.275 173.244 341.482C174.751 340.663 176.363 340.253 178.082 340.253C179.932 340.253 181.505 340.637 182.8 341.403C184.122 342.143 185.127 343.187 185.814 344.536C186.528 345.884 186.884 347.47 186.884 349.294C186.884 349.664 186.871 350.021 186.845 350.365C186.818 350.708 186.779 351.012 186.726 351.277H170.429V348.739H184.783L183.95 349.651C183.95 347.377 183.422 345.672 182.364 344.536C181.333 343.399 179.932 342.831 178.161 342.831C176.971 342.831 175.861 343.121 174.83 343.703C173.826 344.285 173.019 345.13 172.411 346.241C171.803 347.351 171.499 348.712 171.499 350.325C171.499 351.99 171.83 353.378 172.491 354.488C173.152 355.599 174.05 356.445 175.187 357.026C176.324 357.581 177.606 357.859 179.033 357.859C180.196 357.859 181.241 357.7 182.166 357.383C183.118 357.039 184.03 356.59 184.902 356.035L186.091 358.176C185.14 358.81 184.043 359.352 182.8 359.802C181.584 360.251 180.196 360.476 178.637 360.476ZM199.082 360.476C197.892 360.476 196.795 360.264 195.791 359.841C194.786 359.392 193.993 358.758 193.412 357.938C192.83 357.119 192.539 356.141 192.539 355.004C192.539 352.836 193.623 351.197 195.791 350.087C197.958 348.95 201.527 348.184 206.497 347.787C206.47 346.915 206.285 346.109 205.942 345.368C205.624 344.628 205.096 344.047 204.356 343.624C203.615 343.174 202.624 342.95 201.382 342.95C200.562 342.95 199.743 343.069 198.923 343.306C198.13 343.518 197.364 343.809 196.623 344.179C195.91 344.522 195.249 344.879 194.641 345.249L193.372 343.029C194.006 342.606 194.773 342.183 195.672 341.76C196.597 341.311 197.588 340.954 198.646 340.689C199.703 340.399 200.8 340.253 201.937 340.253C203.708 340.253 205.162 340.584 206.299 341.245C207.462 341.905 208.321 342.831 208.876 344.02C209.458 345.183 209.748 346.571 209.748 348.184V360H207.092L206.814 357.383H206.695C205.638 358.229 204.448 358.956 203.126 359.564C201.805 360.172 200.456 360.476 199.082 360.476ZM199.954 357.859C201.064 357.859 202.162 357.608 203.245 357.105C204.329 356.603 205.413 355.903 206.497 355.004V349.928C203.748 350.166 201.58 350.497 199.994 350.92C198.434 351.343 197.324 351.885 196.663 352.545C196.029 353.18 195.711 353.92 195.711 354.766C195.711 355.48 195.91 356.074 196.306 356.55C196.703 357 197.218 357.33 197.853 357.542C198.514 357.753 199.214 357.859 199.954 357.859ZM223.849 360.476C221.338 360.476 219.315 359.603 217.782 357.859C216.249 356.088 215.482 353.603 215.482 350.404C215.482 348.316 215.892 346.518 216.712 345.011C217.558 343.478 218.641 342.302 219.963 341.482C221.311 340.663 222.739 340.253 224.246 340.253C225.382 340.253 226.413 340.478 227.338 340.927C228.29 341.35 229.176 341.958 229.995 342.751H230.114L229.955 339.183V331.768H233.207V360H230.511L230.233 357.462H230.114C229.347 358.282 228.409 358.995 227.299 359.603C226.215 360.185 225.065 360.476 223.849 360.476ZM224.523 357.74C225.475 357.74 226.4 357.502 227.299 357.026C228.198 356.524 229.083 355.797 229.955 354.845V345.249C229.083 344.43 228.224 343.848 227.378 343.505C226.559 343.161 225.726 342.989 224.88 342.989C223.77 342.989 222.752 343.306 221.827 343.941C220.928 344.549 220.201 345.408 219.646 346.518C219.117 347.602 218.853 348.884 218.853 350.365C218.853 352.664 219.355 354.475 220.36 355.797C221.364 357.092 222.752 357.74 224.523 357.74ZM249.964 360.476C248.035 360.476 246.277 360.079 244.691 359.286C243.131 358.493 241.888 357.343 240.963 355.837C240.038 354.303 239.575 352.466 239.575 350.325C239.575 348.237 240.038 346.439 240.963 344.932C241.888 343.425 243.091 342.275 244.572 341.482C246.078 340.663 247.691 340.253 249.409 340.253C251.26 340.253 252.832 340.637 254.128 341.403C255.45 342.143 256.454 343.187 257.141 344.536C257.855 345.884 258.212 347.47 258.212 349.294C258.212 349.664 258.199 350.021 258.172 350.365C258.146 350.708 258.106 351.012 258.053 351.277H241.756V348.739H256.11L255.278 349.651C255.278 347.377 254.749 345.672 253.692 344.536C252.661 343.399 251.26 342.831 249.488 342.831C248.299 342.831 247.189 343.121 246.158 343.703C245.153 344.285 244.347 345.13 243.739 346.241C243.131 347.351 242.827 348.712 242.827 350.325C242.827 351.99 243.157 353.378 243.818 354.488C244.479 355.599 245.378 356.445 246.515 357.026C247.651 357.581 248.933 357.859 250.361 357.859C251.524 357.859 252.568 357.7 253.493 357.383C254.445 357.039 255.357 356.59 256.229 356.035L257.419 358.176C256.467 358.81 255.37 359.352 254.128 359.802C252.912 360.251 251.524 360.476 249.964 360.476ZM266.444 360V340.729H269.14L269.418 345.289H269.537C270.541 343.729 271.784 342.5 273.264 341.601C274.745 340.703 276.37 340.253 278.141 340.253C278.855 340.253 279.516 340.319 280.124 340.451C280.759 340.557 281.367 340.755 281.948 341.046L281.195 343.862C280.534 343.624 279.965 343.452 279.49 343.346C279.014 343.24 278.393 343.187 277.626 343.187C276.172 343.187 274.771 343.61 273.423 344.456C272.101 345.276 270.859 346.69 269.696 348.699V360H266.444ZM288.673 358.097V354.964L300.609 346.915V346.756L288.673 338.707V335.574L303.464 345.606V348.065L288.673 358.097Z" fill="#EA51B2"/>
<rect x="1016" y="238" width="452" height="738" rx="8" fill="#282936"/>
<path d="M1065.55 618.597L1050.76 608.565V606.106L1065.55 596.074V599.207L1053.61 607.256V607.415L1065.55 615.464V618.597ZM1079.53 620.976C1078.34 620.976 1077.24 620.764 1076.24 620.341C1075.23 619.892 1074.44 619.258 1073.86 618.438C1073.28 617.619 1072.99 616.641 1072.99 615.504C1072.99 613.336 1074.07 611.697 1076.24 610.587C1078.41 609.45 1081.98 608.684 1086.95 608.287C1086.92 607.415 1086.73 606.609 1086.39 605.868C1086.07 605.128 1085.54 604.547 1084.8 604.124C1084.06 603.674 1083.07 603.45 1081.83 603.45C1081.01 603.45 1080.19 603.569 1079.37 603.806C1078.58 604.018 1077.81 604.309 1077.07 604.679C1076.36 605.022 1075.7 605.379 1075.09 605.749L1073.82 603.529C1074.45 603.106 1075.22 602.683 1076.12 602.26C1077.05 601.811 1078.04 601.454 1079.09 601.189C1080.15 600.899 1081.25 600.753 1082.39 600.753C1084.16 600.753 1085.61 601.084 1086.75 601.745C1087.91 602.405 1088.77 603.331 1089.32 604.52C1089.91 605.683 1090.2 607.071 1090.2 608.684V620.5H1087.54L1087.26 617.883H1087.14C1086.09 618.729 1084.9 619.456 1083.57 620.064C1082.25 620.672 1080.9 620.976 1079.53 620.976ZM1080.4 618.359C1081.51 618.359 1082.61 618.108 1083.69 617.605C1084.78 617.103 1085.86 616.403 1086.95 615.504V610.428C1084.2 610.666 1082.03 610.997 1080.44 611.42C1078.88 611.843 1077.77 612.385 1077.11 613.045C1076.48 613.68 1076.16 614.42 1076.16 615.266C1076.16 615.98 1076.36 616.574 1076.75 617.05C1077.15 617.5 1077.67 617.83 1078.3 618.042C1078.96 618.253 1079.66 618.359 1080.4 618.359ZM1105.84 620.976C1103.97 620.976 1102.21 620.672 1100.57 620.064C1098.93 619.456 1097.53 618.755 1096.37 617.962L1097.87 615.821C1098.98 616.614 1100.21 617.249 1101.56 617.724C1102.91 618.2 1104.47 618.438 1106.24 618.438C1107.88 618.438 1109.1 618.134 1109.89 617.526C1110.71 616.918 1111.12 616.218 1111.12 615.425C1111.12 615.054 1111.04 614.711 1110.88 614.394C1110.75 614.076 1110.47 613.772 1110.05 613.482C1109.65 613.191 1109.06 612.913 1108.26 612.649C1107.47 612.385 1106.41 612.12 1105.09 611.856C1102.58 611.327 1100.69 610.613 1099.42 609.715C1098.18 608.816 1097.56 607.653 1097.56 606.225C1097.56 604.666 1098.23 603.37 1099.58 602.339C1100.93 601.282 1102.92 600.753 1105.57 600.753C1107.05 600.753 1108.47 601.004 1109.85 601.507C1111.22 601.982 1112.39 602.551 1113.34 603.212L1111.75 605.313C1110.88 604.679 1109.89 604.19 1108.78 603.846C1107.67 603.476 1106.5 603.291 1105.29 603.291C1104.18 603.291 1103.29 603.423 1102.63 603.687C1102 603.925 1101.53 604.256 1101.24 604.679C1100.98 605.102 1100.85 605.564 1100.85 606.067C1100.85 606.886 1101.28 607.534 1102.16 608.01C1103.05 608.459 1104.48 608.882 1106.44 609.278C1108.58 609.728 1110.22 610.23 1111.36 610.785C1112.52 611.34 1113.31 611.975 1113.73 612.689C1114.18 613.402 1114.41 614.248 1114.41 615.226C1114.41 616.284 1114.08 617.249 1113.42 618.121C1112.76 618.967 1111.79 619.654 1110.52 620.183C1109.25 620.711 1107.69 620.976 1105.84 620.976ZM1129.86 620.5V603.886H1120.9V601.229H1133.11V620.5H1129.86ZM1131.13 597.185C1130.39 597.185 1129.77 596.96 1129.26 596.51C1128.76 596.035 1128.51 595.413 1128.51 594.647C1128.51 593.88 1128.76 593.272 1129.26 592.823C1129.77 592.347 1130.39 592.109 1131.13 592.109C1131.87 592.109 1132.49 592.347 1132.99 592.823C1133.49 593.272 1133.74 593.88 1133.74 594.647C1133.74 595.413 1133.49 596.035 1132.99 596.51C1132.49 596.96 1131.87 597.185 1131.13 597.185ZM1151.85 620.976C1149.34 620.976 1147.32 620.103 1145.78 618.359C1144.25 616.588 1143.48 614.103 1143.48 610.904C1143.48 608.816 1143.89 607.018 1144.71 605.511C1145.56 603.978 1146.64 602.802 1147.96 601.982C1149.31 601.163 1150.74 600.753 1152.25 600.753C1153.38 600.753 1154.41 600.978 1155.34 601.427C1156.29 601.85 1157.18 602.458 1158 603.251H1158.11L1157.96 599.683V592.268H1161.21V620.5H1158.51L1158.23 617.962H1158.11C1157.35 618.782 1156.41 619.495 1155.3 620.103C1154.21 620.685 1153.06 620.976 1151.85 620.976ZM1152.52 618.24C1153.47 618.24 1154.4 618.002 1155.3 617.526C1156.2 617.024 1157.08 616.297 1157.96 615.345V605.749C1157.08 604.93 1156.22 604.348 1155.38 604.005C1154.56 603.661 1153.73 603.489 1152.88 603.489C1151.77 603.489 1150.75 603.806 1149.83 604.441C1148.93 605.049 1148.2 605.908 1147.65 607.018C1147.12 608.102 1146.85 609.384 1146.85 610.865C1146.85 613.164 1147.36 614.975 1148.36 616.297C1149.36 617.592 1150.75 618.24 1152.52 618.24ZM1177.96 620.976C1176.03 620.976 1174.28 620.579 1172.69 619.786C1171.13 618.993 1169.89 617.843 1168.96 616.337C1168.04 614.803 1167.58 612.966 1167.58 610.825C1167.58 608.737 1168.04 606.939 1168.96 605.432C1169.89 603.925 1171.09 602.775 1172.57 601.982C1174.08 601.163 1175.69 600.753 1177.41 600.753C1179.26 600.753 1180.83 601.137 1182.13 601.903C1183.45 602.643 1184.45 603.687 1185.14 605.036C1185.86 606.384 1186.21 607.97 1186.21 609.794C1186.21 610.164 1186.2 610.521 1186.17 610.865C1186.15 611.208 1186.11 611.512 1186.05 611.777H1169.76V609.239H1184.11L1183.28 610.151C1183.28 607.877 1182.75 606.172 1181.69 605.036C1180.66 603.899 1179.26 603.331 1177.49 603.331C1176.3 603.331 1175.19 603.621 1174.16 604.203C1173.15 604.785 1172.35 605.63 1171.74 606.741C1171.13 607.851 1170.83 609.212 1170.83 610.825C1170.83 612.49 1171.16 613.878 1171.82 614.988C1172.48 616.099 1173.38 616.945 1174.51 617.526C1175.65 618.081 1176.93 618.359 1178.36 618.359C1179.52 618.359 1180.57 618.2 1181.49 617.883C1182.44 617.539 1183.36 617.09 1184.23 616.535L1185.42 618.676C1184.47 619.31 1183.37 619.852 1182.13 620.302C1180.91 620.751 1179.52 620.976 1177.96 620.976ZM1192.9 618.597V615.464L1204.83 607.415V607.256L1192.9 599.207V596.074L1207.69 606.106V608.565L1192.9 618.597Z" fill="#EA51B2"/>
<rect x="88" y="502" width="889" height="217" rx="8" fill="#282936"/>
<path d="M137.549 622.097L122.758 612.065V609.606L137.549 599.574V602.707L125.613 610.756V610.915L137.549 618.964V622.097ZM154.068 624.476C152.191 624.476 150.433 624.172 148.794 623.564C147.155 622.956 145.754 622.255 144.591 621.462L146.098 619.321C147.208 620.114 148.437 620.749 149.786 621.224C151.134 621.7 152.693 621.938 154.465 621.938C156.103 621.938 157.319 621.634 158.113 621.026C158.932 620.418 159.342 619.718 159.342 618.925C159.342 618.554 159.262 618.211 159.104 617.894C158.972 617.576 158.694 617.272 158.271 616.982C157.875 616.691 157.28 616.413 156.487 616.149C155.694 615.885 154.636 615.62 153.315 615.356C150.803 614.827 148.913 614.113 147.644 613.215C146.402 612.316 145.781 611.153 145.781 609.725C145.781 608.166 146.455 606.87 147.803 605.839C149.151 604.782 151.147 604.253 153.79 604.253C155.271 604.253 156.698 604.504 158.073 605.007C159.447 605.482 160.611 606.051 161.562 606.712L159.976 608.813C159.104 608.179 158.113 607.69 157.002 607.346C155.892 606.976 154.729 606.791 153.513 606.791C152.403 606.791 151.517 606.923 150.856 607.187C150.222 607.425 149.759 607.756 149.468 608.179C149.204 608.602 149.072 609.064 149.072 609.567C149.072 610.386 149.508 611.034 150.38 611.51C151.279 611.959 152.707 612.382 154.663 612.778C156.804 613.228 158.443 613.73 159.58 614.285C160.743 614.84 161.536 615.475 161.959 616.189C162.408 616.902 162.633 617.748 162.633 618.726C162.633 619.784 162.302 620.749 161.642 621.621C160.981 622.467 160.016 623.154 158.747 623.683C157.478 624.211 155.918 624.476 154.068 624.476ZM178.637 624.476C176.707 624.476 174.949 624.079 173.363 623.286C171.803 622.493 170.561 621.343 169.636 619.837C168.711 618.303 168.248 616.466 168.248 614.325C168.248 612.237 168.711 610.439 169.636 608.932C170.561 607.425 171.764 606.275 173.244 605.482C174.751 604.663 176.363 604.253 178.082 604.253C179.932 604.253 181.505 604.637 182.8 605.403C184.122 606.143 185.127 607.187 185.814 608.536C186.528 609.884 186.884 611.47 186.884 613.294C186.884 613.664 186.871 614.021 186.845 614.365C186.818 614.708 186.779 615.012 186.726 615.277H170.429V612.739H184.783L183.95 613.651C183.95 611.377 183.422 609.672 182.364 608.536C181.333 607.399 179.932 606.831 178.161 606.831C176.971 606.831 175.861 607.121 174.83 607.703C173.826 608.285 173.019 609.13 172.411 610.241C171.803 611.351 171.499 612.712 171.499 614.325C171.499 615.99 171.83 617.378 172.491 618.488C173.152 619.599 174.05 620.445 175.187 621.026C176.324 621.581 177.606 621.859 179.033 621.859C180.196 621.859 181.241 621.7 182.166 621.383C183.118 621.039 184.03 620.59 184.902 620.035L186.091 622.176C185.14 622.81 184.043 623.352 182.8 623.802C181.584 624.251 180.196 624.476 178.637 624.476ZM203.047 624.476C201.038 624.476 199.227 624.079 197.615 623.286C196.029 622.493 194.773 621.343 193.848 619.837C192.949 618.33 192.5 616.519 192.5 614.404C192.5 612.237 192.989 610.399 193.967 608.893C194.945 607.386 196.24 606.236 197.853 605.443C199.492 604.65 201.289 604.253 203.245 604.253C204.831 604.253 206.193 604.531 207.33 605.086C208.493 605.641 209.471 606.302 210.264 607.069L208.638 609.17C207.845 608.483 207.026 607.941 206.18 607.544C205.334 607.148 204.395 606.95 203.364 606.95C201.884 606.95 200.575 607.267 199.439 607.901C198.302 608.509 197.416 609.382 196.782 610.518C196.174 611.629 195.87 612.924 195.87 614.404C195.87 615.858 196.174 617.14 196.782 618.25C197.39 619.361 198.249 620.233 199.359 620.867C200.496 621.475 201.805 621.779 203.285 621.779C204.475 621.779 205.558 621.542 206.536 621.066C207.541 620.59 208.44 620.022 209.233 619.361L210.7 621.462C209.643 622.414 208.453 623.154 207.131 623.683C205.836 624.211 204.475 624.476 203.047 624.476ZM228.726 624.476C226.849 624.476 225.369 624.145 224.285 623.485C223.201 622.797 222.422 621.859 221.946 620.669C221.496 619.48 221.272 618.092 221.272 616.506V607.386H215.839V604.927L221.391 604.729L221.827 598.543H224.523V604.729H234V607.386H224.523V616.545C224.523 617.682 224.668 618.647 224.959 619.44C225.25 620.233 225.752 620.828 226.466 621.224C227.18 621.621 228.158 621.819 229.4 621.819C230.326 621.819 231.158 621.74 231.898 621.581C232.639 621.423 233.352 621.211 234.04 620.947L234.753 623.326C233.881 623.643 232.956 623.907 231.978 624.119C231.026 624.357 229.942 624.476 228.726 624.476ZM249.409 624V607.386H240.448V604.729H252.661V624H249.409ZM250.678 600.685C249.938 600.685 249.317 600.46 248.814 600.01C248.312 599.535 248.061 598.913 248.061 598.147C248.061 597.38 248.312 596.772 248.814 596.323C249.317 595.847 249.938 595.609 250.678 595.609C251.418 595.609 252.039 595.847 252.542 596.323C253.044 596.772 253.295 597.38 253.295 598.147C253.295 598.913 253.044 599.535 252.542 600.01C252.039 600.46 251.418 600.685 250.678 600.685ZM272.551 624.476C270.859 624.476 269.286 624.079 267.832 623.286C266.404 622.493 265.241 621.343 264.343 619.837C263.47 618.33 263.034 616.519 263.034 614.404C263.034 612.237 263.47 610.399 264.343 608.893C265.241 607.386 266.404 606.236 267.832 605.443C269.286 604.65 270.859 604.253 272.551 604.253C274.242 604.253 275.802 604.65 277.229 605.443C278.683 606.236 279.847 607.386 280.719 608.893C281.618 610.399 282.067 612.237 282.067 614.404C282.067 616.519 281.618 618.33 280.719 619.837C279.847 621.343 278.683 622.493 277.229 623.286C275.802 624.079 274.242 624.476 272.551 624.476ZM272.551 621.779C273.793 621.779 274.877 621.475 275.802 620.867C276.727 620.233 277.441 619.361 277.943 618.25C278.445 617.14 278.697 615.858 278.697 614.404C278.697 612.924 278.445 611.629 277.943 610.518C277.441 609.382 276.727 608.509 275.802 607.901C274.877 607.267 273.793 606.95 272.551 606.95C271.308 606.95 270.224 607.267 269.299 607.901C268.4 608.509 267.687 609.382 267.158 610.518C266.656 611.629 266.404 612.924 266.404 614.404C266.404 615.858 266.656 617.14 267.158 618.25C267.687 619.361 268.4 620.233 269.299 620.867C270.224 621.475 271.308 621.779 272.551 621.779ZM288.118 624V604.729H290.815L291.092 608.02H291.251C292.255 606.936 293.339 606.038 294.502 605.324C295.665 604.61 297 604.253 298.507 604.253C300.781 604.253 302.459 604.914 303.543 606.236C304.627 607.558 305.169 609.487 305.169 612.025V624H301.917V612.461C301.917 610.637 301.574 609.289 300.886 608.417C300.199 607.518 299.062 607.069 297.476 607.069C296.34 607.069 295.322 607.359 294.423 607.941C293.524 608.522 292.507 609.395 291.37 610.558V624H288.118ZM312.449 622.097V618.964L324.385 610.915V610.756L312.449 602.707V599.574L327.24 609.606V612.065L312.449 622.097Z" fill="#EA51B2"/>
<rect x="88" y="759" width="889" height="217" rx="8" fill="#282936"/>
<path d="M137.549 879.097L122.758 869.065V866.606L137.549 856.574V859.707L125.613 867.756V867.915L137.549 875.964V879.097ZM154.068 881.476C152.191 881.476 150.433 881.172 148.794 880.564C147.155 879.956 145.754 879.255 144.591 878.462L146.098 876.321C147.208 877.114 148.437 877.749 149.786 878.224C151.134 878.7 152.693 878.938 154.465 878.938C156.103 878.938 157.319 878.634 158.113 878.026C158.932 877.418 159.342 876.718 159.342 875.925C159.342 875.554 159.262 875.211 159.104 874.894C158.972 874.576 158.694 874.272 158.271 873.982C157.875 873.691 157.28 873.413 156.487 873.149C155.694 872.885 154.636 872.62 153.315 872.356C150.803 871.827 148.913 871.113 147.644 870.215C146.402 869.316 145.781 868.153 145.781 866.725C145.781 865.166 146.455 863.87 147.803 862.839C149.151 861.782 151.147 861.253 153.79 861.253C155.271 861.253 156.698 861.504 158.073 862.007C159.447 862.482 160.611 863.051 161.562 863.712L159.976 865.813C159.104 865.179 158.113 864.69 157.002 864.346C155.892 863.976 154.729 863.791 153.513 863.791C152.403 863.791 151.517 863.923 150.856 864.187C150.222 864.425 149.759 864.756 149.468 865.179C149.204 865.602 149.072 866.064 149.072 866.567C149.072 867.386 149.508 868.034 150.38 868.51C151.279 868.959 152.707 869.382 154.663 869.778C156.804 870.228 158.443 870.73 159.58 871.285C160.743 871.84 161.536 872.475 161.959 873.189C162.408 873.902 162.633 874.748 162.633 875.726C162.633 876.784 162.302 877.749 161.642 878.621C160.981 879.467 160.016 880.154 158.747 880.683C157.478 881.211 155.918 881.476 154.068 881.476ZM178.637 881.476C176.707 881.476 174.949 881.079 173.363 880.286C171.803 879.493 170.561 878.343 169.636 876.837C168.711 875.303 168.248 873.466 168.248 871.325C168.248 869.237 168.711 867.439 169.636 865.932C170.561 864.425 171.764 863.275 173.244 862.482C174.751 861.663 176.363 861.253 178.082 861.253C179.932 861.253 181.505 861.637 182.8 862.403C184.122 863.143 185.127 864.187 185.814 865.536C186.528 866.884 186.884 868.47 186.884 870.294C186.884 870.664 186.871 871.021 186.845 871.365C186.818 871.708 186.779 872.012 186.726 872.277H170.429V869.739H184.783L183.95 870.651C183.95 868.377 183.422 866.672 182.364 865.536C181.333 864.399 179.932 863.831 178.161 863.831C176.971 863.831 175.861 864.121 174.83 864.703C173.826 865.285 173.019 866.13 172.411 867.241C171.803 868.351 171.499 869.712 171.499 871.325C171.499 872.99 171.83 874.378 172.491 875.488C173.152 876.599 174.05 877.445 175.187 878.026C176.324 878.581 177.606 878.859 179.033 878.859C180.196 878.859 181.241 878.7 182.166 878.383C183.118 878.039 184.03 877.59 184.902 877.035L186.091 879.176C185.14 879.81 184.043 880.352 182.8 880.802C181.584 881.251 180.196 881.476 178.637 881.476ZM203.047 881.476C201.038 881.476 199.227 881.079 197.615 880.286C196.029 879.493 194.773 878.343 193.848 876.837C192.949 875.33 192.5 873.519 192.5 871.404C192.5 869.237 192.989 867.399 193.967 865.893C194.945 864.386 196.24 863.236 197.853 862.443C199.492 861.65 201.289 861.253 203.245 861.253C204.831 861.253 206.193 861.531 207.33 862.086C208.493 862.641 209.471 863.302 210.264 864.069L208.638 866.17C207.845 865.483 207.026 864.941 206.18 864.544C205.334 864.148 204.395 863.95 203.364 863.95C201.884 863.95 200.575 864.267 199.439 864.901C198.302 865.509 197.416 866.382 196.782 867.518C196.174 868.629 195.87 869.924 195.87 871.404C195.87 872.858 196.174 874.14 196.782 875.25C197.39 876.361 198.249 877.233 199.359 877.867C200.496 878.475 201.805 878.779 203.285 878.779C204.475 878.779 205.558 878.542 206.536 878.066C207.541 877.59 208.44 877.022 209.233 876.361L210.7 878.462C209.643 879.414 208.453 880.154 207.131 880.683C205.836 881.211 204.475 881.476 203.047 881.476ZM228.726 881.476C226.849 881.476 225.369 881.145 224.285 880.485C223.201 879.797 222.422 878.859 221.946 877.669C221.496 876.48 221.272 875.092 221.272 873.506V864.386H215.839V861.927L221.391 861.729L221.827 855.543H224.523V861.729H234V864.386H224.523V873.545C224.523 874.682 224.668 875.647 224.959 876.44C225.25 877.233 225.752 877.828 226.466 878.224C227.18 878.621 228.158 878.819 229.4 878.819C230.326 878.819 231.158 878.74 231.898 878.581C232.639 878.423 233.352 878.211 234.04 877.947L234.753 880.326C233.881 880.643 232.956 880.907 231.978 881.119C231.026 881.357 229.942 881.476 228.726 881.476ZM249.409 881V864.386H240.448V861.729H252.661V881H249.409ZM250.678 857.685C249.938 857.685 249.317 857.46 248.814 857.01C248.312 856.535 248.061 855.913 248.061 855.147C248.061 854.38 248.312 853.772 248.814 853.323C249.317 852.847 249.938 852.609 250.678 852.609C251.418 852.609 252.039 852.847 252.542 853.323C253.044 853.772 253.295 854.38 253.295 855.147C253.295 855.913 253.044 856.535 252.542 857.01C252.039 857.46 251.418 857.685 250.678 857.685ZM272.551 881.476C270.859 881.476 269.286 881.079 267.832 880.286C266.404 879.493 265.241 878.343 264.343 876.837C263.47 875.33 263.034 873.519 263.034 871.404C263.034 869.237 263.47 867.399 264.343 865.893C265.241 864.386 266.404 863.236 267.832 862.443C269.286 861.65 270.859 861.253 272.551 861.253C274.242 861.253 275.802 861.65 277.229 862.443C278.683 863.236 279.847 864.386 280.719 865.893C281.618 867.399 282.067 869.237 282.067 871.404C282.067 873.519 281.618 875.33 280.719 876.837C279.847 878.343 278.683 879.493 277.229 880.286C275.802 881.079 274.242 881.476 272.551 881.476ZM272.551 878.779C273.793 878.779 274.877 878.475 275.802 877.867C276.727 877.233 277.441 876.361 277.943 875.25C278.445 874.14 278.697 872.858 278.697 871.404C278.697 869.924 278.445 868.629 277.943 867.518C277.441 866.382 276.727 865.509 275.802 864.901C274.877 864.267 273.793 863.95 272.551 863.95C271.308 863.95 270.224 864.267 269.299 864.901C268.4 865.509 267.687 866.382 267.158 867.518C266.656 868.629 266.404 869.924 266.404 871.404C266.404 872.858 266.656 874.14 267.158 875.25C267.687 876.361 268.4 877.233 269.299 877.867C270.224 878.475 271.308 878.779 272.551 878.779ZM288.118 881V861.729H290.815L291.092 865.02H291.251C292.255 863.936 293.339 863.038 294.502 862.324C295.665 861.61 297 861.253 298.507 861.253C300.781 861.253 302.459 861.914 303.543 863.236C304.627 864.558 305.169 866.487 305.169 869.025V881H301.917V869.461C301.917 867.637 301.574 866.289 300.886 865.417C300.199 864.518 299.062 864.069 297.476 864.069C296.34 864.069 295.322 864.359 294.423 864.941C293.524 865.522 292.507 866.395 291.37 867.558V881H288.118ZM312.449 879.097V875.964L324.385 867.915V867.756L312.449 859.707V856.574L327.24 866.606V869.065L312.449 879.097Z" fill="#EA51B2"/>
<rect x="88" y="93" width="1380" height="98" rx="8" fill="#282936"/>
<path d="M137.549 153.597L122.758 143.565V141.106L137.549 131.074V134.207L125.613 142.256V142.415L137.549 150.464V153.597ZM145.463 155.5V136.229H148.16L148.437 139.52H148.596C149.601 138.436 150.684 137.538 151.847 136.824C153.011 136.11 154.346 135.753 155.852 135.753C158.126 135.753 159.804 136.414 160.888 137.736C161.972 139.058 162.514 140.987 162.514 143.525V155.5H159.262V143.961C159.262 142.137 158.919 140.789 158.231 139.917C157.544 139.018 156.407 138.569 154.821 138.569C153.685 138.569 152.667 138.859 151.768 139.441C150.869 140.022 149.852 140.895 148.715 142.058V155.5H145.463ZM175.306 155.976C174.116 155.976 173.019 155.764 172.015 155.341C171.01 154.892 170.217 154.258 169.636 153.438C169.054 152.619 168.763 151.641 168.763 150.504C168.763 148.336 169.847 146.697 172.015 145.587C174.183 144.45 177.751 143.684 182.721 143.287C182.695 142.415 182.51 141.609 182.166 140.868C181.849 140.128 181.32 139.547 180.58 139.124C179.84 138.674 178.848 138.45 177.606 138.45C176.786 138.45 175.967 138.569 175.147 138.806C174.354 139.018 173.588 139.309 172.848 139.679C172.134 140.022 171.473 140.379 170.865 140.749L169.596 138.529C170.231 138.106 170.997 137.683 171.896 137.26C172.821 136.811 173.812 136.454 174.87 136.189C175.927 135.899 177.024 135.753 178.161 135.753C179.932 135.753 181.386 136.084 182.523 136.745C183.686 137.405 184.545 138.331 185.1 139.52C185.682 140.683 185.972 142.071 185.972 143.684V155.5H183.316L183.038 152.883H182.919C181.862 153.729 180.672 154.456 179.351 155.064C178.029 155.672 176.681 155.976 175.306 155.976ZM176.178 153.359C177.289 153.359 178.386 153.108 179.47 152.605C180.553 152.103 181.637 151.403 182.721 150.504V145.428C179.972 145.666 177.804 145.997 176.218 146.42C174.658 146.843 173.548 147.385 172.887 148.045C172.253 148.68 171.936 149.42 171.936 150.266C171.936 150.98 172.134 151.574 172.53 152.05C172.927 152.5 173.442 152.83 174.077 153.042C174.738 153.253 175.438 153.359 176.178 153.359ZM199.478 155.5L191.35 136.229H194.641L199.082 147.173C199.478 148.125 199.848 149.076 200.192 150.028C200.562 150.98 200.919 151.918 201.263 152.843H201.421C201.765 151.918 202.109 150.98 202.452 150.028C202.796 149.076 203.153 148.125 203.523 147.173L207.964 136.229H211.096L203.126 155.5H199.478ZM217.346 153.597V150.464L229.281 142.415V142.256L217.346 134.207V131.074L232.136 141.106V143.565L217.346 153.597Z" fill="#EA51B2"/>
<rect x="88" y="1016" width="1380" height="98" rx="8" fill="#282936"/>
<path d="M137.549 1076.6L122.758 1066.56V1064.11L137.549 1054.07V1057.21L125.613 1065.26V1065.41L137.549 1073.46V1076.6ZM151.372 1078.5V1057.6C151.372 1056.04 151.649 1054.68 152.204 1053.52C152.786 1052.33 153.645 1051.42 154.782 1050.78C155.918 1050.12 157.372 1049.79 159.143 1049.79C160.095 1049.79 161.02 1049.88 161.919 1050.07C162.844 1050.23 163.77 1050.51 164.695 1050.9L163.941 1053.36C163.148 1052.99 162.408 1052.75 161.721 1052.65C161.06 1052.51 160.307 1052.45 159.461 1052.45C157.742 1052.45 156.5 1052.9 155.733 1053.8C154.967 1054.7 154.583 1055.92 154.583 1057.48V1078.5H151.372ZM145.86 1061.89V1059.43L151.491 1059.23H162.673V1061.89H145.86ZM177.447 1078.98C175.755 1078.98 174.183 1078.58 172.729 1077.79C171.301 1076.99 170.138 1075.84 169.239 1074.34C168.367 1072.83 167.931 1071.02 167.931 1068.9C167.931 1066.74 168.367 1064.9 169.239 1063.39C170.138 1061.89 171.301 1060.74 172.729 1059.94C174.183 1059.15 175.755 1058.75 177.447 1058.75C179.139 1058.75 180.699 1059.15 182.126 1059.94C183.58 1060.74 184.743 1061.89 185.616 1063.39C186.514 1064.9 186.964 1066.74 186.964 1068.9C186.964 1071.02 186.514 1072.83 185.616 1074.34C184.743 1075.84 183.58 1076.99 182.126 1077.79C180.699 1078.58 179.139 1078.98 177.447 1078.98ZM177.447 1076.28C178.69 1076.28 179.774 1075.98 180.699 1075.37C181.624 1074.73 182.338 1073.86 182.84 1072.75C183.342 1071.64 183.593 1070.36 183.593 1068.9C183.593 1067.42 183.342 1066.13 182.84 1065.02C182.338 1063.88 181.624 1063.01 180.699 1062.4C179.774 1061.77 178.69 1061.45 177.447 1061.45C176.205 1061.45 175.121 1061.77 174.196 1062.4C173.297 1063.01 172.583 1063.88 172.055 1065.02C171.552 1066.13 171.301 1067.42 171.301 1068.9C171.301 1070.36 171.552 1071.64 172.055 1072.75C172.583 1073.86 173.297 1074.73 174.196 1075.37C175.121 1075.98 176.205 1076.28 177.447 1076.28ZM201.223 1078.98C199.531 1078.98 197.958 1078.58 196.504 1077.79C195.077 1076.99 193.914 1075.84 193.015 1074.34C192.143 1072.83 191.707 1071.02 191.707 1068.9C191.707 1066.74 192.143 1064.9 193.015 1063.39C193.914 1061.89 195.077 1060.74 196.504 1059.94C197.958 1059.15 199.531 1058.75 201.223 1058.75C202.915 1058.75 204.475 1059.15 205.902 1059.94C207.356 1060.74 208.519 1061.89 209.391 1063.39C210.29 1064.9 210.74 1066.74 210.74 1068.9C210.74 1071.02 210.29 1072.83 209.391 1074.34C208.519 1075.84 207.356 1076.99 205.902 1077.79C204.475 1078.58 202.915 1078.98 201.223 1078.98ZM201.223 1076.28C202.466 1076.28 203.549 1075.98 204.475 1075.37C205.4 1074.73 206.114 1073.86 206.616 1072.75C207.118 1071.64 207.369 1070.36 207.369 1068.9C207.369 1067.42 207.118 1066.13 206.616 1065.02C206.114 1063.88 205.4 1063.01 204.475 1062.4C203.549 1061.77 202.466 1061.45 201.223 1061.45C199.981 1061.45 198.897 1061.77 197.972 1062.4C197.073 1063.01 196.359 1063.88 195.83 1065.02C195.328 1066.13 195.077 1067.42 195.077 1068.9C195.077 1070.36 195.328 1071.64 195.83 1072.75C196.359 1073.86 197.073 1074.73 197.972 1075.37C198.897 1075.98 199.981 1076.28 201.223 1076.28ZM228.726 1078.98C226.849 1078.98 225.369 1078.65 224.285 1077.98C223.201 1077.3 222.422 1076.36 221.946 1075.17C221.496 1073.98 221.272 1072.59 221.272 1071.01V1061.89H215.839V1059.43L221.391 1059.23L221.827 1053.04H224.523V1059.23H234V1061.89H224.523V1071.05C224.523 1072.18 224.668 1073.15 224.959 1073.94C225.25 1074.73 225.752 1075.33 226.466 1075.72C227.18 1076.12 228.158 1076.32 229.4 1076.32C230.326 1076.32 231.158 1076.24 231.898 1076.08C232.639 1075.92 233.352 1075.71 234.04 1075.45L234.753 1077.83C233.881 1078.14 232.956 1078.41 231.978 1078.62C231.026 1078.86 229.942 1078.98 228.726 1078.98ZM249.964 1078.98C248.035 1078.98 246.277 1078.58 244.691 1077.79C243.131 1076.99 241.888 1075.84 240.963 1074.34C240.038 1072.8 239.575 1070.97 239.575 1068.82C239.575 1066.74 240.038 1064.94 240.963 1063.43C241.888 1061.93 243.091 1060.78 244.572 1059.98C246.078 1059.16 247.691 1058.75 249.409 1058.75C251.26 1058.75 252.832 1059.14 254.128 1059.9C255.45 1060.64 256.454 1061.69 257.141 1063.04C257.855 1064.38 258.212 1065.97 258.212 1067.79C258.212 1068.16 258.199 1068.52 258.172 1068.86C258.146 1069.21 258.106 1069.51 258.053 1069.78H241.756V1067.24H256.11L255.278 1068.15C255.278 1065.88 254.749 1064.17 253.692 1063.04C252.661 1061.9 251.26 1061.33 249.488 1061.33C248.299 1061.33 247.189 1061.62 246.158 1062.2C245.153 1062.78 244.347 1063.63 243.739 1064.74C243.131 1065.85 242.827 1067.21 242.827 1068.82C242.827 1070.49 243.157 1071.88 243.818 1072.99C244.479 1074.1 245.378 1074.94 246.515 1075.53C247.651 1076.08 248.933 1076.36 250.361 1076.36C251.524 1076.36 252.568 1076.2 253.493 1075.88C254.445 1075.54 255.357 1075.09 256.229 1074.53L257.419 1076.68C256.467 1077.31 255.37 1077.85 254.128 1078.3C252.912 1078.75 251.524 1078.98 249.964 1078.98ZM266.444 1078.5V1059.23H269.14L269.418 1063.79H269.537C270.541 1062.23 271.784 1061 273.264 1060.1C274.745 1059.2 276.37 1058.75 278.141 1058.75C278.855 1058.75 279.516 1058.82 280.124 1058.95C280.759 1059.06 281.367 1059.26 281.948 1059.55L281.195 1062.36C280.534 1062.12 279.965 1061.95 279.49 1061.85C279.014 1061.74 278.393 1061.69 277.626 1061.69C276.172 1061.69 274.771 1062.11 273.423 1062.96C272.101 1063.78 270.859 1065.19 269.696 1067.2V1078.5H266.444ZM288.673 1076.6V1073.46L300.609 1065.41V1065.26L288.673 1057.21V1054.07L303.464 1064.11V1066.56L288.673 1076.6Z" fill="#EA51B2"/>
</svg>
